<?xml version="1.0" standalone="no"?>
<!DOCTYPE svg PUBLIC "-//W3C//DTD SVG 20010904//EN"
 "http://www.w3.org/TR/2001/REC-SVG-20010904/DTD/svg10.dtd">
<svg version="1.0" xmlns="http://www.w3.org/2000/svg"
 width="1000.000000pt" height="1000.000000pt" viewBox="0 0 1000.000000 1000.000000"
 preserveAspectRatio="xMidYMid meet">
<metadata>
Created by potrace 1.15, written by Peter Selinger 2001-2017
</metadata>
<g transform="translate(0.000000,1000.000000) scale(0.100000,-0.100000)"
fill="#000000" stroke="none">



<path fill="#208bab" d="M5495 8146 c-11 -7 -40 -17 -65 -20 -25 -4 -54 -11 -65 -16 -34 -15
-98 -30 -107 -24 -4 3 -8 0 -8 -5 0 -6 -3 -10 -7 -10 -24 4 -45 -4 -70 -25
-15 -12 -34 -21 -42 -18 -9 3 -11 0 -6 -8 6 -10 4 -12 -8 -7 -10 3 -17 3 -17
-2 0 -8 -21 -14 -85 -25 -11 -2 -19 -8 -18 -13 1 -5 -15 -10 -35 -10 -42 0
-65 -5 -72 -15 -3 -4 -24 -9 -45 -11 -22 -1 -46 -6 -53 -11 -7 -4 -24 -10 -38
-12 -13 -2 -36 -6 -52 -9 -15 -3 -33 -6 -39 -7 -7 -1 -13 -5 -13 -10 0 -5 -11
-6 -24 -4 -14 2 -26 -1 -29 -7 -6 -17 1 -204 9 -257 4 -25 7 -49 5 -53 -4 -20
23 -95 46 -125 14 -18 26 -41 28 -50 2 -9 4 -18 5 -19 2 -2 3 -6 4 -10 4 -14
30 -68 36 -73 3 -3 18 -25 34 -50 27 -42 67 -85 112 -120 37 -29 119 -80 128
-79 5 0 12 -3 15 -8 10 -14 61 -33 61 -23 0 6 13 10 30 10 25 0 33 -7 50 -41
14 -27 26 -39 36 -35 8 3 14 2 14 -2 0 -6 54 -12 153 -16 9 0 17 -3 17 -7 0
-15 94 2 200 36 168 54 320 138 320 176 0 5 7 9 15 9 9 0 18 7 21 15 4 8 11
15 18 15 6 0 29 26 51 57 22 31 55 71 73 89 30 30 31 35 20 61 -7 15 -21 35
-30 44 -10 9 -18 22 -18 28 0 7 -11 24 -25 39 -14 15 -25 32 -25 39 0 11 -38
82 -50 93 -3 3 -14 22 -25 43 -11 21 -32 49 -47 63 -16 13 -28 28 -28 33 0 5
-12 22 -27 38 -39 40 -83 96 -83 106 0 5 -4 5 -10 2 -5 -3 -10 1 -10 9 0 9 -4
16 -9 16 -5 0 -12 11 -15 25 -4 14 -11 25 -16 25 -6 0 -10 6 -10 14 0 8 -4 16
-9 18 -5 2 -30 31 -55 66 -26 35 -50 60 -55 57 -5 -2 -11 2 -15 10 -7 19 -16
19 -41 1z"/>
<path fill="#208bab" d="M3336 8091 c-21 -4 -32 -14 -40 -37 -6 -18 -26 -49 -43 -69 -18 -21
-33 -42 -33 -47 0 -5 -6 -15 -12 -22 -51 -52 -73 -87 -99 -156 -17 -44 -35
-80 -40 -80 -5 0 -9 -6 -10 -12 0 -7 -20 -40 -45 -73 -24 -33 -48 -69 -53 -81
-5 -11 -21 -28 -35 -37 -14 -10 -26 -24 -26 -32 0 -9 -9 -23 -20 -32 -11 -10
-20 -22 -20 -28 0 -6 -9 -17 -20 -25 -26 -19 -25 -28 5 -52 14 -11 39 -39 55
-63 66 -96 175 -189 235 -199 13 -3 59 -27 65 -35 3 -4 39 -21 80 -39 74 -31
147 -47 205 -45 82 2 194 13 223 22 18 5 35 10 37 10 3 1 6 1 8 2 1 0 17 2 36
4 46 5 92 24 120 52 13 12 27 21 31 18 4 -3 11 2 14 11 4 9 9 14 13 11 3 -4
19 3 34 14 16 11 29 17 29 13 0 -10 43 36 70 76 13 19 27 37 30 40 16 15 99
151 116 190 10 25 24 51 31 57 6 7 15 39 18 70 4 32 11 74 15 93 10 40 12 79
11 171 -1 60 -3 67 -23 74 -35 11 -38 12 -40 15 -2 1 -14 3 -28 4 -14 1 -30 5
-37 9 -6 4 -23 8 -37 9 -14 1 -26 5 -26 8 0 7 -88 33 -94 29 -2 -2 -13 5 -25
15 -12 11 -21 16 -21 11 0 -4 -7 -2 -15 5 -12 10 -15 10 -15 -1 0 -11 -2 -11
-8 -1 -8 13 -34 21 -83 26 -15 2 -33 7 -40 12 -8 5 -33 9 -56 10 -23 1 -46 5
-52 9 -12 7 -55 15 -101 19 -14 1 -31 5 -37 9 -6 4 -33 12 -60 17 -26 6 -58
12 -70 15 -13 3 -34 7 -48 9 -13 3 -28 6 -32 9 -5 2 -21 1 -37 -2z"/>
<path fill="#208bab" d="M4399 7212 c-5 -10 -199 -140 -244 -162 -32 -17 -137 -117 -154 -148
-14 -26 -4 -34 94 -71 148 -55 234 -100 327 -171 l26 -20 -4 202 c-5 247 -15
370 -30 375 -7 2 -14 0 -15 -5z"/>
<path fill="#208bab" d="M4505 7128 c7 -80 12 -221 14 -415 1 -66 9 -67 96 -13 36 22 67 40
70 40 8 0 178 106 233 146 2 1 -6 12 -17 23 -12 12 -21 27 -21 34 -1 6 -24 29
-53 49 -29 21 -64 49 -79 63 -15 14 -31 25 -37 25 -5 0 -11 3 -13 8 -4 9 -102
72 -112 72 -4 0 -13 6 -21 13 -26 24 -55 47 -62 47 -3 0 -2 -42 2 -92z"/>
<path fill="#208bab" d="M6305 7164 c-11 -20 -36 -54 -57 -76 -21 -22 -38 -42 -38 -45 0 -2
-17 -30 -37 -61 -48 -73 -54 -87 -58 -143 -2 -25 -13 -70 -25 -100 -24 -63
-36 -225 -19 -280 5 -19 12 -41 14 -49 13 -61 30 -111 55 -161 15 -32 25 -60
22 -63 -3 -4 -1 -6 5 -6 6 0 13 -13 16 -30 4 -18 30 -54 64 -89 32 -33 75 -77
96 -99 20 -23 54 -46 75 -53 20 -6 39 -15 42 -20 12 -17 217 -85 290 -95 69
-9 234 1 290 19 56 18 60 32 74 227 1 14 5 31 9 38 5 6 6 16 3 21 -3 4 1 39 8
77 8 38 15 96 15 129 1 33 4 130 7 215 11 342 12 336 -33 343 -11 1 -28 9 -37
16 -9 7 -16 10 -16 6 0 -5 -9 0 -21 11 -12 10 -24 19 -28 18 -3 -1 -19 4 -36
10 -16 5 -33 9 -37 8 -5 -1 -8 1 -8 6 0 4 -17 16 -37 26 -21 10 -45 22 -54 26
-9 5 -22 4 -29 0 -7 -4 -20 -4 -29 0 -15 8 -51 22 -61 24 -3 1 -11 5 -17 9 -7
5 -13 6 -13 2 0 -3 -18 4 -40 15 -22 11 -40 17 -40 14 0 -4 -8 0 -17 8 -16 13
-50 29 -63 29 -3 0 -13 8 -22 16 -10 9 -18 12 -18 8 0 -5 -9 1 -21 13 -11 12
-24 20 -28 18 -4 -3 -17 2 -27 12 -10 9 -28 19 -39 20 -11 2 -24 8 -29 13 -18
17 -31 9 -51 -27z"/>
<path fill="#208bab" d="M2550 7024 c-19 -9 -43 -20 -52 -25 -10 -5 -27 -9 -38 -9 -11 0 -20
-4 -20 -10 0 -5 -8 -10 -18 -10 -10 0 -37 -9 -60 -20 -22 -11 -48 -20 -56 -20
-8 0 -21 -6 -29 -14 -7 -8 -33 -24 -58 -35 -52 -26 -102 -54 -109 -61 -6 -6
-259 -130 -265 -130 -5 0 -38 -26 -62 -49 -8 -8 -10 -17 -5 -20 10 -7 11 -13
17 -96 2 -33 4 -60 6 -60 1 0 3 -32 4 -71 2 -44 12 -99 28 -145 29 -85 32
-114 51 -475 2 -28 6 -56 10 -62 3 -5 3 -17 0 -25 -11 -31 28 -39 186 -41 92
-1 120 2 140 16 14 9 54 22 89 28 35 6 71 15 80 19 126 59 157 80 234 162 45
48 93 103 107 123 14 21 34 49 46 64 12 15 29 54 38 87 10 33 24 72 32 86 7
14 11 29 7 32 -3 4 0 14 8 23 9 11 13 41 12 92 -2 79 -31 273 -43 282 -4 3
-10 20 -13 37 -8 43 -45 123 -56 123 -5 0 -19 21 -32 48 -12 26 -46 71 -76
101 -29 30 -53 58 -53 63 0 11 -10 10 -50 -8z"/>
<path fill="#208bab" d="M3993 6696 c60 -118 89 -180 122 -259 18 -43 11 -45 111 30 42 31 98
62 135 75 54 18 61 23 46 32 -10 6 -44 30 -75 53 -67 50 -152 92 -247 123 -38
12 -77 28 -85 36 -8 7 -27 17 -42 23 -25 9 -24 5 35 -113z"/>
<path fill="#208bab" d="M4938 6808 c-16 -5 -28 -14 -28 -19 0 -5 -4 -9 -9 -9 -5 0 -32 -15
-60 -34 -28 -19 -87 -54 -131 -77 -44 -24 -80 -46 -80 -49 0 -3 15 -12 34 -18
28 -10 150 -88 237 -151 16 -11 19 -11 23 0 2 8 25 81 52 162 45 137 47 149
31 158 -9 6 -17 16 -17 23 0 19 -20 25 -52 14z"/>
<path fill="#208bab" d="M5397 6804 c-1 -1 -30 -4 -65 -7 -35 -2 -65 -7 -67 -9 -3 -3 11 -51
31 -109 52 -148 81 -239 91 -278 l8 -33 85 109 c47 59 101 130 120 156 19 27
54 72 78 100 l43 52 -48 7 c-45 7 -270 17 -276 12z"/>
<path fill="#208bab" d="M3850 6794 c0 -7 -16 -29 -35 -50 -44 -49 -99 -197 -136 -364 -6 -30
-16 -61 -22 -68 -20 -25 4 -24 82 2 60 19 101 26 159 26 44 0 100 3 125 6 l45
6 -20 47 c-67 159 -197 419 -198 395z"/>
<path fill="#208bab" d="M5783 6752 c-53 -61 -117 -143 -164 -209 -24 -34 -71 -94 -103 -133
-42 -51 -56 -74 -48 -82 6 -6 59 -14 119 -19 188 -14 273 -27 329 -53 30 -14
52 -21 49 -16 -3 5 -8 25 -10 45 -3 19 -9 54 -14 77 -6 24 -12 58 -15 76 -4
17 -8 46 -11 64 -3 17 -8 34 -10 37 -2 4 -6 27 -10 51 -4 25 -8 50 -9 55 -2 6
-6 27 -11 48 -4 20 -11 37 -16 37 -5 0 -9 9 -9 20 0 11 -5 20 -11 20 -5 0 -7
5 -4 10 3 6 0 10 -7 10 -7 0 -27 -17 -45 -38z"/>
<path fill="#208bab" d="M3282 6764 c-34 -6 -65 -14 -68 -17 -9 -8 22 -45 145 -177 60 -63
135 -146 167 -184 l58 -69 14 33 c7 18 18 57 23 87 11 60 85 281 100 299 12
15 -2 20 -60 23 -24 1 -52 6 -62 11 -22 13 -236 8 -317 -6z"/>
<path fill="#208bab" d="M5074 6693 c-15 -48 -36 -108 -46 -133 -11 -25 -23 -64 -27 -86 l-8
-41 86 -6 c55 -3 112 -15 157 -31 39 -14 74 -26 77 -26 15 0 -57 220 -75 228
-5 2 -8 12 -8 21 0 10 -9 48 -21 84 -20 65 -21 67 -52 63 -18 -2 -37 1 -44 6
-8 7 -19 -15 -39 -79z"/>
<path fill="#208bab" d="M3091 6718 c-5 -12 -7 -26 -5 -30 3 -4 -5 -35 -16 -70 -11 -35 -22
-74 -25 -86 -2 -12 -6 -26 -9 -31 -19 -30 -62 -303 -51 -321 2 -3 55 3 117 15
142 28 285 52 366 62 l63 8 -53 60 c-29 33 -93 102 -143 155 -122 130 -184
201 -198 230 -17 33 -35 36 -46 8z"/>
<path fill="#208bab" d="M5450 6246 c0 -3 18 -39 40 -81 22 -42 40 -88 40 -102 0 -26 2 -37
35 -145 l18 -57 26 17 c14 9 28 19 31 22 3 3 48 34 100 70 52 35 126 89 163
119 l68 55 -56 28 c-69 34 -185 55 -347 62 -42 2 -86 7 -97 11 -12 3 -21 4
-21 1z"/>
<path fill="#208bab" d="M3382 6168 c-23 -4 -47 -10 -52 -13 -5 -3 -60 -12 -122 -20 -102 -13
-214 -37 -225 -49 -11 -11 10 -26 45 -31 61 -11 134 -43 248 -111 59 -35 114
-64 121 -64 8 0 13 12 13 28 0 42 37 150 71 205 16 26 29 52 29 57 0 11 -61
10 -128 -2z"/>
<path fill="#208bab" d="M5945 6030 c-27 -22 -59 -47 -70 -57 -10 -10 -24 -20 -30 -23 -36
-18 -85 -53 -85 -61 0 -5 -7 -9 -15 -9 -8 0 -23 -9 -32 -20 -10 -11 -21 -20
-26 -20 -4 0 -19 -8 -32 -17 l-24 -18 82 -80 c46 -44 93 -101 107 -128 29 -59
34 -55 88 73 32 75 102 346 102 393 0 13 -15 6 -65 -33z"/>
<path fill="#208bab" d="M2933 5983 c9 -11 17 -34 17 -52 0 -29 16 -72 79 -216 50 -112 74
-171 80 -193 7 -24 9 -22 46 34 21 32 81 103 134 157 70 72 90 97 75 97 -11 0
-49 18 -85 40 -99 62 -219 119 -274 129 -27 5 -59 13 -70 17 -19 7 -19 7 -2
-13z"/>
<path fill="#208bab" d="M6067 5983 c-2 -5 -7 -26 -11 -48 -19 -106 -50 -211 -90 -304 -33
-77 -40 -101 -28 -95 9 4 98 22 196 40 99 18 191 37 205 43 14 5 45 13 69 16
24 4 55 13 68 20 l24 12 -22 16 c-27 18 -128 114 -128 121 0 10 -60 66 -70 66
-5 0 -10 4 -10 9 0 5 -10 13 -22 17 -12 3 -30 15 -41 25 -11 10 -36 24 -56 30
-19 7 -42 18 -49 26 -15 15 -29 17 -35 6z"/>
<path fill="#208bab" d="M2851 5862 c-55 -41 -148 -118 -172 -142 -14 -14 -56 -52 -94 -85
-38 -33 -87 -76 -108 -96 -50 -47 -64 -44 246 -64 42 -3 99 -10 125 -16 66
-15 212 -26 212 -17 0 5 -4 16 -9 26 -8 16 -17 36 -40 95 -5 12 -19 45 -31 72
-13 28 -28 66 -35 85 -7 19 -22 52 -34 73 -11 21 -21 46 -21 57 0 27 -14 32
-39 12z"/>
<path fill="#208bab" d="M6546 5593 c-4 -5 -17 -9 -29 -10 -40 -3 -132 -25 -142 -33 -5 -4
-28 -11 -50 -15 -22 -5 -44 -10 -50 -12 -33 -11 -151 -31 -158 -26 -4 2 -14
-1 -22 -7 -8 -6 -18 -9 -23 -6 -8 5 -25 1 -92 -22 -8 -3 -19 -4 -25 -3 -5 2
-1 -8 11 -21 11 -13 56 -66 100 -118 43 -52 107 -125 140 -162 37 -40 67 -84
75 -109 17 -52 30 -57 51 -22 9 16 34 47 56 70 21 23 49 68 62 100 13 32 31
67 40 78 9 11 32 61 50 110 18 50 39 97 46 105 7 8 17 27 23 42 9 24 7 30 -16
48 -28 22 -36 24 -47 13z"/>
<path fill="#208bab" d="M7169 5526 c-4 -4 -24 -8 -46 -10 -22 -1 -45 -6 -51 -10 -7 -4 -12
-5 -12 -1 0 3 -13 -1 -30 -10 -16 -8 -38 -15 -48 -15 -32 0 -85 -31 -119 -69
-18 -20 -33 -32 -33 -28 0 10 -74 -41 -112 -76 -15 -14 -35 -31 -45 -39 -27
-20 -80 -99 -99 -149 -9 -24 -21 -49 -26 -55 -14 -19 -47 -122 -41 -128 4 -3
1 -6 -6 -6 -7 0 -10 -4 -7 -8 3 -5 -3 -32 -14 -59 -13 -35 -18 -67 -15 -104 3
-30 7 -93 9 -141 3 -69 8 -92 25 -114 12 -15 21 -32 21 -39 0 -15 95 -181 130
-226 36 -48 87 -99 97 -99 5 0 29 -18 54 -40 24 -22 54 -43 67 -46 12 -3 22
-11 22 -16 0 -5 6 -8 13 -5 6 2 20 -3 30 -12 18 -15 21 -14 43 12 13 16 24 25
24 22 0 -3 18 11 39 32 22 21 54 49 73 63 40 30 177 169 198 200 8 13 32 40
53 61 20 20 37 41 37 46 0 4 16 22 36 38 71 59 154 151 154 171 0 7 5 14 11
14 6 0 1 14 -11 30 -12 17 -23 36 -24 43 -3 14 -32 75 -46 97 -5 8 -16 33 -25
55 -29 71 -49 107 -62 112 -7 3 -13 11 -13 19 0 7 -9 18 -19 24 -11 5 -22 23
-26 40 -4 16 -10 30 -15 30 -5 0 -14 16 -21 35 -7 19 -17 35 -22 35 -4 0 -5
10 -2 21 5 15 4 19 -4 15 -7 -5 -11 2 -11 18 0 14 -4 26 -9 26 -9 0 -27 57
-23 73 1 4 -5 10 -13 13 -8 4 -15 17 -15 30 0 13 -4 24 -10 24 -5 0 -10 9 -10
20 0 11 -5 20 -10 20 -6 0 -10 6 -9 13 3 24 -1 38 -10 32 -5 -3 -11 2 -13 11
-2 9 -6 13 -9 10z"/>
<path fill="#208bab" d="M2430 5390 c6 -11 15 -20 20 -20 6 0 10 -9 10 -19 0 -11 7 -26 15
-35 8 -8 15 -22 15 -30 0 -9 11 -34 25 -56 14 -22 25 -44 25 -50 0 -6 8 -23
19 -38 10 -15 44 -66 76 -114 31 -49 61 -88 66 -88 5 0 19 -15 30 -32 12 -20
18 -24 15 -12 -4 14 9 47 43 105 89 151 124 203 193 280 l67 77 -47 1 c-47 1
-97 6 -156 17 -17 3 -42 8 -56 10 -14 3 -68 7 -120 10 -52 2 -130 7 -173 9
-75 5 -77 4 -67 -15z"/>
<path fill="#208bab" d="M5881 5338 c-20 -76 -66 -190 -100 -245 l-30 -48 182 -8 c100 -4 203
-14 230 -21 68 -20 63 9 -18 98 -27 30 -66 73 -85 96 -19 23 -49 57 -66 75
-18 18 -44 50 -59 69 -15 20 -30 36 -34 36 -4 0 -13 -24 -20 -52z"/>
<path fill="#208bab" d="M1843 5341 c-13 -22 -23 -46 -23 -54 0 -8 -7 -20 -15 -27 -9 -7 -13
-15 -11 -17 2 -3 -9 -27 -25 -54 -16 -28 -29 -52 -29 -55 0 -3 -10 -20 -22
-37 -12 -17 -23 -38 -24 -45 -2 -8 -10 -22 -18 -31 -9 -10 -16 -22 -16 -27 0
-8 -28 -84 -53 -144 -6 -14 -12 -34 -14 -45 -2 -11 -8 -24 -13 -29 -6 -6 -10
-16 -10 -23 0 -7 -16 -45 -36 -85 -19 -40 -46 -103 -59 -140 l-24 -67 20 -26
c11 -14 27 -25 35 -25 8 0 14 -4 14 -9 0 -15 199 -211 214 -211 26 0 206 -158
206 -181 0 -4 9 -10 19 -14 10 -3 24 -19 31 -35 7 -16 16 -27 21 -25 4 3 16
-7 26 -22 10 -15 29 -38 43 -49 27 -24 44 -20 81 17 10 10 26 19 34 19 8 0 15
5 15 10 0 6 8 10 18 10 9 0 37 18 62 40 25 22 48 40 52 40 14 0 77 75 78 91 0
9 10 27 23 41 42 47 67 88 106 171 37 80 57 184 54 282 -5 179 -12 237 -34
282 -12 26 -27 51 -32 54 -5 3 -8 8 -6 10 1 2 -1 15 -5 29 -20 62 -48 108 -72
119 -13 6 -24 15 -24 19 0 9 -122 114 -194 166 -53 38 -134 78 -145 72 -5 -4
-31 3 -57 15 -27 11 -76 23 -109 25 l-60 6 -22 -41z"/>
<path fill="#208bab" d="M3078 5278 c-27 -26 -48 -51 -48 -55 0 -5 -12 -20 -27 -35 -34 -32
-46 -47 -67 -84 -9 -16 -25 -42 -36 -59 -10 -16 -31 -52 -45 -80 -15 -27 -33
-57 -41 -66 -8 -8 -14 -18 -14 -22 0 -5 87 21 145 44 33 13 117 37 155 44 19
4 40 11 45 15 6 4 29 11 52 15 24 4 45 10 47 13 2 4 -3 21 -13 38 -59 113 -81
165 -87 209 -3 28 -9 55 -13 60 -3 6 -27 -10 -53 -37z"/>
<path fill="#208bab" d="M5724 4951 c13 -21 37 -271 31 -324 l-6 -58 23 12 c13 6 37 24 53 39
17 15 76 53 133 85 57 31 133 80 170 107 36 28 77 55 89 61 29 13 25 31 -7 35
-13 2 -34 11 -47 19 -37 24 -453 47 -439 24z"/>
<path fill="#208bab" d="M3260 4932 c0 -5 -24 -14 -52 -20 -29 -6 -84 -20 -123 -32 -38 -12
-82 -24 -97 -27 -16 -3 -28 -9 -28 -14 0 -5 -9 -9 -20 -9 -11 0 -37 -6 -57
-14 -21 -8 -47 -17 -57 -20 -18 -6 -18 -8 5 -23 13 -9 41 -31 61 -49 20 -18
54 -42 75 -52 21 -10 70 -35 108 -55 39 -19 88 -40 110 -46 22 -6 54 -19 70
-29 l31 -19 -9 76 c-11 98 -11 106 -2 234 5 77 4 107 -4 107 -6 0 -11 -4 -11
-8z"/>
<path fill="#208bab" d="M6230 4783 c-25 -14 -58 -38 -75 -54 -30 -28 -66 -50 -180 -110 -33
-17 -75 -45 -94 -61 -18 -16 -44 -34 -57 -40 -13 -6 -24 -14 -24 -18 0 -9 138
-76 215 -105 103 -39 158 -66 223 -112 61 -44 152 -93 172 -93 6 0 6 9 0 24
-5 14 -12 58 -15 98 -3 40 -7 84 -10 98 -2 14 -7 45 -10 70 -8 65 -39 189 -60
235 -10 22 -19 45 -20 52 -9 40 -19 43 -65 16z"/>
<path fill="#208bab" d="M2801 4658 c-5 -13 -19 -50 -32 -83 -25 -66 -38 -154 -45 -327 -4
-73 -2 -118 4 -118 19 0 80 30 108 52 16 13 37 28 46 33 21 12 159 107 173
118 6 5 50 33 98 64 97 61 99 70 25 93 -24 8 -63 23 -88 34 -25 10 -48 19 -52
18 -3 -1 -12 5 -18 13 -7 8 -21 15 -31 15 -10 0 -20 4 -23 9 -4 5 -27 20 -54
32 -26 13 -55 33 -65 46 -23 29 -35 29 -46 1z"/>
<path fill="#208bab" d="M5662 4439 c-13 -5 -38 -20 -56 -34 -18 -14 -37 -25 -41 -25 -13 0
-195 -91 -200 -100 -6 -10 62 -85 217 -242 l125 -126 10 36 c13 47 10 227 -7
362 -15 133 -18 140 -48 129z"/>
<path fill="#208bab" d="M5770 4400 c0 -5 7 -56 15 -112 16 -107 16 -348 1 -381 -7 -15 -4
-17 25 -13 19 3 45 9 59 14 14 5 27 10 30 10 3 0 18 5 33 11 16 6 34 11 40 11
7 0 23 7 35 16 12 8 22 12 22 8 0 -3 7 -1 15 6 8 7 15 9 15 5 0 -4 6 -2 13 4
8 6 22 12 33 14 10 2 33 10 49 17 17 6 57 23 90 35 79 31 125 55 125 65 0 4
-19 15 -42 25 -24 9 -74 38 -113 65 -67 46 -188 110 -208 110 -6 0 -59 23
-119 50 -119 55 -118 54 -118 40z"/>
<path fill="#208bab" d="M3245 4364 c-16 -13 -50 -36 -75 -51 -25 -14 -47 -29 -50 -32 -3 -3
-25 -20 -50 -36 -25 -17 -46 -33 -48 -37 -2 -5 -8 -8 -14 -8 -9 0 -28 -14 -85
-60 -7 -6 -14 -10 -17 -10 -3 0 -25 -13 -49 -30 -25 -16 -51 -30 -58 -30 -8 0
-25 -9 -38 -19 l-24 -19 24 -7 c50 -14 157 -59 257 -106 101 -48 205 -79 264
-79 27 0 30 2 24 25 -3 13 -8 89 -11 167 -3 79 -7 166 -10 193 -2 28 -1 76 4
108 9 65 2 70 -44 31z"/>
<path fill="#208bab" d="M3366 4123 c5 -239 12 -310 29 -305 6 1 19 26 30 56 21 56 73 135
167 254 32 40 58 75 58 76 0 2 -32 15 -71 31 -40 15 -101 50 -136 76 -35 27
-68 49 -73 49 -6 0 -7 -98 -4 -237z"/>
<path fill="#208bab" d="M5286 4203 c-10 -32 -78 -147 -123 -210 -44 -63 -44 -63 -21 -72 61
-23 105 -33 176 -41 42 -4 109 -15 147 -23 104 -22 195 -30 195 -17 0 5 -64
74 -141 153 -78 78 -157 161 -176 185 -39 46 -48 50 -57 25z"/>
<path fill="#208bab" d="M3705 4149 c-10 -19 -41 -63 -70 -99 -71 -89 -133 -182 -140 -213 -6
-23 -3 -26 27 -32 19 -4 61 0 94 8 32 8 84 19 114 26 30 6 87 17 127 26 40 8
84 15 100 15 26 0 25 2 -33 58 -34 31 -89 95 -124 142 -35 47 -66 89 -71 94
-4 4 -15 -7 -24 -25z"/>
<path fill="#208bab" d="M4557 3799 c16 -181 49 -417 52 -367 1 19 13 36 38 55 20 15 50 42
67 59 44 43 148 180 167 219 9 18 26 47 38 63 11 17 21 33 21 36 0 3 -35 6
-77 6 -43 0 -95 6 -118 14 -78 26 -112 36 -156 44 l-44 9 12 -138z"/>
<path fill="#208bab" d="M4380 3890 c-62 -22 -104 -29 -157 -30 -40 0 -73 -3 -73 -6 0 -7 42
-63 95 -128 46 -56 111 -119 207 -200 37 -31 69 -64 71 -74 5 -21 0 27 -18
173 -8 61 -17 152 -20 203 -4 50 -10 92 -14 91 -3 0 -44 -13 -91 -29z"/>
<path fill="#208bab" d="M6221 3874 c-23 -6 -41 -10 -41 -7 0 3 -7 -1 -17 -8 -9 -8 -18 -13
-20 -11 -2 2 -38 -13 -81 -33 -101 -49 -258 -158 -277 -195 -8 -15 -20 -34
-27 -42 -31 -32 -67 -87 -88 -132 -49 -108 -87 -440 -55 -476 8 -9 16 -36 16
-61 1 -25 14 -70 30 -104 15 -33 31 -72 34 -87 7 -28 8 -28 69 -22 33 3 66 6
71 5 63 -3 162 -1 210 4 88 9 97 11 132 19 18 4 51 9 75 12 24 2 57 6 73 9 17
3 57 8 90 10 55 5 73 7 138 18 48 9 73 28 75 58 1 16 9 49 17 72 8 23 15 52
15 65 0 12 4 22 9 22 5 0 7 10 3 22 -4 16 -2 19 8 13 10 -6 12 -4 7 9 -4 10
-2 27 4 38 6 11 12 54 14 96 1 43 5 84 8 92 3 8 8 33 12 55 9 57 10 64 17 71
4 3 4 12 1 20 -3 8 0 14 6 14 6 0 11 9 11 21 0 12 6 35 14 52 23 52 36 99 30
108 -3 5 1 12 10 15 8 3 12 12 9 19 -2 8 -1 20 3 27 5 7 7 23 5 36 -1 12 2 22
7 22 6 0 8 9 5 20 -3 11 -12 20 -19 20 -8 0 -14 5 -14 10 0 6 -6 10 -14 10 -8
0 -21 6 -28 13 -7 8 -31 20 -53 27 -22 7 -57 22 -79 33 -38 20 -58 22 -293 30
-45 2 -100 -2 -122 -9z"/>
<path fill="#208bab" d="M5116 3768 c59 -139 94 -222 109 -253 40 -85 65 -150 71 -183 8 -44
41 -112 54 -112 5 0 10 -10 12 -22 2 -19 7 -16 26 22 12 25 31 59 42 75 11 17
27 43 36 60 9 16 22 34 28 41 56 59 126 178 126 214 0 8 7 26 16 38 8 12 13
22 9 22 -3 0 2 16 10 36 8 20 15 40 15 45 0 5 -26 9 -57 9 -32 0 -96 7 -143
15 -47 9 -121 20 -165 26 -44 6 -109 19 -144 30 -35 10 -67 19 -71 19 -5 0 7
-37 26 -82z"/>
<path fill="#208bab" d="M3920 3795 c-77 -14 -182 -37 -281 -61 -31 -8 -71 -14 -88 -14 -19 0
-31 -5 -31 -13 0 -26 265 -472 295 -497 21 -17 25 -6 94 260 10 41 38 128 60
193 41 116 48 148 34 146 -5 0 -42 -7 -83 -14z"/>
<path fill="#208bab" d="M4993 3788 c-12 -13 -31 -41 -43 -63 -53 -96 -182 -250 -250 -298
-21 -15 -22 -17 -6 -32 9 -10 34 -19 56 -22 21 -3 47 -14 56 -24 9 -11 22 -19
29 -19 6 0 40 -11 76 -25 35 -15 128 -41 207 -59 120 -28 142 -30 136 -17 -3
9 -11 36 -16 61 -6 25 -43 119 -82 210 -40 91 -86 198 -102 237 -16 40 -32 73
-35 73 -3 0 -15 -10 -26 -22z"/>
<path fill="#208bab" d="M4080 3759 c-6 -24 -36 -116 -66 -204 -30 -88 -54 -171 -54 -183 0
-23 -19 -91 -45 -164 l-13 -38 28 15 c16 8 55 22 87 30 182 46 316 99 411 163
l44 30 -99 84 c-112 97 -162 150 -228 240 -26 34 -48 65 -50 67 -2 1 -9 -17
-15 -40z"/>
<path fill="#208bab" d="M2715 3784 c-77 -12 -131 -26 -145 -38 -8 -7 -38 -21 -67 -30 -28
-10 -71 -31 -95 -49 -24 -17 -65 -42 -92 -55 -40 -19 -47 -27 -42 -45 8 -32
44 -201 60 -282 8 -38 20 -86 27 -105 6 -19 24 -69 39 -110 29 -79 30 -83 81
-255 18 -60 41 -122 51 -136 16 -24 22 -26 52 -19 19 4 37 6 40 3 2 -2 19 -7
38 -10 18 -3 35 -7 37 -9 2 -2 12 1 22 6 11 6 20 6 24 1 3 -6 13 -10 23 -10 9
0 44 -2 77 -4 33 -2 70 -1 83 4 33 13 89 17 103 8 7 -4 20 -4 30 1 9 5 19 6
23 3 6 -6 18 -8 126 -16 30 -2 55 -6 55 -7 0 -2 23 -5 115 -15 90 -10 139 -12
147 -6 5 3 14 26 20 51 6 25 20 72 31 105 32 95 45 168 38 216 -4 24 -11 87
-15 139 -5 52 -19 124 -30 160 -25 80 -102 193 -207 302 -67 71 -93 90 -192
140 l-113 59 -157 4 c-86 2 -170 1 -187 -1z"/>
<path fill="#208bab" d="M4500 3214 c-63 -14 -161 -34 -205 -41 -16 -3 -45 -16 -62 -30 -18
-13 -35 -23 -38 -23 -9 2 -122 -96 -180 -155 -63 -63 -95 -107 -95 -133 0 -10
-8 -30 -19 -43 -30 -39 -48 -80 -60 -138 -6 -30 -21 -69 -32 -88 l-21 -33 33
-27 c17 -15 50 -39 73 -54 23 -15 84 -63 136 -107 52 -43 109 -87 125 -96 71
-40 259 -156 345 -213 114 -76 142 -84 178 -50 15 13 43 35 63 48 134 89 167
115 232 181 67 68 104 95 330 242 48 31 91 64 94 72 8 21 -15 92 -37 116 -10
11 -16 26 -14 33 3 7 1 16 -5 20 -6 3 -11 14 -11 23 0 10 -8 33 -18 52 -11 19
-31 58 -46 87 -16 28 -42 62 -59 75 -35 26 -73 63 -78 75 -4 7 -32 32 -98 86
-67 54 -221 109 -349 122 -108 12 -127 12 -182 -1z"/>



<path fill="#7b7b7b" d="M3132 8933 c-6 -10 -14 -15 -18 -11 -4 5 -14 2 -22 -4 -8 -7 -24 -17
-36 -23 -15 -8 -21 -20 -22 -46 -1 -32 -18 -77 -33 -89 -4 -3 -29 -41 -56 -85
-27 -44 -64 -101 -82 -127 -18 -26 -33 -52 -33 -57 0 -5 -3 -11 -8 -13 -4 -1
-28 -36 -52 -77 -25 -40 -53 -85 -62 -100 -10 -14 -23 -36 -29 -48 -7 -13 -16
-23 -21 -23 -4 0 -8 -6 -8 -14 0 -8 -6 -21 -13 -28 -7 -7 -32 -44 -56 -83 -23
-38 -47 -79 -54 -90 -7 -10 -17 -25 -24 -32 -6 -7 -15 -22 -18 -33 -3 -11 -11
-20 -16 -20 -5 0 -9 -4 -9 -10 0 -11 -82 -134 -104 -156 -8 -8 -19 -14 -24
-14 -19 0 -112 -96 -122 -126 -11 -31 -62 -64 -100 -64 -10 0 -21 -4 -24 -9
-4 -5 -28 -12 -55 -16 -45 -6 -113 -37 -366 -170 -85 -44 -191 -85 -221 -85
-21 0 -119 -48 -134 -65 -7 -8 -18 -15 -25 -15 -7 0 -15 -7 -18 -15 -7 -16
-82 -55 -109 -55 -10 0 -18 -4 -18 -10 0 -5 -8 -10 -19 -10 -10 0 -24 -7 -31
-15 -7 -9 -29 -15 -51 -15 -22 0 -39 -4 -39 -10 0 -5 -9 -10 -20 -10 -13 0
-20 -7 -20 -19 0 -10 -6 -24 -14 -30 -8 -7 -13 -20 -11 -29 2 -9 4 -23 4 -29
1 -7 10 -13 20 -13 11 0 21 -9 24 -22 7 -28 20 -115 21 -143 1 -11 5 -25 8
-31 4 -6 6 -21 3 -32 -2 -12 0 -24 5 -27 8 -5 21 -76 26 -140 1 -16 3 -32 4
-35 2 -3 4 -14 5 -25 1 -11 5 -27 8 -35 8 -19 69 -365 71 -405 1 -17 5 -35 8
-40 7 -11 21 -97 23 -135 0 -14 3 -29 7 -35 3 -5 4 -26 1 -45 -2 -19 -6 -87
-7 -151 -2 -128 -7 -141 -96 -249 -21 -25 -44 -65 -53 -90 -8 -25 -27 -68 -41
-94 -14 -27 -26 -57 -26 -67 0 -10 -4 -21 -10 -24 -5 -3 -10 -15 -10 -25 0
-10 -5 -20 -10 -22 -6 -2 -12 -14 -15 -28 -7 -39 -82 -182 -113 -215 -27 -29
-54 -101 -67 -180 -4 -21 -15 -51 -25 -65 -9 -14 -21 -35 -24 -47 -4 -13 -12
-23 -17 -23 -5 0 -9 -8 -9 -18 0 -29 -28 -78 -55 -96 -25 -16 -27 -45 -4 -72
6 -8 8 -14 4 -14 -4 0 -2 -6 5 -14 6 -8 27 -16 45 -18 28 -2 113 -70 483 -380
389 -327 454 -385 491 -442 23 -36 55 -74 70 -85 41 -29 60 -85 67 -198 3 -54
14 -123 24 -153 10 -30 30 -95 45 -145 15 -49 33 -107 41 -128 21 -55 33 -118
43 -211 6 -63 16 -98 43 -151 19 -39 41 -95 47 -125 7 -30 19 -76 26 -102 8
-26 11 -62 8 -81 -5 -31 -2 -35 33 -54 53 -27 105 -28 111 -2 5 19 17 19 577
16 514 -2 610 -6 638 -23 14 -9 61 -17 103 -16 22 0 54 -7 70 -16 28 -14 111
-94 152 -145 10 -13 35 -32 56 -42 20 -9 37 -21 37 -25 0 -4 14 -13 30 -20 17
-7 30 -16 30 -20 0 -4 18 -15 40 -25 22 -10 40 -21 40 -25 0 -4 18 -15 40 -25
22 -10 40 -21 40 -25 0 -4 14 -14 32 -21 17 -7 66 -46 107 -87 72 -70 169
-132 208 -132 10 0 35 -15 55 -33 20 -17 46 -39 58 -47 63 -43 111 -83 106
-88 -3 -3 -1 -11 5 -19 8 -9 15 -10 24 -3 9 8 15 8 20 0 4 -7 11 -8 18 -1 7 5
26 11 42 13 25 2 30 8 33 34 3 27 42 82 42 60 0 -4 12 6 26 23 14 17 31 28 37
24 7 -3 9 -3 5 2 -9 9 42 51 57 47 5 -2 7 -1 3 3 -7 7 105 107 117 105 3 0 17
13 32 30 14 17 28 29 30 26 3 -3 16 8 30 25 14 16 30 26 36 22 7 -3 9 -3 5 2
-7 7 167 159 175 153 2 -2 16 12 31 30 16 18 33 29 39 25 7 -3 9 -3 5 2 -9 9
42 51 57 47 5 -2 7 -1 3 3 -11 11 113 110 188 150 92 49 160 73 209 74 22 1
65 3 96 5 31 3 76 0 100 -6 51 -12 86 -13 150 -4 25 4 66 9 90 11 24 1 55 6
69 9 14 3 43 8 65 11 22 3 63 8 90 12 55 7 93 7 203 -1 40 -3 85 0 100 5 15 6
36 12 46 15 10 2 33 8 50 13 45 14 256 23 256 10 0 -6 7 -6 20 1 13 7 20 7 20
1 0 -6 7 -8 15 -5 8 4 15 11 15 18 0 6 9 18 20 26 14 10 20 26 20 52 0 21 -4
38 -10 38 -5 0 -10 8 -10 18 0 9 43 266 97 570 71 403 101 557 114 570 9 10
20 29 24 43 4 13 12 30 18 38 7 7 13 31 14 52 2 22 13 53 25 70 23 31 131 113
165 126 10 3 31 20 46 37 15 17 51 56 80 86 29 31 77 84 107 119 30 34 66 72
79 84 65 60 89 78 122 93 33 15 73 63 120 145 16 28 99 112 99 101 0 -4 14 9
30 28 16 19 30 38 30 41 0 7 35 20 59 23 11 1 15 16 16 56 2 66 -9 94 -35 87
-16 -4 -46 41 -175 267 -85 149 -162 282 -170 296 -8 14 -51 88 -95 165 -44
77 -85 147 -90 155 -75 118 -103 181 -115 260 -4 19 -16 48 -27 64 -12 16 -22
41 -24 55 -2 23 30 162 42 183 9 14 13 73 20 268 4 107 7 200 9 205 1 6 5 28
9 50 4 22 14 58 22 79 15 40 18 167 4 229 -3 18 -2 50 3 72 5 22 10 65 11 96
1 31 7 64 14 72 10 12 10 16 0 19 -10 4 -10 8 -1 19 10 13 -1 21 -75 54 -48
22 -89 43 -90 47 -2 5 -7 6 -12 3 -11 -7 -100 27 -100 38 0 4 -4 6 -9 3 -11
-7 -101 26 -101 37 0 4 -4 6 -9 2 -9 -5 -90 22 -101 34 -3 3 -9 6 -15 6 -24 1
-95 29 -95 37 0 5 -4 7 -9 4 -8 -5 -90 22 -101 34 -3 3 -9 5 -15 5 -24 1 -95
29 -95 37 0 5 -4 7 -9 4 -8 -5 -90 22 -101 34 -3 3 -9 5 -15 5 -21 1 -95 29
-95 35 0 4 -6 7 -12 7 -22 -2 -98 26 -98 35 0 5 -5 6 -10 3 -6 -3 -29 12 -53
34 -23 23 -48 41 -54 41 -7 0 -13 4 -13 10 0 5 -19 14 -42 20 -28 7 -54 24
-74 46 -30 34 -84 149 -84 179 0 8 -4 15 -10 15 -5 0 -9 4 -7 9 1 5 -15 27
-35 49 -21 23 -38 46 -38 52 0 5 -4 10 -10 10 -5 0 -10 6 -10 14 0 7 -7 20
-16 27 -19 16 -139 176 -176 234 -24 39 -54 113 -50 127 1 4 -7 10 -18 13 -11
4 -18 11 -14 16 3 6 -2 13 -13 15 -10 3 -23 15 -28 26 -6 11 -14 20 -18 19
-11 -3 -49 39 -77 85 -13 22 -29 42 -34 46 -6 4 -8 8 -3 8 13 0 -89 125 -106
128 -8 2 -35 -5 -59 -16 -54 -24 -83 -34 -84 -30 0 2 -8 -3 -17 -11 -10 -7
-17 -10 -17 -6 0 4 -7 2 -15 -5 -8 -7 -15 -9 -15 -5 0 4 -7 2 -15 -5 -8 -7
-15 -9 -15 -5 0 4 -6 3 -12 -2 -7 -6 -31 -16 -53 -23 -22 -7 -46 -17 -52 -23
-7 -5 -13 -6 -13 -2 0 4 -7 2 -15 -5 -8 -7 -15 -9 -15 -5 0 4 -7 2 -15 -5 -8
-7 -15 -9 -15 -5 0 4 -7 2 -15 -5 -8 -7 -15 -9 -15 -5 0 4 -6 3 -12 -2 -7 -6
-31 -16 -53 -23 -22 -7 -46 -17 -52 -23 -7 -5 -13 -6 -13 -2 0 4 -7 2 -15 -5
-8 -7 -15 -9 -15 -5 0 4 -7 2 -15 -5 -8 -7 -15 -9 -15 -5 0 4 -7 2 -15 -5 -8
-7 -15 -9 -15 -5 0 4 -6 3 -12 -2 -7 -6 -31 -16 -53 -23 -22 -7 -46 -17 -52
-23 -7 -5 -13 -6 -13 -2 0 4 -7 2 -15 -5 -8 -7 -15 -9 -15 -5 0 4 -6 3 -12 -2
-7 -6 -31 -16 -53 -23 -22 -7 -78 -27 -125 -45 -72 -28 -97 -33 -160 -31 -41
1 -93 -4 -114 -11 -52 -17 -145 -5 -173 22 -8 8 -21 15 -28 15 -7 0 -20 6 -27
13 -26 26 -117 64 -136 58 -1 -1 -17 5 -36 13 -19 8 -37 11 -41 8 -3 -4 -9 -1
-13 5 -4 6 -26 13 -50 17 -23 3 -50 9 -60 14 -9 5 -35 13 -57 17 -22 5 -46 9
-53 11 -25 5 -147 58 -162 70 -26 21 -73 36 -130 40 -86 6 -119 13 -168 34
-25 11 -54 22 -66 24 -38 7 -81 27 -103 48 -20 19 -21 19 -31 1z m121 -277 c3
3 37 -8 77 -25 40 -17 82 -33 94 -35 39 -7 149 -46 162 -57 8 -6 14 -8 14 -4
0 4 11 0 25 -9 14 -9 25 -13 25 -10 0 4 8 0 18 -8 9 -9 37 -19 62 -23 25 -4
79 -20 120 -36 41 -16 80 -29 87 -29 7 0 13 -5 13 -11 0 -5 4 -8 9 -5 5 4 47
-10 93 -29 45 -20 92 -37 103 -39 74 -15 123 -28 143 -38 23 -12 24 -15 16
-88 -4 -41 -8 -88 -10 -105 -1 -16 -3 -33 -3 -36 -1 -6 -46 -5 -46 1 0 1 -11
3 -25 4 -14 1 -32 6 -40 11 -8 5 -22 11 -30 12 -8 1 -25 4 -37 6 -11 1 -28 9
-37 16 -9 7 -16 10 -16 6 0 -4 -7 -2 -15 5 -9 7 -18 10 -22 7 -3 -4 -12 -2
-20 4 -7 6 -13 9 -13 5 0 -3 -9 2 -20 11 -10 9 -27 18 -37 20 -10 1 -34 5 -53
7 -19 3 -45 8 -57 11 -64 15 -137 27 -163 28 -8 0 -19 3 -25 7 -5 4 -19 6 -30
4 -10 -1 -25 2 -33 8 -8 7 -21 13 -30 14 -10 1 -33 5 -52 9 -19 4 -42 9 -50
10 -8 1 -22 5 -30 9 -25 10 -78 14 -91 5 -8 -5 -20 -2 -30 7 -14 13 -18 13
-29 -1 -7 -8 -16 -13 -20 -10 -10 6 -50 -43 -50 -61 0 -8 -4 -14 -10 -14 -5 0
-10 -6 -10 -14 0 -8 -11 -27 -24 -43 -13 -15 -26 -38 -30 -50 -4 -13 -12 -23
-17 -23 -5 0 -9 -7 -9 -15 0 -8 -9 -20 -20 -27 -11 -7 -20 -16 -20 -21 0 -4
-11 -19 -25 -33 -14 -14 -25 -36 -25 -49 0 -13 -4 -27 -10 -30 -5 -3 -10 -16
-10 -29 0 -13 -9 -31 -20 -41 -11 -10 -18 -20 -16 -23 3 -2 -4 -13 -14 -25
-11 -11 -17 -24 -14 -29 3 -5 0 -7 -7 -6 -7 2 -13 -2 -14 -8 0 -12 -24 -46
-70 -101 -16 -19 -34 -44 -40 -56 -7 -12 -16 -21 -22 -20 -6 1 -14 -9 -17 -22
-8 -33 -18 -31 -47 7 -13 18 -46 56 -72 85 l-49 52 37 58 c21 32 46 70 56 85
11 15 19 30 19 34 0 3 14 23 30 44 17 21 30 41 30 45 0 3 14 26 30 50 17 24
30 47 30 51 0 3 10 15 22 25 11 11 18 19 13 19 -4 0 -1 7 6 16 7 9 18 24 24
35 16 28 91 148 135 214 22 33 43 68 46 78 4 9 9 17 13 17 3 0 18 21 31 48 14
26 27 49 30 52 13 13 50 70 50 78 0 18 23 31 40 22 10 -5 20 -7 23 -4z m2476
-28 c17 -18 31 -37 31 -42 0 -5 11 -24 25 -42 14 -18 25 -36 25 -39 0 -7 67
-103 80 -115 3 -3 14 -23 25 -45 11 -22 22 -42 25 -45 4 -3 13 -21 22 -40 9
-19 30 -48 47 -64 17 -17 31 -36 31 -43 0 -7 5 -13 10 -13 6 0 10 -7 10 -15 0
-8 4 -15 8 -15 4 0 18 -21 31 -47 13 -27 34 -60 48 -74 14 -14 33 -44 42 -67
16 -40 58 -100 123 -175 15 -18 28 -39 28 -47 0 -17 -116 -150 -131 -150 -5 0
-9 7 -9 15 0 8 -4 15 -9 15 -12 0 -97 120 -106 149 -3 12 -10 21 -15 21 -4 0
-11 15 -14 33 -3 18 -20 47 -36 65 -17 18 -30 37 -30 43 0 5 -4 9 -10 9 -5 0
-10 7 -10 16 0 8 -4 12 -10 9 -5 -3 -10 -3 -10 2 0 9 -43 64 -77 100 -13 13
-23 28 -23 33 0 6 -4 10 -10 10 -5 0 -10 6 -10 14 0 8 -7 16 -14 19 -8 3 -23
21 -32 38 -9 18 -22 38 -28 44 -6 7 -31 39 -56 73 -24 33 -48 58 -52 56 -4 -3
-17 10 -30 29 -22 31 -34 35 -73 23 -5 -2 -13 -3 -16 -2 -3 0 -14 -6 -23 -14
-10 -8 -23 -15 -30 -17 -6 -1 -29 -7 -51 -13 -67 -18 -79 -21 -107 -25 -14 -2
-36 -9 -48 -15 -12 -6 -24 -9 -27 -6 -7 6 -61 -20 -85 -42 -10 -8 -18 -11 -18
-7 0 4 -9 0 -20 -10 -11 -10 -20 -14 -20 -9 0 5 -4 4 -8 -3 -4 -6 -19 -14 -32
-16 -14 -3 -38 -10 -54 -16 -16 -7 -31 -9 -34 -6 -3 2 -10 1 -16 -4 -6 -5 -38
-12 -71 -16 -33 -3 -61 -11 -63 -16 -2 -5 -19 -9 -38 -9 -19 0 -34 -4 -34 -8
0 -4 -10 -8 -22 -8 -13 0 -43 -6 -67 -13 -23 -7 -44 -11 -46 -9 -1 2 -5 47 -8
100 l-5 97 41 15 c23 8 80 29 127 46 47 17 92 33 100 37 14 6 22 8 35 12 3 0
7 0 8 -1 2 -2 10 2 18 8 8 6 52 24 99 39 47 15 91 32 98 38 6 5 12 6 12 2 0
-4 6 -3 13 2 6 6 50 23 97 38 47 15 91 32 98 38 6 5 12 6 12 2 0 -4 7 -2 15 5
8 7 15 9 15 5 0 -4 6 -3 13 2 6 6 30 16 52 23 22 7 45 15 50 19 6 3 19 7 29 8
11 2 25 8 33 14 7 6 13 8 13 4 0 -4 7 -2 15 5 8 7 15 10 15 7 0 -3 12 0 26 8
36 18 58 12 93 -27z m-198 -483 c4 3 29 -22 55 -57 25 -35 50 -64 55 -66 5 -2
9 -10 9 -18 0 -8 4 -14 10 -14 5 0 12 -11 16 -25 3 -14 10 -25 15 -25 5 0 9
-7 9 -16 0 -8 5 -12 10 -9 6 3 10 3 10 -2 0 -10 44 -66 83 -106 15 -16 27 -33
27 -38 0 -5 12 -20 28 -33 15 -14 36 -42 47 -63 11 -21 22 -40 25 -43 12 -11
50 -82 50 -93 0 -7 11 -24 25 -39 14 -15 25 -32 25 -39 0 -6 8 -19 19 -28 33
-29 35 -57 4 -89 -15 -16 -46 -54 -68 -85 -22 -32 -45 -57 -51 -57 -7 0 -14
-7 -18 -15 -3 -8 -12 -15 -21 -15 -8 0 -15 -4 -15 -9 0 -19 -50 -58 -120 -93
-123 -61 -360 -125 -360 -98 0 3 -8 6 -17 6 -99 4 -153 10 -153 16 0 4 -6 5
-14 2 -10 -4 -22 8 -36 35 -17 34 -25 41 -50 41 -17 0 -30 -4 -30 -10 0 -10
-51 9 -61 23 -3 5 -10 8 -15 8 -9 -1 -91 50 -128 79 -45 35 -85 78 -112 120
-16 25 -31 47 -34 50 -6 5 -32 59 -36 73 -1 4 -2 8 -4 10 -1 1 -3 10 -5 19 -2
9 -14 32 -28 50 -23 30 -43 87 -46 128 -15 200 -15 262 -1 270 8 4 21 5 28 3
6 -3 12 -1 12 5 0 5 6 9 13 10 6 1 24 4 39 7 16 3 39 7 52 9 14 2 31 8 38 12
7 5 31 10 53 11 21 2 42 7 45 11 7 10 30 15 72 15 20 0 36 5 35 10 -1 5 7 11
18 13 64 11 85 17 85 25 0 5 7 5 17 2 12 -5 14 -3 8 7 -5 8 -3 11 6 8 8 -3 27
6 42 18 25 21 46 29 70 25 4 0 7 4 7 10 0 5 4 8 8 5 9 -6 92 13 107 24 6 4 34
11 62 15 29 4 56 12 60 18 5 8 8 8 11 -1 2 -7 8 -10 13 -7z m-2091 -61 c14 -3
44 -10 68 -15 24 -5 48 -12 55 -16 6 -4 20 -8 32 -9 71 -9 96 -13 105 -19 7
-4 31 -8 54 -9 24 -2 48 -6 56 -11 7 -4 24 -9 39 -11 49 -5 75 -13 83 -26 6
-10 8 -10 8 -1 0 9 11 6 35 -7 19 -11 37 -19 40 -19 11 2 95 -26 95 -31 0 -3
12 -7 26 -8 14 -1 31 -5 37 -9 6 -4 20 -8 32 -10 21 -3 36 -7 73 -18 21 -7 22
-13 22 -99 0 -50 -4 -107 -9 -126 -5 -19 -12 -61 -16 -93 -3 -31 -12 -63 -18
-70 -7 -6 -21 -32 -31 -57 -17 -39 -100 -175 -116 -190 -3 -3 -17 -21 -30 -40
-33 -49 -47 -61 -111 -93 -31 -16 -69 -40 -84 -53 -15 -13 -36 -25 -47 -25
-20 -2 -55 -6 -63 -8 -3 0 -7 -1 -10 -2 -2 0 -19 -5 -37 -10 -29 -9 -141 -20
-223 -22 -58 -2 -131 14 -205 45 -41 18 -77 35 -80 39 -6 8 -52 32 -65 35 -57
10 -168 102 -226 186 -12 18 -34 46 -48 62 -18 19 -22 30 -13 33 6 3 12 10 12
17 0 6 9 19 20 29 11 9 20 23 20 32 0 8 12 22 26 32 14 9 30 26 35 37 5 12 29
48 53 81 25 33 45 66 45 73 1 6 5 12 10 12 5 0 23 36 40 81 17 44 36 86 43 93
37 37 68 77 68 85 0 5 16 26 35 47 19 22 35 42 35 46 0 4 5 19 10 33 9 25 13
26 53 21 23 -3 53 -9 67 -12z m3715 -771 c281 -102 514 -189 520 -194 11 -11
10 -88 -4 -166 -6 -32 -13 -92 -16 -133 -3 -41 -11 -97 -16 -125 -15 -69 -17
-87 -23 -190 -4 -49 -9 -101 -12 -115 -3 -14 -9 -54 -14 -90 -5 -36 -13 -99
-19 -140 -6 -41 -9 -99 -8 -128 2 -29 -1 -60 -7 -68 -6 -8 -31 -16 -56 -19
-25 -2 -45 -4 -45 -5 0 -1 -18 -3 -40 -6 -40 -4 -80 -11 -80 -14 0 -1 -7 -3
-16 -5 -9 -1 -26 -6 -38 -10 -21 -6 -22 -4 -16 27 3 18 7 65 9 103 5 78 24
203 33 218 3 6 8 87 9 181 2 94 5 258 8 364 l4 193 -24 15 c-13 9 -40 17 -61
19 -20 1 -39 7 -41 13 -2 7 -9 12 -16 12 -7 0 -34 11 -61 25 -27 13 -52 22
-57 19 -4 -3 -8 3 -8 12 0 10 -3 14 -7 11 -3 -4 -12 -2 -20 4 -7 6 -13 8 -13
4 0 -5 -9 0 -21 11 -11 10 -33 20 -47 21 -53 4 -108 15 -139 29 -18 8 -34 13
-36 12 -2 -2 -12 4 -21 12 -10 8 -25 15 -34 17 -9 1 -18 7 -20 13 -2 5 -7 8
-12 5 -4 -3 -24 6 -44 20 -20 14 -39 25 -42 25 -3 0 -34 14 -70 31 -69 33 -68
30 -24 80 30 35 40 48 40 55 0 3 9 19 20 35 19 25 24 27 48 18 15 -6 257 -94
537 -196z m-4795 -19 c34 -46 65 -84 70 -84 5 0 14 -9 20 -20 9 -17 5 -22 -27
-38 -21 -10 -58 -24 -83 -31 -25 -7 -54 -17 -65 -21 -81 -33 -105 -45 -105
-52 0 -4 -7 -8 -16 -8 -8 0 -39 -15 -67 -34 -29 -19 -128 -73 -221 -120 -92
-46 -178 -94 -190 -105 -12 -12 -28 -21 -34 -21 -6 0 -19 -11 -28 -25 -17 -26
-13 -87 7 -111 5 -6 9 -48 10 -92 1 -45 4 -82 8 -82 3 0 4 -25 3 -55 -3 -39 2
-67 14 -93 9 -20 17 -43 17 -49 0 -7 3 -13 7 -13 4 0 7 -6 7 -12 1 -7 3 -29 6
-48 6 -38 13 -135 22 -295 4 -55 8 -110 11 -123 4 -21 2 -22 -43 -18 -27 3
-61 8 -78 12 -38 8 -66 11 -135 13 -50 1 -56 3 -58 24 -1 12 -44 265 -97 562
-53 297 -93 550 -90 563 3 13 13 22 24 22 10 0 24 7 31 15 7 8 19 15 26 15 8
0 22 4 32 9 9 5 28 13 42 19 14 6 64 29 111 51 48 23 91 41 98 41 6 0 20 5 31
10 11 6 29 15 40 20 11 6 27 10 35 10 8 0 32 10 53 23 20 13 69 36 107 51 39
16 93 39 120 52 28 13 64 26 80 29 31 7 156 65 165 77 9 12 54 26 67 21 7 -3
39 -43 73 -89z m2063 -406 c1 -87 -1 -158 -4 -158 -4 0 -31 16 -60 36 -56 38
-158 85 -266 124 -35 13 -63 27 -63 31 0 16 115 124 150 141 19 10 78 46 130
81 l95 64 8 -81 c5 -45 9 -152 10 -238z m127 291 c0 -5 5 -9 12 -9 13 0 111
-61 116 -72 2 -5 8 -8 13 -8 6 0 22 -11 37 -25 15 -14 50 -42 78 -63 28 -20
56 -50 63 -67 13 -35 10 -38 -114 -112 -156 -93 -203 -118 -209 -112 -3 2 -7
99 -10 214 -3 116 -8 225 -12 243 -5 27 -4 31 10 26 9 -3 16 -10 16 -15z
m1854 -11 c10 -10 23 -15 27 -12 4 2 17 -6 28 -18 12 -12 21 -18 21 -13 0 4 8
1 18 -8 9 -8 22 -16 27 -18 23 -4 41 -13 58 -27 9 -8 17 -12 17 -8 0 3 18 -3
40 -14 22 -11 40 -18 40 -15 0 4 6 3 13 -2 6 -4 14 -8 17 -9 3 0 14 -4 25 -8
41 -16 51 -18 88 -22 35 -4 84 -27 98 -47 3 -5 8 -7 10 -6 2 1 20 -3 39 -10
19 -6 36 -10 36 -9 1 2 11 -6 23 -16 12 -11 21 -16 21 -11 0 4 7 1 16 -6 9 -7
26 -15 37 -16 12 -2 26 -8 31 -13 9 -9 10 -215 1 -230 -2 -3 -4 -82 -5 -176
-1 -121 -7 -199 -21 -275 -11 -59 -19 -110 -18 -115 2 -9 -6 -85 -17 -166 -5
-32 -9 -37 -42 -44 -55 -11 -210 -17 -262 -10 -73 10 -278 78 -290 95 -3 5
-22 14 -42 20 -21 7 -55 30 -75 53 -21 22 -64 66 -96 99 -34 35 -60 71 -64 89
-3 17 -10 30 -16 30 -6 0 -8 2 -5 6 3 3 -7 31 -22 63 -25 50 -42 100 -55 161
-2 8 -8 30 -14 48 -15 50 -5 175 19 240 12 31 23 77 25 102 4 55 10 70 58 142
20 31 37 59 37 62 0 2 15 20 34 39 18 19 42 49 52 66 21 36 55 39 88 9z
m-3695 -290 c13 -27 27 -48 32 -48 11 0 48 -80 56 -123 3 -17 9 -34 13 -37 11
-8 41 -201 42 -273 1 -39 -4 -73 -11 -80 -6 -6 -11 -19 -11 -29 0 -10 -4 -26
-9 -36 -5 -9 -17 -44 -27 -77 -9 -33 -26 -72 -38 -87 -12 -15 -32 -43 -46 -64
-14 -20 -62 -75 -107 -123 -73 -77 -99 -96 -194 -142 -9 -4 -44 -13 -77 -19
-34 -6 -81 -19 -105 -30 -37 -16 -61 -19 -143 -16 -155 6 -168 10 -170 49 -1
12 -4 60 -8 107 -3 47 -8 117 -11 155 -13 185 -18 225 -42 293 -17 49 -25 96
-25 140 0 37 -3 71 -6 76 -3 5 -5 30 -5 55 1 25 -3 53 -8 62 -6 12 0 23 21 43
17 14 32 26 34 26 7 0 260 123 266 130 7 7 57 35 109 61 25 11 51 27 58 35 8
8 21 14 29 14 8 0 34 9 56 20 23 11 50 20 60 20 10 0 18 5 18 10 0 6 9 10 20
10 11 0 30 5 43 12 12 6 29 14 37 18 21 11 120 -91 149 -152z m2261 -73 c0 -9
6 -18 14 -21 17 -6 10 -34 -45 -186 l-31 -86 -92 61 c-51 34 -102 67 -112 73
-17 10 -12 15 41 42 33 16 84 46 114 66 29 20 55 36 58 36 2 0 11 7 19 15 20
19 34 19 34 0z m708 -9 c3 -3 -10 -23 -29 -45 -19 -21 -50 -61 -69 -87 -65
-91 -164 -214 -171 -214 -3 0 -9 19 -13 42 -4 23 -21 76 -37 117 -49 121 -68
189 -55 194 6 2 51 5 101 6 49 1 91 3 92 5 4 4 176 -13 181 -18z m-2098 -16
c10 -5 39 -11 64 -12 25 0 46 -4 46 -7 0 -3 -20 -69 -45 -146 -24 -77 -47
-157 -50 -177 -3 -21 -9 -38 -14 -38 -4 0 -26 23 -49 51 -23 28 -93 105 -154
171 -62 66 -116 126 -121 133 -8 16 44 22 266 33 21 1 47 -2 57 -8z m496 -24
c112 -38 197 -84 266 -142 l28 -23 -53 -24 c-28 -14 -76 -43 -106 -66 -56 -42
-71 -49 -71 -31 0 11 -103 239 -137 303 -6 10 -4 10 73 -17z m1117 -55 c10
-29 17 -61 17 -71 0 -10 3 -20 8 -22 9 -4 62 -134 62 -153 0 -18 2 -18 -51 1
-24 8 -81 18 -126 21 -46 3 -83 10 -83 14 0 5 13 41 29 81 15 40 36 101 46
135 14 47 23 63 39 66 29 4 40 -9 59 -72z m647 39 c4 0 11 -17 15 -37 5 -21 9
-42 11 -48 1 -5 5 -30 9 -55 4 -24 8 -47 10 -51 4 -5 6 -18 21 -104 3 -16 9
-48 14 -70 15 -64 16 -64 -42 -49 -69 17 -209 34 -284 35 -104 1 -105 5 -38
85 32 38 74 92 93 119 49 71 122 164 151 193 25 24 25 24 28 3 2 -12 7 -21 12
-21z m-1923 -90 c49 -96 95 -197 107 -237 7 -23 6 -23 -91 -23 -77 0 -113 -6
-168 -24 -38 -14 -71 -23 -73 -21 -14 14 93 346 126 388 33 44 35 42 99 -83z
m-736 -15 c30 -33 94 -103 143 -155 141 -151 156 -167 156 -174 0 -3 -16 -6
-36 -6 -35 0 -72 -6 -316 -53 -103 -20 -117 -21 -121 -8 -4 19 18 156 38 231
8 30 17 64 20 75 3 11 14 48 25 82 11 34 20 66 19 70 -1 5 -1 15 0 23 2 11 5
9 11 -5 4 -11 32 -47 61 -80z m1387 -74 c9 -5 39 -19 65 -32 66 -33 84 -43
105 -62 10 -10 23 -17 29 -17 5 0 20 -11 33 -25 13 -14 29 -25 35 -25 6 0 21
-10 33 -22 19 -21 29 -23 119 -21 54 1 116 -2 138 -7 65 -13 176 -58 200 -80
40 -38 112 -198 130 -290 9 -47 21 -93 26 -102 5 -10 9 -33 9 -52 0 -34 11
-48 39 -52 32 -5 183 -162 215 -224 16 -30 31 -57 35 -60 33 -27 27 -89 -21
-210 -27 -67 -103 -189 -123 -196 -21 -8 -19 -74 5 -209 20 -109 25 -225 14
-282 -5 -27 -22 -38 -157 -108 -189 -97 -274 -151 -283 -178 -10 -33 -112
-205 -157 -266 l-40 -54 -101 6 c-56 4 -121 14 -146 23 -39 14 -150 45 -218
61 -14 3 -44 -4 -75 -20 -99 -48 -176 -67 -272 -68 -49 0 -99 -4 -110 -8 -37
-14 -185 138 -289 296 -22 34 -35 43 -67 48 -60 10 -152 49 -201 84 -116 84
-133 99 -136 119 -2 12 -7 22 -11 22 -5 0 -14 33 -20 73 -11 59 -10 101 3 236
20 204 20 198 -2 203 -11 3 -30 27 -44 54 -14 27 -39 76 -56 109 -17 33 -38
98 -47 145 -10 47 -21 88 -26 91 -15 9 77 125 183 233 106 108 104 105 128
251 6 39 19 84 28 101 9 17 30 55 46 85 17 34 39 60 55 67 79 35 157 62 199
68 43 6 79 8 255 13 39 1 57 5 57 14 0 27 172 163 219 173 63 13 153 58 164
81 12 26 11 26 35 14z m1099 -326 c104 -12 172 -26 216 -47 26 -13 46 -26 45
-29 -6 -12 -115 -96 -208 -159 -52 -36 -98 -69 -102 -75 -11 -13 -25 10 -39
60 -6 22 -15 54 -20 71 -5 17 -9 42 -9 56 0 14 -12 50 -27 79 l-28 54 65 -2
c36 -2 84 -5 107 -8z m-2208 -95 c-21 -35 -60 -138 -72 -193 -1 -4 -36 14 -77
39 -98 61 -211 114 -247 115 -54 1 67 36 152 43 44 4 105 14 135 21 69 18 90
22 116 21 20 -1 20 -2 -7 -46z m2516 -122 c-44 -201 -59 -255 -88 -322 l-35
-79 -18 39 c-10 22 -49 69 -87 106 -63 62 -76 88 -44 88 7 0 20 9 30 20 9 11
24 20 32 20 8 0 15 4 15 8 0 9 77 62 90 62 5 0 13 6 17 14 8 15 72 64 86 65 4
1 5 -9 2 -21z m-2870 -72 c39 -18 99 -51 133 -74 35 -23 73 -44 84 -48 18 -5
11 -16 -60 -88 -44 -44 -92 -98 -106 -119 l-25 -38 -31 67 c-16 37 -30 72 -30
78 0 7 -4 16 -9 22 -16 16 -91 203 -91 225 0 19 4 21 33 15 17 -3 64 -21 102
-40z m3026 15 c20 -6 45 -20 56 -30 11 -10 29 -22 41 -25 12 -4 22 -12 22 -17
0 -5 5 -9 10 -9 10 0 70 -56 70 -66 0 -2 28 -31 62 -64 l62 -59 -30 -6 c-16
-3 -44 -11 -63 -16 -18 -6 -114 -26 -212 -43 -204 -37 -190 -44 -143 63 24 53
57 176 70 259 4 24 10 39 13 34 3 -5 22 -14 42 -21z m-3239 -159 c15 -31 32
-68 37 -82 5 -14 19 -48 31 -75 12 -28 27 -61 32 -75 6 -14 15 -35 21 -47 6
-13 7 -26 3 -30 -4 -4 -55 1 -114 11 -59 10 -132 20 -162 22 -30 2 -100 6
-155 10 l-99 6 29 25 c73 63 161 140 184 163 39 39 151 130 159 130 4 0 19
-26 34 -58z m4793 -239 c22 -38 42 -72 44 -78 2 -5 12 -21 21 -35 9 -14 28
-45 42 -70 14 -25 35 -61 46 -80 12 -19 34 -57 49 -85 15 -27 35 -62 43 -77
17 -30 119 -204 163 -277 15 -25 32 -55 37 -66 6 -11 19 -33 29 -50 43 -70 61
-107 61 -124 0 -17 -29 -48 -196 -206 -96 -91 -116 -109 -154 -135 -19 -13
-39 -30 -43 -38 -12 -19 -97 -114 -97 -107 0 3 -8 -3 -19 -12 -10 -10 -49 -45
-86 -78 -102 -91 -158 -146 -189 -188 -23 -29 -33 -36 -50 -31 -11 4 -23 10
-26 14 -3 4 -15 10 -27 14 -13 4 -23 11 -23 16 0 4 -8 11 -17 14 -10 3 -27 12
-38 19 -11 7 -43 25 -72 41 l-52 29 29 28 c16 16 34 29 40 29 6 0 9 4 5 10 -3
5 8 16 25 25 16 8 30 22 30 30 0 8 7 15 14 15 8 0 28 11 43 25 15 14 33 29 38
33 6 5 28 31 50 57 22 27 46 54 53 61 6 7 12 15 12 17 0 3 20 26 45 51 25 26
45 49 45 52 0 3 38 42 84 87 46 45 91 99 101 120 10 21 26 42 36 47 14 8 17
19 13 58 -3 37 -10 53 -35 75 -16 15 -31 38 -32 50 -3 21 -43 107 -56 117 -3
3 -8 14 -9 25 -9 54 -61 132 -78 117 -4 -4 -4 -1 0 6 5 8 -2 22 -18 37 -14 13
-26 29 -26 35 0 12 -20 49 -37 67 -7 8 -15 29 -19 48 -3 19 -10 33 -14 30 -4
-3 -11 10 -14 28 -8 44 -41 108 -51 99 -4 -4 -5 3 -1 14 4 13 1 27 -7 36 -17
16 -33 79 -20 77 4 -1 10 0 13 1 10 3 36 8 146 26 20 3 46 10 58 14 41 17 52
10 91 -57z m-1101 14 c8 -12 5 -23 -10 -44 -11 -15 -35 -68 -54 -118 -18 -49
-41 -99 -50 -110 -9 -11 -27 -46 -40 -78 -13 -33 -39 -75 -58 -95 -19 -21 -40
-45 -47 -56 -12 -17 -14 -15 -25 23 -7 27 -31 63 -69 104 -31 34 -97 109 -146
167 l-88 105 34 8 c19 5 43 9 54 10 11 1 26 6 33 10 6 5 15 6 20 3 6 -4 127
17 157 28 6 2 29 7 53 11 23 4 45 11 47 16 3 4 27 11 53 15 26 3 54 10 62 14
22 12 63 5 74 -13z m576 -59 c0 -5 5 -6 10 -3 6 4 10 -5 10 -19 0 -14 5 -26
10 -26 6 0 10 -9 10 -20 0 -11 5 -20 10 -20 6 0 10 -11 10 -24 0 -13 7 -26 15
-30 8 -3 14 -9 13 -13 -4 -15 14 -73 22 -73 4 0 10 -18 14 -40 3 -22 10 -40
14 -40 4 0 14 -16 21 -35 7 -19 16 -35 21 -35 5 0 11 -14 15 -30 4 -17 15 -35
26 -40 10 -6 19 -17 19 -24 0 -8 6 -16 13 -19 13 -5 33 -41 62 -112 9 -22 20
-47 25 -55 15 -23 43 -84 46 -99 1 -7 7 -18 13 -24 18 -18 12 -55 -14 -84 -47
-53 -93 -98 -129 -128 -20 -16 -36 -34 -36 -38 0 -5 -17 -26 -37 -46 -21 -21
-45 -48 -53 -61 -21 -31 -158 -170 -198 -200 -19 -14 -51 -42 -73 -63 -21 -21
-39 -34 -39 -30 0 4 -5 1 -10 -7 -7 -11 -12 -12 -21 -3 -6 6 -18 9 -25 6 -8
-3 -14 -1 -14 5 0 5 -10 13 -22 16 -13 3 -43 24 -67 46 -25 22 -49 40 -54 40
-10 0 -61 51 -97 99 -35 45 -130 211 -130 226 0 7 -9 24 -21 39 -18 22 -22 44
-25 134 -2 59 -6 113 -9 120 -3 7 4 36 15 64 11 28 17 55 14 60 -3 4 0 8 7 8
7 0 10 3 6 6 -6 6 27 109 41 128 5 6 17 31 26 55 19 50 72 129 99 149 10 8 30
25 45 39 38 35 112 86 112 76 0 -4 15 8 33 28 34 38 87 69 119 69 11 0 29 5
40 11 11 6 35 13 52 16 17 3 32 6 34 7 6 7 32 2 32 -6z m-5736 -51 c3 4 16 1
29 -5 24 -11 134 -32 182 -34 57 -2 66 -7 53 -31 -6 -12 -11 -24 -11 -27 2
-12 -79 -172 -126 -249 -28 -46 -51 -92 -51 -100 0 -9 -7 -27 -16 -39 -8 -12
-13 -22 -10 -22 2 0 -5 -24 -16 -52 -10 -29 -21 -57 -22 -63 -6 -23 -39 -96
-100 -230 -13 -27 -27 -71 -30 -97 -4 -26 -11 -50 -17 -53 -19 -12 -8 -49 23
-77 17 -15 35 -28 39 -28 11 0 149 -139 149 -150 0 -6 6 -10 13 -10 7 0 21
-13 30 -30 10 -16 23 -27 30 -24 7 2 22 -4 32 -16 10 -11 24 -20 32 -20 15 0
223 -205 223 -220 0 -6 7 -10 15 -10 8 0 20 -10 26 -22 7 -12 22 -31 34 -42
l22 -20 -34 -23 c-19 -13 -38 -23 -42 -23 -5 0 -20 -9 -35 -21 -14 -11 -26
-17 -26 -14 0 4 -8 -3 -18 -15 -22 -27 -48 -22 -93 18 -16 15 -43 38 -60 52
-17 14 -47 39 -65 55 -19 17 -46 40 -61 52 -16 13 -43 35 -61 50 -18 16 -47
39 -64 53 -73 60 -92 77 -124 105 -19 17 -48 41 -65 55 -17 14 -43 35 -57 47
-15 12 -85 70 -155 129 -89 73 -127 111 -123 121 3 8 9 27 13 41 3 15 14 38
23 52 9 14 41 75 70 135 29 61 59 118 68 128 8 9 12 17 8 17 -3 0 7 19 24 42
16 22 30 47 30 53 0 17 57 140 88 189 13 21 25 46 27 57 2 10 23 46 46 81 24
35 42 64 41 66 -2 1 6 23 18 48 11 26 20 51 20 56 0 6 7 25 16 44 13 27 19 32
34 24 9 -5 20 -6 24 -3z m1221 -62 c96 -4 115 -6 180 -19 38 -8 133 -18 163
-18 20 0 17 -7 -31 -62 -71 -82 -96 -118 -147 -206 -66 -116 -69 -120 -85
-114 -8 3 -40 45 -71 92 -31 48 -65 99 -75 114 -11 15 -19 32 -19 38 0 6 -11
28 -25 50 -14 22 -25 47 -25 56 0 8 -7 22 -15 30 -8 9 -15 23 -15 33 0 13 7
17 33 14 17 -1 77 -5 132 -8z m-628 -46 c25 -10 49 -17 54 -13 11 6 92 -34
145 -72 72 -52 194 -157 194 -166 0 -4 11 -13 24 -19 24 -11 52 -57 72 -119 4
-14 6 -27 5 -29 -2 -2 1 -7 6 -10 5 -3 20 -28 33 -56 23 -48 25 -59 24 -250
l0 -200 -42 -88 c-42 -87 -67 -129 -109 -175 -13 -14 -23 -32 -23 -41 -1 -16
-64 -91 -78 -91 -4 0 -23 -14 -42 -30 -53 -46 -58 -50 -70 -50 -13 0 -61 -29
-75 -46 -12 -14 -49 13 -78 59 -10 15 -22 25 -26 22 -5 -2 -14 9 -21 25 -7 16
-21 32 -31 35 -10 4 -19 10 -19 14 0 23 -180 181 -206 181 -15 0 -214 196
-214 211 0 5 -6 9 -13 9 -8 0 -21 8 -30 18 -16 17 -15 22 3 73 10 30 35 87 54
127 20 40 36 78 36 85 0 7 4 17 10 23 5 5 11 18 13 29 2 11 8 31 14 45 25 60
53 136 53 144 0 5 7 17 16 27 8 9 16 23 18 31 1 7 12 28 24 45 12 17 22 34 22
37 0 3 13 27 29 55 16 27 27 51 25 54 -2 2 2 10 11 17 8 7 15 19 15 27 0 8 10
32 23 54 22 39 23 40 65 34 24 -4 64 -15 89 -26z m3943 -49 c25 -27 61 -68 80
-90 19 -23 56 -65 82 -93 26 -28 46 -52 45 -52 -4 -2 -362 18 -365 20 -1 1 11
28 28 61 16 32 40 92 52 132 12 39 25 72 27 72 3 0 26 -22 51 -50z m-2793
-170 c15 -28 34 -61 40 -73 11 -20 10 -22 -10 -25 -12 -2 -26 -7 -32 -12 -5
-4 -26 -11 -45 -15 -37 -7 -122 -31 -155 -44 -11 -5 -41 -15 -67 -24 l-48 -16
26 47 c14 26 34 61 44 77 11 17 27 43 36 59 21 37 33 52 67 84 15 15 27 30 27
35 0 4 15 22 33 40 l32 33 12 -57 c7 -32 25 -81 40 -109z m2840 -179 c72 -5
121 -14 136 -24 13 -8 34 -17 46 -19 19 -2 10 -12 -54 -58 -42 -30 -129 -85
-191 -121 -63 -36 -127 -78 -142 -92 l-27 -26 4 46 c3 44 -15 249 -25 286 -5
15 3 17 68 16 40 0 123 -4 185 -8z m-2753 -118 c-10 -110 -10 -136 -1 -194 l8
-47 -48 15 c-45 15 -112 46 -229 108 -29 15 -65 40 -80 56 -33 34 -26 45 39
55 20 4 37 10 37 14 0 4 12 10 28 13 15 3 59 15 97 27 96 29 128 38 143 39 11
1 12 -16 6 -86z m3017 -53 c2 -16 5 -22 24 -65 18 -41 51 -163 60 -225 5 -33
24 -217 25 -232 0 -13 -34 5 -110 57 -77 53 -130 80 -235 120 -85 32 -175 75
-175 83 1 13 76 70 135 101 114 60 150 82 180 110 33 30 76 60 88 60 4 1 8 -3
8 -9z m-3379 -169 c27 -12 50 -27 54 -32 3 -5 13 -9 23 -9 9 0 23 -6 30 -12 6
-7 15 -13 19 -14 4 0 29 -10 55 -22 27 -12 52 -22 57 -22 4 0 25 -7 46 -16
l38 -16 -85 -53 c-46 -30 -88 -58 -94 -62 -16 -13 -161 -111 -236 -160 -59
-39 -62 -35 -55 75 9 158 21 245 44 302 11 30 24 64 27 75 6 18 8 18 18 4 7
-8 33 -25 59 -38z m2788 -218 c0 -21 5 -67 11 -103 8 -51 15 -267 10 -302 -1
-8 -301 293 -301 301 1 7 172 91 186 91 5 0 23 11 39 25 42 35 55 32 55 -12z
m230 -52 c36 -17 70 -31 76 -31 21 0 140 -63 204 -107 36 -25 85 -55 110 -65
l45 -20 -80 -32 c-44 -18 -89 -36 -100 -41 -11 -4 -29 -10 -39 -12 -11 -2 -25
-8 -33 -14 -7 -6 -13 -8 -13 -4 0 4 -7 2 -15 -5 -8 -7 -15 -9 -15 -5 0 4 -6 3
-12 -2 -7 -6 -31 -16 -53 -23 -22 -7 -46 -17 -52 -23 -7 -5 -13 -7 -13 -3 0 3
-12 1 -27 -5 -16 -6 -39 -12 -53 -14 l-25 -3 0 167 c0 91 -4 194 -8 229 l-9
62 24 -9 c12 -5 52 -23 88 -40z m-2643 -8 c-3 -16 -1 -122 3 -238 5 -115 8
-211 6 -212 -11 -11 -153 35 -248 81 -62 29 -129 58 -148 65 -19 6 -46 18 -60
26 -21 12 -22 14 -6 15 10 0 38 14 63 30 24 17 46 30 49 30 3 0 10 4 17 10 57
46 76 60 85 60 6 0 12 3 14 8 2 4 23 21 48 37 25 17 50 34 55 38 25 20 111 75
119 76 4 1 6 -11 3 -26z m180 -40 c17 -14 61 -37 98 -52 36 -16 66 -32 65 -37
0 -5 -22 -36 -48 -69 -81 -102 -141 -191 -148 -220 -5 -19 -9 -23 -14 -14 -9
17 -22 414 -13 422 7 7 15 3 60 -30z m1873 -112 c0 -4 64 -73 143 -151 108
-109 138 -145 124 -148 -10 -2 -62 5 -115 16 -53 11 -123 23 -154 25 -32 3
-74 11 -95 18 -21 6 -44 13 -51 15 -8 2 -1 20 22 51 18 27 47 73 63 104 16 30
33 61 37 67 8 14 26 16 26 3z m-1521 -126 c40 -52 86 -105 102 -118 l30 -23
-68 -13 c-72 -13 -108 -20 -215 -45 -76 -18 -97 -19 -117 -7 -15 10 31 84 131
209 32 40 58 77 58 83 0 5 2 9 4 9 2 0 36 -43 75 -95z m851 -147 c19 -6 53
-17 75 -24 23 -8 74 -14 114 -14 l73 0 -18 -27 c-10 -16 -25 -42 -33 -60 -16
-31 -115 -163 -161 -213 -14 -15 -37 -35 -51 -44 -24 -15 -27 -15 -32 -1 -7
18 -33 218 -42 328 l-7 79 24 -7 c12 -4 39 -11 58 -17z m-170 -232 c6 -59 9
-111 6 -113 -16 -16 -286 258 -286 289 0 5 26 8 58 8 33 0 86 10 127 24 l70
24 7 -61 c3 -34 11 -111 18 -171z m2015 198 c55 -3 104 -13 125 -23 19 -10 53
-24 75 -31 22 -7 46 -19 53 -27 7 -7 20 -13 28 -13 8 0 14 -4 14 -10 0 -5 7
-10 16 -10 10 0 14 -6 11 -17 -3 -10 -8 -36 -12 -58 -4 -22 -12 -46 -18 -54
-7 -8 -10 -16 -8 -18 6 -6 -9 -72 -24 -100 -8 -15 -15 -38 -15 -50 0 -12 -4
-23 -9 -25 -9 -3 -15 -29 -28 -113 -3 -22 -9 -44 -13 -50 -4 -5 -8 -43 -9 -83
-1 -43 -10 -98 -21 -132 -11 -33 -20 -67 -20 -77 0 -10 -7 -37 -15 -60 -8 -23
-16 -56 -17 -73 -1 -16 -5 -31 -8 -31 -6 -2 -31 -6 -75 -14 -16 -3 -57 -7 -90
-10 -33 -2 -73 -7 -90 -10 -16 -3 -49 -7 -73 -9 -24 -3 -57 -8 -75 -12 -35 -8
-44 -10 -132 -19 -48 -5 -147 -7 -210 -4 -5 1 -38 -2 -71 -5 -61 -6 -62 -6
-69 22 -3 15 -19 54 -34 87 -16 34 -29 79 -30 104 0 25 -7 52 -15 60 -30 33 8
334 54 437 21 45 57 100 88 132 7 8 19 27 27 42 19 37 176 146 277 195 43 20
79 35 81 33 2 -2 11 3 20 11 10 7 17 11 17 8 0 -3 17 0 39 7 39 11 93 11 256
0z m-1230 -69 c50 -7 131 -20 180 -29 50 -9 116 -16 147 -16 l57 0 -15 -35
c-8 -19 -12 -35 -9 -35 4 0 -1 -10 -9 -22 -9 -12 -16 -30 -16 -38 0 -29 -56
-132 -95 -176 -25 -27 -95 -132 -95 -142 -1 -9 -37 -52 -44 -52 -10 0 -43 74
-50 112 -6 35 -44 131 -66 170 -6 10 -18 39 -29 65 -10 27 -35 86 -55 133 -20
46 -36 86 -36 88 0 3 10 1 23 -3 12 -3 63 -12 112 -20z m-1295 -62 c-10 -32
-32 -98 -49 -146 -18 -49 -38 -119 -46 -155 -8 -37 -22 -94 -32 -126 l-18 -59
-71 114 c-39 63 -101 166 -138 229 l-66 115 37 6 c21 3 74 14 118 24 211 47
241 53 262 54 l21 1 -18 -57z m-817 -21 c98 -50 124 -69 191 -140 105 -109
182 -222 207 -302 20 -62 39 -207 42 -315 1 -54 -18 -142 -54 -247 -24 -69
-39 -82 -82 -71 -12 3 -40 7 -62 9 -73 7 -110 12 -110 14 0 1 -25 5 -55 7
-108 8 -120 10 -126 16 -4 3 -14 2 -23 -3 -10 -5 -23 -5 -30 -1 -14 9 -70 5
-103 -8 -13 -5 -50 -6 -83 -4 -33 2 -68 4 -77 4 -10 0 -20 4 -23 10 -4 5 -13
5 -24 -1 -10 -5 -20 -8 -22 -6 -2 2 -19 6 -37 9 -19 3 -36 8 -38 10 -3 3 -21
1 -40 -3 -30 -7 -36 -5 -52 19 -10 14 -33 76 -51 136 -51 172 -52 176 -81 255
-15 41 -33 91 -40 110 -6 19 -18 64 -25 100 -7 36 -22 112 -34 170 -11 58 -21
106 -21 106 0 1 15 7 33 15 17 7 56 30 85 50 30 21 77 46 105 55 29 9 59 23
67 30 15 12 68 26 145 38 17 2 92 2 168 0 l137 -4 113 -58z m1888 1 c12 -32
55 -132 95 -223 39 -91 75 -180 79 -198 l7 -33 -39 7 c-134 25 -329 88 -361
117 -10 9 -29 17 -43 18 -13 0 -32 4 -42 7 -15 6 -11 13 25 43 46 38 172 198
208 264 12 22 24 43 27 48 10 17 22 4 44 -50z m-750 -175 c41 -36 90 -80 109
-97 34 -31 35 -31 15 -47 -50 -39 -168 -90 -295 -127 -30 -8 -82 -24 -116 -34
l-61 -19 14 51 c8 27 19 72 24 99 4 28 34 125 65 217 l57 166 57 -72 c32 -39
90 -101 131 -137z m2764 82 c28 -16 60 -34 72 -39 11 -5 24 -14 27 -20 4 -6
13 -8 21 -4 8 3 15 1 15 -5 0 -6 13 -13 29 -17 24 -5 29 -11 25 -28 -11 -57
-14 -75 -20 -117 -3 -25 -7 -53 -10 -62 -7 -23 -13 -55 -19 -103 -6 -42 -20
-122 -30 -165 -3 -14 -8 -47 -11 -75 -4 -27 -8 -53 -10 -56 -2 -4 -6 -24 -9
-45 -3 -22 -11 -64 -16 -94 -6 -30 -13 -68 -15 -85 -5 -33 -21 -118 -27 -150
-3 -11 -8 -42 -11 -70 -10 -75 -26 -117 -41 -111 -7 2 -16 2 -20 -2 -4 -4 -44
-7 -89 -8 -46 -1 -87 -3 -92 -6 -5 -3 -76 -6 -159 -7 -131 -1 -190 -5 -190
-11 0 -2 -140 -9 -315 -15 -69 -2 -136 -7 -150 -10 -14 -4 -48 -9 -75 -12 -60
-6 -60 -6 -105 145 -24 80 -25 92 -11 93 9 1 77 3 151 4 74 2 153 6 175 10 22
3 56 7 76 9 20 2 42 6 48 10 6 4 26 9 44 12 18 2 52 6 77 10 25 3 68 8 95 10
115 8 177 19 206 34 10 6 31 10 48 10 31 0 38 14 46 93 4 43 34 168 46 189 5
10 9 27 9 37 0 11 5 23 11 26 6 4 8 13 5 20 -2 7 -2 16 2 20 4 3 8 46 9 93 2
87 24 195 48 242 11 23 27 78 26 97 0 5 8 16 16 26 9 9 13 20 10 23 -3 4 0 21
8 39 7 19 11 36 8 39 -3 3 0 12 6 20 7 8 10 20 6 26 -10 17 7 11 60 -20z
m-4876 -281 c11 -48 21 -102 21 -120 0 -19 13 -72 29 -119 16 -47 45 -130 64
-185 19 -55 45 -138 57 -185 13 -47 33 -104 46 -127 13 -23 24 -50 24 -61 0
-26 35 -39 95 -35 28 2 55 4 60 4 28 2 224 -15 235 -21 9 -4 54 -1 85 6 57 13
238 7 310 -9 11 -3 54 -8 95 -12 41 -4 84 -8 95 -10 11 -1 30 -3 41 -4 22 -1
22 -1 -7 -83 -16 -46 -29 -93 -29 -105 l0 -23 -579 0 c-451 0 -581 3 -588 13
-13 18 -30 73 -43 142 -6 33 -20 89 -30 125 -10 36 -28 116 -39 179 -11 62
-24 119 -29 125 -9 12 -27 87 -38 155 -3 24 -13 59 -20 77 -8 18 -14 53 -14
76 -1 24 -16 87 -34 140 l-33 97 91 48 91 49 11 -26 c7 -14 21 -64 33 -111z
m2477 -133 c128 -13 286 -67 355 -123 66 -54 94 -79 98 -86 5 -12 43 -49 78
-75 17 -13 39 -40 49 -60 11 -20 29 -53 41 -72 18 -29 45 -103 47 -132 1 -4 8
-16 17 -26 21 -25 42 -89 34 -102 -4 -6 -46 -36 -93 -67 -225 -146 -262 -173
-329 -241 -40 -41 -99 -91 -130 -112 -32 -22 -84 -57 -116 -79 -69 -48 -69
-48 -195 37 -78 52 -264 167 -337 208 -16 9 -73 53 -125 96 -52 44 -118 94
-146 113 -73 49 -76 53 -58 105 8 25 19 63 24 86 6 22 23 61 40 85 16 24 30
52 30 62 0 25 33 70 95 132 58 59 171 157 180 155 3 0 20 10 38 23 17 14 46
27 62 30 38 6 133 25 205 41 30 7 60 11 65 10 6 -2 38 -5 71 -8z m794 -844 c0
-10 3 -22 8 -26 4 -4 7 -11 8 -14 1 -12 17 -47 23 -52 4 -3 12 -18 19 -34 11
-26 11 -32 -5 -46 -17 -17 -810 -681 -845 -708 -14 -11 -23 -10 -59 9 -24 12
-48 26 -54 33 -7 6 -29 25 -49 41 -21 17 -47 38 -58 47 -11 10 -29 20 -39 23
-11 4 -19 11 -19 17 0 6 -3 8 -7 5 -3 -4 -15 3 -27 16 -12 12 -41 38 -66 57
-25 19 -47 38 -48 43 -2 4 -22 17 -45 28 -22 12 -46 26 -53 33 -6 6 -22 18
-34 26 -13 8 -37 28 -54 43 -17 16 -44 35 -61 44 -16 9 -51 36 -78 61 -48 46
-86 72 -164 113 -60 32 -60 33 -18 134 7 17 20 47 29 68 8 20 18 37 21 37 16
0 150 -99 227 -169 53 -47 68 -57 203 -134 39 -22 129 -79 202 -128 72 -48
145 -90 162 -94 16 -3 35 -12 41 -20 20 -24 81 -11 113 25 28 32 59 55 194
145 34 22 80 63 102 90 23 28 78 76 124 108 111 78 290 195 300 196 4 1 7 -7
7 -17z"/>











<path fill="white" d="M3114 8916 c-3 -9 -14 -16 -24 -16 -26 0 -46 -28 -34 -48 8 -12 6
-25 -10 -52 -11 -19 -23 -37 -26 -40 -3 -3 -28 -41 -55 -85 -27 -44 -64 -101
-82 -127 -18 -26 -33 -52 -33 -57 0 -5 -3 -11 -8 -13 -4 -1 -28 -36 -52 -77
-25 -40 -53 -85 -62 -100 -10 -14 -23 -36 -29 -48 -7 -13 -16 -23 -21 -23 -4
0 -8 -6 -8 -14 0 -8 -6 -21 -13 -28 -7 -7 -32 -44 -56 -83 -23 -38 -47 -79
-54 -90 -7 -10 -17 -25 -24 -32 -6 -7 -15 -22 -18 -33 -3 -11 -11 -20 -16 -20
-5 0 -9 -4 -9 -10 0 -5 -19 -38 -43 -73 -24 -34 -46 -70 -50 -80 -3 -9 -15
-17 -26 -17 -25 0 -118 -88 -131 -126 -13 -35 -66 -70 -118 -80 -20 -4 -41
-10 -47 -14 -5 -5 -32 -11 -60 -16 -27 -4 -66 -16 -85 -28 -19 -12 -53 -29
-75 -40 -22 -10 -51 -25 -65 -32 -14 -8 -54 -29 -90 -47 -36 -17 -70 -37 -76
-43 -7 -5 -52 -23 -100 -38 -49 -15 -105 -32 -124 -38 -19 -6 -43 -19 -53 -29
-10 -11 -24 -19 -31 -19 -8 0 -16 -7 -20 -15 -6 -17 -121 -75 -148 -75 -10 0
-18 -4 -18 -8 0 -13 -74 -42 -108 -42 -25 0 -32 -4 -32 -19 0 -10 -6 -24 -14
-30 -19 -16 -8 -51 15 -51 11 0 19 -1 19 -2 0 -2 7 -41 15 -87 8 -46 12 -87
10 -92 -3 -4 0 -11 5 -14 6 -4 10 -17 9 -28 -1 -12 1 -29 4 -37 11 -28 28
-140 22 -149 -3 -6 0 -13 5 -16 6 -4 10 -17 9 -28 -1 -12 1 -29 4 -37 11 -27
78 -423 72 -428 -3 -3 -1 -10 4 -16 11 -14 33 -144 26 -156 -3 -5 -1 -12 5
-15 7 -4 9 -28 5 -63 -13 -123 -14 -143 -6 -186 10 -55 -15 -112 -88 -202 -27
-33 -56 -81 -64 -105 -9 -25 -27 -67 -41 -93 -14 -27 -26 -57 -26 -67 0 -10
-4 -21 -10 -24 -5 -3 -10 -15 -10 -25 0 -10 -5 -20 -10 -22 -6 -2 -12 -14 -15
-28 -7 -39 -82 -182 -113 -215 -27 -29 -54 -101 -67 -180 -4 -21 -15 -51 -25
-65 -9 -14 -21 -35 -24 -47 -4 -13 -12 -23 -17 -23 -5 0 -9 -8 -9 -19 0 -28
-25 -72 -56 -96 -25 -20 -25 -22 -10 -38 10 -9 15 -21 12 -26 -9 -14 22 -34
45 -28 17 5 114 -72 478 -378 397 -333 463 -393 500 -449 23 -36 55 -74 70
-85 41 -29 60 -85 67 -198 3 -54 14 -123 24 -153 10 -30 30 -95 45 -145 15
-49 33 -107 41 -128 21 -55 33 -118 43 -211 6 -63 16 -98 43 -151 19 -39 41
-95 47 -125 7 -30 20 -79 28 -107 8 -29 12 -66 8 -81 -5 -27 -2 -31 36 -51 44
-23 69 -22 69 4 0 14 63 15 593 12 532 -2 631 -6 659 -23 15 -10 53 -15 96
-15 23 1 57 -6 75 -15 30 -16 112 -94 154 -147 10 -13 35 -32 56 -42 20 -9 37
-21 37 -25 0 -4 14 -13 30 -20 17 -7 30 -16 30 -20 0 -4 18 -15 40 -25 22 -10
40 -21 40 -25 0 -4 18 -15 40 -25 22 -10 40 -21 40 -25 0 -4 14 -14 32 -21 17
-7 66 -46 107 -87 72 -70 169 -132 208 -132 10 0 35 -15 55 -33 20 -17 46 -39
58 -47 63 -43 111 -83 106 -88 -11 -10 16 -33 28 -23 6 5 25 11 41 13 25 2 30
8 30 30 1 25 33 73 43 64 2 -3 15 8 29 25 14 16 30 26 36 22 7 -3 9 -3 5 2 -9
9 42 51 57 47 5 -2 7 -1 3 3 -7 7 105 107 117 105 3 0 17 13 32 30 14 17 28
29 30 26 3 -3 16 8 30 25 14 16 30 26 36 22 7 -3 9 -3 5 2 -7 7 167 159 175
153 2 -2 16 12 31 30 16 18 33 29 39 25 7 -3 9 -3 5 2 -9 9 42 51 57 47 5 -2
7 -1 3 3 -11 12 114 111 193 152 74 40 186 83 214 83 8 0 15 -4 15 -9 0 -6 12
-6 31 1 34 12 169 5 211 -11 14 -5 28 -8 29 -6 7 6 82 17 135 20 28 1 61 6 73
10 12 4 39 8 59 10 20 2 57 6 82 11 52 9 161 10 240 1 36 -3 66 0 88 8 17 8
32 12 32 10 0 -2 18 2 41 10 36 13 195 29 254 26 11 0 28 -1 38 -2 9 0 17 -4
17 -9 0 -5 7 -7 15 -4 8 4 15 11 15 18 0 6 9 18 20 26 32 23 25 56 -12 51 -3
0 -3 14 2 32 5 18 52 283 106 590 71 407 102 562 115 575 9 10 20 29 24 43 4
13 12 30 18 37 6 8 12 31 13 52 1 22 12 52 26 70 23 32 131 114 165 127 10 3
31 20 46 37 15 17 51 56 80 86 29 31 77 84 107 119 30 34 66 72 79 84 65 60
89 78 122 93 33 15 73 63 120 145 16 28 99 112 99 101 0 -4 14 9 30 28 16 19
30 38 30 41 0 7 35 20 59 23 9 0 15 14 16 36 2 47 -12 73 -35 67 -16 -4 -46
41 -175 267 -85 149 -162 282 -170 296 -8 14 -51 88 -95 165 -44 77 -85 147
-90 155 -74 118 -102 181 -116 260 -3 19 -16 51 -28 70 -13 19 -24 52 -25 72
-1 33 32 178 46 201 7 12 11 62 18 279 4 98 8 183 9 190 2 7 6 31 10 53 4 22
14 58 23 81 10 29 13 61 8 115 -11 133 -11 144 -2 184 5 22 9 60 8 85 -1 25 5
57 12 71 l14 26 -86 39 c-47 21 -88 42 -89 46 -2 5 -7 6 -12 3 -11 -7 -100 27
-100 38 0 4 -4 6 -9 3 -11 -7 -101 26 -101 37 0 4 -4 6 -9 2 -9 -5 -90 22
-101 34 -3 3 -9 6 -15 6 -24 1 -95 29 -95 37 0 5 -4 7 -9 4 -8 -5 -90 22 -101
34 -3 3 -9 5 -15 5 -24 1 -95 29 -95 37 0 5 -4 7 -9 4 -8 -5 -90 22 -101 34
-3 3 -9 5 -15 5 -21 1 -95 29 -95 35 0 4 -6 7 -12 7 -22 -2 -98 26 -98 35 0 5
-5 6 -10 3 -6 -3 -29 12 -53 34 -23 23 -48 41 -54 41 -7 0 -13 4 -13 10 0 5
-19 14 -42 20 -28 7 -54 24 -74 46 -30 34 -84 149 -84 179 0 8 -4 15 -10 15
-5 0 -9 4 -7 9 1 5 -15 27 -35 49 -21 23 -38 46 -38 52 0 5 -4 10 -10 10 -5 0
-10 6 -10 14 0 7 -7 20 -16 27 -19 16 -139 176 -176 234 -24 39 -54 113 -50
127 1 4 -7 10 -18 13 -11 4 -18 11 -14 16 3 6 -2 13 -13 15 -10 3 -23 15 -28
26 -6 11 -14 20 -18 19 -11 -3 -49 39 -77 85 -13 22 -29 42 -34 46 -6 4 -8 8
-3 8 13 0 -89 125 -106 128 -8 2 -35 -5 -59 -16 -54 -24 -83 -34 -84 -30 0 2
-8 -3 -17 -11 -10 -7 -17 -10 -17 -6 0 4 -7 2 -15 -5 -8 -7 -15 -9 -15 -5 0 4
-7 2 -15 -5 -8 -7 -15 -9 -15 -5 0 4 -6 3 -12 -2 -7 -6 -31 -16 -53 -23 -22
-7 -46 -17 -52 -23 -7 -5 -13 -6 -13 -2 0 4 -7 2 -15 -5 -8 -7 -15 -9 -15 -5
0 4 -7 2 -15 -5 -8 -7 -15 -9 -15 -5 0 4 -7 2 -15 -5 -8 -7 -15 -9 -15 -5 0 4
-6 3 -12 -2 -7 -6 -31 -16 -53 -23 -22 -7 -46 -17 -52 -23 -7 -5 -13 -6 -13
-2 0 4 -7 2 -15 -5 -8 -7 -15 -9 -15 -5 0 4 -7 2 -15 -5 -8 -7 -15 -9 -15 -5
0 4 -7 2 -15 -5 -8 -7 -15 -9 -15 -5 0 4 -6 3 -12 -2 -7 -6 -31 -16 -53 -23
-22 -7 -46 -17 -52 -23 -7 -5 -13 -6 -13 -2 0 4 -7 2 -15 -5 -8 -7 -15 -9 -15
-5 0 4 -6 3 -12 -2 -7 -6 -31 -16 -53 -23 -22 -7 -78 -27 -125 -45 -72 -28
-97 -33 -160 -31 -41 1 -93 -4 -114 -11 -52 -17 -145 -5 -173 22 -8 8 -21 15
-28 15 -7 0 -20 6 -27 13 -26 26 -117 64 -136 58 -1 -1 -17 5 -36 13 -19 8
-37 11 -41 8 -3 -4 -9 -1 -13 5 -4 6 -26 13 -50 17 -23 3 -50 9 -60 14 -9 5
-35 13 -57 17 -22 5 -46 9 -53 11 -25 5 -147 58 -162 70 -26 21 -73 36 -130
40 -86 6 -119 13 -168 34 -25 11 -54 22 -66 24 -39 8 -81 27 -103 48 -20 19
-23 19 -29 4z m2625 -258 c22 -24 41 -47 41 -52 0 -5 11 -24 25 -42 14 -18 25
-36 25 -39 0 -7 67 -103 80 -115 3 -3 14 -23 25 -45 11 -22 22 -42 25 -45 4
-3 13 -21 22 -40 9 -19 30 -48 47 -64 17 -17 31 -36 31 -43 0 -7 5 -13 10 -13
6 0 10 -7 10 -15 0 -8 4 -15 8 -15 5 0 19 -22 31 -48 13 -27 35 -60 50 -75 15
-14 33 -43 40 -65 8 -23 30 -61 50 -85 75 -92 96 -121 104 -140 8 -21 7 -22
-80 -117 -23 -25 -50 -55 -60 -66 -15 -18 -20 -19 -31 -8 -6 7 -12 18 -12 24
0 5 -4 10 -9 10 -12 0 -97 120 -106 149 -3 12 -10 21 -15 21 -4 0 -11 15 -14
33 -3 18 -20 47 -36 65 -17 18 -30 37 -30 43 0 5 -4 9 -10 9 -5 0 -10 7 -10
16 0 8 -4 12 -10 9 -5 -3 -10 -3 -10 2 0 9 -43 64 -77 100 -13 13 -23 28 -23
33 0 6 -4 10 -10 10 -5 0 -10 6 -10 14 0 8 -7 16 -14 19 -8 3 -23 21 -32 38
-9 18 -22 38 -28 44 -6 7 -31 39 -56 73 -24 33 -48 58 -52 56 -4 -3 -17 10
-30 29 -22 32 -35 35 -78 21 -8 -3 -17 -5 -19 -4 -2 1 -7 -4 -12 -12 -5 -7
-16 -14 -26 -15 -10 -1 -36 -7 -58 -13 -65 -17 -79 -21 -107 -25 -14 -2 -36
-8 -47 -15 -12 -6 -25 -9 -30 -6 -5 3 -19 -2 -32 -12 -26 -20 -60 -36 -71 -34
-5 1 -8 -2 -8 -7 0 -9 -41 -29 -75 -35 -11 -2 -33 -9 -49 -15 -16 -7 -31 -9
-34 -6 -3 2 -10 1 -16 -4 -6 -5 -37 -12 -70 -16 -32 -3 -65 -12 -72 -19 -7 -8
-24 -11 -38 -9 -14 3 -26 1 -26 -4 0 -5 -10 -9 -22 -8 -12 1 -37 -4 -57 -11
-20 -7 -41 -13 -47 -14 -7 0 -13 36 -17 98 -4 53 -8 106 -10 117 -4 21 13 29
188 91 39 13 77 27 85 31 8 3 18 7 23 8 4 2 9 4 12 5 3 1 8 3 13 4 4 1 12 4
17 7 6 4 48 19 95 34 47 15 91 32 98 38 6 5 12 6 12 2 0 -4 6 -3 13 2 6 6 50
23 97 38 47 15 91 32 98 38 6 5 12 6 12 2 0 -4 7 -2 15 5 8 7 15 9 15 5 0 -4
6 -3 13 2 6 6 30 16 52 23 22 7 45 15 50 19 6 3 19 7 29 8 11 2 25 8 33 14 7
6 13 8 13 4 0 -4 7 -2 15 5 8 7 15 9 15 5 0 -4 6 -2 13 4 8 6 23 12 35 14 12
2 25 6 28 10 15 15 33 6 73 -35z m-2459 18 c14 -3 51 -16 82 -30 32 -14 68
-27 80 -30 41 -7 150 -45 164 -57 8 -6 14 -8 14 -4 0 4 11 0 25 -9 14 -9 25
-13 25 -10 0 4 8 0 18 -8 9 -9 37 -19 62 -23 25 -4 79 -20 120 -36 41 -16 80
-29 87 -29 7 0 13 -5 13 -11 0 -5 4 -8 9 -5 5 4 47 -10 93 -29 45 -20 92 -37
103 -39 74 -15 123 -28 144 -38 23 -12 23 -15 16 -98 -4 -47 -9 -110 -10 -140
-3 -67 -2 -65 -20 -50 -8 7 -15 9 -15 5 0 -4 -6 -2 -13 4 -8 6 -17 8 -20 5 -3
-3 -12 -2 -19 2 -7 5 -22 9 -33 9 -11 0 -27 5 -35 10 -8 5 -23 11 -32 12 -10
2 -27 4 -37 6 -10 2 -26 9 -35 16 -9 7 -16 10 -16 6 0 -4 -7 -2 -15 5 -9 7
-18 10 -22 7 -3 -4 -12 -2 -20 4 -7 6 -13 9 -13 5 0 -3 -9 2 -20 11 -10 9 -27
18 -37 20 -10 1 -34 5 -53 7 -19 3 -45 8 -57 11 -64 15 -137 27 -163 28 -8 0
-19 3 -25 7 -5 4 -19 6 -30 4 -10 -1 -25 2 -33 8 -8 7 -21 13 -30 14 -10 1
-33 5 -52 9 -19 4 -42 9 -50 10 -8 1 -22 5 -30 9 -25 10 -78 14 -91 5 -8 -5
-20 -2 -30 7 -15 14 -19 12 -38 -12 -11 -15 -21 -33 -21 -40 0 -8 -5 -14 -11
-14 -6 0 -9 -6 -7 -12 3 -7 -6 -24 -20 -38 -13 -14 -28 -37 -34 -52 -5 -16
-14 -28 -19 -28 -5 0 -9 -7 -9 -15 0 -8 -9 -20 -20 -27 -11 -7 -20 -17 -20
-22 0 -5 -10 -17 -21 -27 -12 -10 -23 -31 -25 -45 -1 -15 -7 -31 -13 -37 -6
-6 -11 -21 -11 -32 0 -12 -9 -30 -20 -40 -11 -10 -18 -20 -16 -23 3 -2 -4 -13
-14 -25 -11 -11 -17 -24 -14 -29 3 -5 0 -7 -8 -6 -7 2 -12 -3 -10 -10 1 -7 -8
-23 -20 -37 -35 -36 -81 -96 -94 -119 -6 -12 -16 -20 -24 -18 -8 2 -10 -3 -7
-13 4 -8 2 -15 -3 -15 -5 0 -11 -9 -15 -19 -11 -37 -38 -35 -70 5 -16 21 -55
65 -86 98 l-57 61 39 59 c22 32 46 70 54 85 25 43 38 64 68 102 15 20 27 40
27 44 0 3 14 26 30 50 17 24 30 47 30 51 0 3 10 15 22 25 11 11 18 19 13 19
-4 0 -1 7 6 16 7 9 18 24 24 35 16 28 91 148 135 214 22 33 43 68 46 78 4 9 9
17 13 17 3 0 18 21 31 48 14 26 27 49 30 52 13 13 50 70 50 78 0 19 27 33 55
28 17 -3 41 -8 55 -10z m2256 -501 c4 -8 10 -12 15 -10 5 3 29 -22 55 -57 25
-35 50 -64 55 -66 5 -2 9 -10 9 -18 0 -8 4 -14 10 -14 5 0 12 -11 16 -25 3
-14 10 -25 15 -25 5 0 9 -7 9 -16 0 -8 5 -12 10 -9 6 3 10 3 10 -2 0 -10 44
-66 83 -106 15 -16 27 -33 27 -38 0 -5 12 -20 28 -33 15 -14 36 -42 47 -63 11
-21 22 -40 25 -43 12 -11 50 -82 50 -93 0 -7 11 -24 25 -39 14 -15 25 -32 25
-39 0 -6 8 -19 18 -28 9 -9 23 -29 30 -44 11 -26 10 -31 -20 -61 -18 -18 -51
-58 -73 -89 -22 -31 -45 -57 -51 -57 -7 0 -14 -7 -18 -15 -3 -8 -12 -15 -21
-15 -8 0 -15 -4 -15 -9 0 -38 -152 -122 -320 -176 -106 -34 -200 -51 -200 -36
0 4 -8 7 -17 7 -99 4 -153 10 -153 16 0 4 -6 5 -14 2 -10 -4 -22 8 -36 35 -17
34 -25 41 -50 41 -17 0 -30 -4 -30 -10 0 -10 -51 9 -61 23 -3 5 -10 8 -15 8
-9 -1 -91 50 -128 79 -45 35 -85 78 -112 120 -16 25 -31 47 -34 50 -6 5 -32
59 -36 73 -1 4 -2 8 -4 10 -1 1 -3 10 -5 19 -2 9 -14 32 -28 50 -23 30 -50
105 -46 125 2 4 -1 28 -5 53 -8 53 -15 240 -9 257 3 6 15 9 29 7 13 -2 24 -1
24 4 0 5 6 9 13 10 6 1 24 4 39 7 16 3 39 7 52 9 14 2 31 8 38 12 7 5 31 10
53 11 21 2 42 7 45 11 7 10 30 15 72 15 20 0 36 5 35 10 -1 5 7 11 18 13 64
11 85 17 85 25 0 5 7 5 17 2 12 -5 14 -3 8 7 -5 8 -3 11 6 8 8 -3 27 6 42 18
25 21 46 29 70 25 4 0 7 4 7 10 0 5 4 8 8 5 9 -6 73 9 107 24 11 5 40 12 65
16 25 3 54 13 65 20 25 18 34 18 41 -1z m-2131 -61 c14 -2 35 -6 48 -9 12 -3
44 -9 70 -15 27 -5 54 -13 60 -17 6 -4 23 -8 37 -9 46 -4 89 -12 101 -19 6 -4
29 -8 52 -9 23 -1 48 -5 56 -10 7 -5 25 -10 40 -12 49 -5 75 -13 83 -26 6 -10
8 -10 8 1 0 11 3 11 15 1 8 -7 15 -9 15 -5 0 5 9 0 21 -11 12 -10 23 -17 25
-15 6 4 94 -22 94 -29 0 -3 12 -7 26 -8 14 -1 31 -5 37 -9 7 -4 23 -8 37 -9
14 -1 26 -3 28 -4 2 -3 5 -4 40 -15 20 -7 22 -14 23 -74 1 -92 -1 -131 -11
-171 -4 -19 -11 -61 -15 -93 -3 -31 -12 -63 -18 -70 -7 -6 -21 -32 -31 -57
-17 -39 -100 -175 -116 -190 -3 -3 -17 -21 -30 -40 -27 -40 -70 -86 -70 -76 0
4 -13 -2 -29 -13 -15 -11 -31 -18 -34 -14 -4 3 -9 -2 -13 -11 -3 -9 -10 -14
-14 -11 -4 3 -18 -6 -31 -18 -28 -28 -74 -47 -120 -52 -19 -2 -35 -4 -36 -4
-2 -1 -5 -1 -8 -2 -2 0 -19 -5 -37 -10 -29 -9 -141 -20 -223 -22 -58 -2 -131
14 -205 45 -41 18 -77 35 -80 39 -6 8 -52 32 -65 35 -60 10 -169 103 -235 199
-16 24 -41 52 -55 63 -30 24 -31 33 -5 52 11 8 20 19 20 25 0 6 9 18 20 28 11
9 20 23 20 32 0 8 12 22 26 32 14 9 30 26 35 37 5 12 29 48 53 81 25 33 45 66
45 73 1 6 5 12 10 12 5 0 23 36 40 80 26 69 48 104 99 156 6 7 12 17 12 22 0
5 15 26 33 47 17 20 37 51 43 69 8 23 19 33 40 37 16 3 32 4 37 2 4 -3 19 -6
32 -9z m3711 -760 c297 -108 551 -200 565 -206 24 -8 26 -12 24 -71 -2 -34 -8
-89 -14 -122 -5 -33 -13 -95 -16 -138 -3 -44 -10 -100 -17 -125 -6 -26 -12
-76 -14 -112 -5 -91 -12 -161 -20 -190 -3 -14 -7 -47 -8 -75 -2 -27 -8 -67
-15 -87 -7 -21 -14 -92 -15 -158 -2 -67 -5 -123 -8 -125 -5 -5 -62 -16 -108
-20 -19 -2 -35 -4 -35 -5 0 -1 -18 -3 -40 -6 -40 -4 -80 -11 -80 -14 0 -1 -7
-3 -15 -5 -8 -1 -28 -6 -44 -10 -26 -7 -28 -6 -21 16 5 13 10 51 12 84 7 128
26 266 39 287 3 4 7 110 10 235 11 521 13 463 -13 480 -12 8 -39 16 -60 18
-20 1 -39 7 -41 13 -2 7 -9 12 -16 12 -7 0 -34 11 -61 25 -27 13 -52 22 -57
19 -4 -3 -8 3 -8 12 0 10 -3 14 -7 11 -3 -4 -12 -2 -20 4 -7 6 -13 8 -13 4 0
-5 -9 0 -21 11 -11 10 -33 20 -47 21 -55 4 -108 15 -142 31 -19 9 -37 16 -40
17 -3 0 -12 5 -20 10 -8 5 -22 10 -30 12 -8 1 -16 7 -18 13 -2 5 -7 8 -12 5
-4 -3 -24 6 -44 20 -20 14 -39 25 -42 25 -12 0 -154 72 -154 78 0 4 18 27 40
52 51 57 60 68 60 75 0 5 43 75 46 75 1 0 244 -88 540 -196z m-4807 49 c11
-10 41 -47 67 -83 26 -36 65 -83 86 -104 l39 -40 -58 -27 c-32 -16 -83 -35
-113 -44 -30 -9 -63 -21 -72 -26 -10 -5 -24 -9 -32 -9 -7 0 -19 -7 -26 -15 -7
-8 -21 -15 -31 -15 -11 0 -19 -4 -19 -10 0 -5 -5 -10 -11 -10 -7 0 -35 -15
-63 -34 -28 -18 -71 -43 -96 -55 -25 -12 -52 -25 -60 -30 -8 -5 -55 -29 -104
-52 -49 -23 -100 -53 -114 -66 -14 -13 -31 -23 -38 -23 -21 0 -47 -47 -39 -67
5 -10 7 -22 6 -27 -1 -4 4 -15 10 -22 7 -9 12 -48 13 -94 0 -44 3 -80 6 -80 4
0 6 -28 4 -62 -1 -45 3 -70 17 -95 11 -19 17 -38 14 -44 -4 -5 -1 -9 5 -9 6 0
8 -4 5 -10 -3 -5 -3 -10 2 -10 4 0 9 -12 9 -27 1 -16 4 -66 7 -113 4 -47 9
-130 13 -185 10 -169 11 -183 18 -194 4 -6 2 -9 -6 -6 -7 2 -40 6 -73 9 -33 3
-73 8 -90 12 -38 8 -65 11 -135 13 -50 1 -56 3 -58 24 -1 12 -46 276 -101 586
-104 587 -105 601 -60 601 9 0 22 7 29 15 7 8 19 15 26 15 8 0 22 4 32 9 9 5
28 13 42 19 14 6 64 29 111 51 48 23 91 41 98 41 6 0 20 5 31 10 11 6 29 15
40 20 11 6 27 10 35 10 8 0 32 10 53 23 20 13 69 36 107 51 39 16 93 39 120
52 28 13 64 26 80 29 29 7 155 64 165 76 8 10 64 37 78 38 7 1 21 -7 31 -16z
m2123 -244 c5 -46 10 -175 12 -287 l4 -202 -26 20 c-93 71 -179 116 -327 171
-98 37 -108 45 -94 71 17 31 122 131 154 148 45 22 239 152 244 162 1 5 8 7
15 5 6 -2 14 -39 18 -88z m99 74 c12 -10 27 -24 34 -30 8 -7 17 -13 21 -13 10
0 108 -63 112 -72 2 -5 8 -8 13 -8 6 0 22 -11 37 -25 15 -14 50 -42 79 -63 29
-20 52 -43 53 -49 0 -7 9 -22 21 -34 11 -11 19 -22 17 -23 -55 -40 -225 -146
-233 -146 -3 0 -34 -18 -70 -40 -87 -54 -95 -53 -96 13 -2 194 -7 335 -14 415
-4 50 -5 92 -2 92 4 0 16 -8 28 -17z m1825 -12 c5 -5 18 -11 29 -13 11 -1 29
-11 39 -20 10 -10 23 -15 27 -12 4 2 17 -6 28 -18 12 -12 21 -18 21 -13 0 4 8
1 18 -8 9 -8 19 -16 22 -16 13 0 47 -16 63 -29 9 -8 17 -12 17 -8 0 3 18 -3
40 -14 22 -11 40 -18 40 -15 0 4 6 3 13 -2 6 -4 14 -8 17 -9 10 -2 46 -16 61
-24 9 -4 22 -4 29 0 7 4 20 5 29 0 9 -4 33 -16 54 -26 20 -10 37 -22 37 -26 0
-5 3 -7 8 -6 4 1 21 -3 37 -8 17 -6 33 -11 36 -10 4 1 16 -8 28 -18 12 -11 21
-16 21 -11 0 4 7 1 16 -6 9 -7 26 -15 37 -16 45 -7 44 -1 33 -343 -3 -85 -6
-182 -7 -215 0 -33 -7 -91 -15 -129 -7 -38 -11 -73 -8 -77 3 -5 2 -15 -3 -21
-4 -7 -8 -24 -9 -38 -14 -196 -19 -211 -75 -228 -55 -17 -221 -27 -289 -18
-73 10 -278 78 -290 95 -3 5 -22 14 -42 20 -21 7 -55 30 -75 53 -21 22 -64 66
-96 99 -34 35 -60 71 -64 89 -3 17 -10 30 -16 30 -6 0 -8 2 -5 6 3 3 -7 31
-22 63 -25 50 -42 100 -55 161 -2 8 -9 30 -14 49 -17 55 -5 217 19 280 12 30
23 75 25 100 4 56 10 70 58 143 20 31 37 59 37 61 0 3 17 23 38 45 21 22 46
56 57 76 20 36 33 44 51 27z m-3756 -159 c0 -5 24 -33 53 -63 30 -30 64 -75
76 -101 13 -27 27 -48 32 -48 11 0 48 -80 56 -123 3 -17 9 -34 13 -37 12 -9
41 -203 43 -282 1 -51 -3 -81 -12 -92 -8 -9 -11 -19 -8 -23 4 -3 0 -18 -7 -32
-8 -14 -22 -53 -32 -86 -9 -33 -26 -72 -38 -87 -12 -15 -32 -43 -46 -64 -14
-20 -62 -75 -107 -123 -77 -82 -108 -103 -234 -162 -9 -4 -45 -13 -80 -19 -35
-6 -75 -19 -89 -28 -20 -14 -48 -17 -140 -16 -158 2 -197 10 -186 41 3 8 3 20
0 25 -4 6 -8 34 -10 62 -19 361 -22 390 -51 475 -16 46 -26 101 -28 145 -1 39
-3 71 -4 71 -2 0 -4 27 -6 60 -6 83 -7 89 -17 96 -5 3 -3 12 5 20 24 23 57 49
62 49 6 0 259 124 265 130 7 7 57 35 109 61 25 11 51 27 58 35 8 8 21 14 29
14 8 0 34 9 56 20 23 11 50 20 60 20 10 0 18 5 18 10 0 6 9 10 20 10 11 0 28
4 38 9 31 17 87 41 95 41 4 0 7 -4 7 -8z m1400 -246 c8 -8 47 -24 85 -36 95
-31 180 -73 247 -123 31 -23 65 -47 75 -53 15 -9 8 -14 -46 -32 -37 -13 -93
-44 -135 -75 -100 -75 -93 -73 -111 -30 -33 79 -62 141 -122 259 -59 118 -60
122 -35 113 15 -6 34 -16 42 -23z m990 8 c0 -7 8 -17 17 -23 16 -9 14 -21 -31
-158 -27 -81 -50 -154 -52 -162 -4 -11 -7 -11 -23 0 -87 63 -209 141 -237 151
-19 6 -34 15 -34 18 0 3 36 25 80 49 44 23 103 58 131 77 28 19 55 34 60 34 5
0 9 4 9 9 0 12 51 30 68 23 6 -2 12 -10 12 -18z m683 -2 l48 -7 -43 -52 c-24
-28 -59 -73 -78 -100 -19 -26 -73 -97 -120 -156 l-85 -109 -8 33 c-10 39 -39
130 -91 278 -20 58 -34 106 -31 109 2 2 32 7 67 9 35 3 64 6 65 7 6 5 231 -5
276 -12z m-1702 -222 c47 -100 52 -111 77 -171 l20 -47 -45 -6 c-25 -3 -81 -6
-125 -6 -58 0 -99 -7 -159 -26 -78 -26 -102 -27 -82 -2 6 7 16 38 22 68 37
167 92 315 136 364 19 21 35 43 35 50 0 14 67 -110 121 -224z m1864 210 c-3
-5 -1 -10 4 -10 6 0 11 -9 11 -20 0 -11 4 -20 9 -20 5 0 12 -17 16 -37 5 -21
9 -42 11 -48 1 -5 5 -30 9 -55 4 -24 8 -47 10 -51 2 -3 7 -20 10 -37 3 -18 7
-47 11 -64 3 -18 9 -52 15 -76 5 -23 11 -58 14 -77 2 -20 7 -40 10 -45 3 -5
-19 2 -49 16 -56 26 -141 39 -329 53 -60 5 -113 13 -119 19 -8 8 6 31 48 82
32 39 79 99 103 133 93 131 191 247 209 247 7 0 10 -4 7 -10z m-2236 -10 c10
-5 38 -10 62 -11 58 -3 72 -8 60 -23 -15 -18 -89 -239 -100 -299 -5 -30 -16
-69 -23 -87 l-14 -33 -58 69 c-32 38 -107 121 -167 184 -123 132 -154 169
-145 177 22 23 349 43 385 23z m1558 -4 c31 4 32 2 52 -63 12 -36 21 -74 21
-84 0 -9 3 -19 8 -21 18 -8 90 -228 75 -228 -3 0 -38 12 -77 26 -45 16 -102
28 -157 31 l-86 6 8 41 c4 22 16 61 27 86 10 25 31 85 46 133 20 64 31 86 39
79 7 -5 26 -8 44 -6z m-2020 -56 c14 -29 74 -99 198 -230 50 -53 114 -122 143
-155 l53 -60 -63 -8 c-81 -10 -224 -34 -366 -62 -62 -12 -115 -18 -117 -15
-11 18 32 291 51 321 3 5 7 19 9 31 3 12 14 51 25 85 11 34 20 66 19 70 -1 5
-1 18 0 31 1 31 31 26 48 -8z m1441 -154 c15 -7 49 -24 75 -37 66 -33 84 -43
105 -62 10 -10 23 -17 29 -17 5 0 20 -11 33 -25 13 -14 28 -25 34 -25 5 0 20
-10 33 -22 20 -19 33 -21 120 -20 54 0 116 -3 138 -8 65 -13 176 -58 200 -80
40 -38 112 -198 130 -290 9 -47 21 -93 26 -102 5 -10 9 -33 9 -52 0 -34 11
-48 39 -52 32 -5 183 -162 215 -224 16 -30 31 -57 35 -60 3 -3 12 -15 19 -28
15 -26 0 -102 -40 -202 -27 -67 -103 -189 -123 -196 -20 -8 -19 -55 5 -189 20
-109 26 -244 14 -304 -5 -25 -16 -36 -53 -55 -25 -13 -93 -47 -151 -76 -141
-71 -228 -127 -236 -153 -11 -38 -140 -250 -177 -292 l-35 -40 -108 1 c-77 0
-124 6 -159 18 -53 19 -182 54 -228 63 -17 3 -34 0 -45 -10 -9 -8 -35 -20 -57
-27 -22 -7 -64 -21 -93 -32 -36 -12 -83 -18 -145 -19 -51 0 -101 -4 -112 -8
-37 -14 -185 138 -289 296 -22 34 -35 43 -67 48 -60 10 -152 49 -201 84 -116
84 -133 99 -136 119 -2 12 -7 22 -11 22 -17 0 -34 150 -26 237 4 49 9 114 11
145 2 32 6 73 9 91 6 28 3 35 -13 39 -10 3 -30 27 -44 54 -14 27 -39 76 -56
109 -17 33 -38 98 -47 145 -10 47 -24 89 -32 96 -13 9 -13 14 -3 35 29 53 99
139 192 234 106 107 104 104 128 250 6 39 19 84 28 101 9 17 30 55 46 85 29
57 33 60 146 104 61 24 195 46 270 44 97 -2 150 3 150 15 0 26 173 162 219
172 57 12 152 57 163 78 10 19 27 35 36 36 2 0 16 -6 30 -14z m990 -322 c162
-7 278 -28 347 -62 l56 -28 -68 -55 c-37 -30 -111 -84 -163 -119 -52 -36 -97
-67 -100 -70 -3 -3 -17 -13 -31 -22 l-26 -17 -18 57 c-33 108 -35 119 -35 145
0 14 -18 60 -40 102 -22 42 -40 78 -40 81 0 3 9 2 21 -1 11 -4 55 -9 97 -11z
m-2058 -64 c0 -5 -13 -31 -29 -57 -34 -55 -71 -163 -71 -205 0 -16 -5 -28 -13
-28 -7 0 -62 29 -121 64 -114 68 -187 100 -248 111 -35 5 -56 20 -45 31 11 12
123 36 225 49 62 8 117 17 122 20 28 17 180 30 180 15z m2500 -107 c0 -47 -70
-318 -102 -393 -54 -128 -59 -132 -88 -73 -14 27 -61 84 -107 128 l-82 80 24
18 c13 9 28 17 32 17 5 0 16 9 26 20 9 11 24 20 32 20 8 0 15 4 15 9 0 8 49
43 85 61 6 3 20 13 30 23 34 31 120 96 128 96 4 1 7 -2 7 -6z m-3005 -84 c55
-10 175 -67 274 -129 36 -22 74 -40 85 -40 15 0 -5 -25 -75 -97 -53 -54 -113
-125 -134 -157 -37 -56 -39 -58 -46 -34 -6 22 -30 81 -80 193 -63 144 -79 187
-79 216 0 18 -8 41 -17 52 -17 20 -17 20 2 13 11 -4 43 -12 70 -17z m3097 -2
c7 -8 30 -19 49 -26 20 -6 45 -20 56 -30 11 -10 29 -22 41 -25 12 -4 22 -12
22 -17 0 -5 5 -9 10 -9 10 0 70 -56 70 -66 0 -7 101 -103 128 -121 l22 -16
-24 -12 c-13 -7 -44 -16 -68 -20 -24 -3 -55 -11 -69 -16 -14 -6 -106 -25 -205
-43 -98 -18 -187 -36 -196 -40 -12 -6 -5 18 28 95 40 93 71 198 90 304 10 60
19 68 46 42z m-3212 -127 c0 -11 10 -36 21 -57 12 -21 27 -54 34 -73 7 -19 22
-57 35 -85 12 -27 26 -60 31 -72 23 -59 32 -79 40 -95 5 -10 9 -21 9 -26 0 -9
-146 2 -212 17 -26 6 -83 13 -125 16 -182 12 -239 17 -261 22 -23 5 -22 7 15
42 21 20 70 63 108 96 38 33 80 71 94 85 24 24 117 101 172 142 25 20 39 15
39 -12z m4812 -294 c27 -44 48 -81 48 -83 0 -3 8 -17 19 -31 10 -15 29 -47 43
-72 14 -25 35 -61 46 -80 12 -19 34 -57 49 -85 15 -27 35 -62 43 -77 17 -30
119 -204 163 -277 15 -25 32 -55 37 -66 6 -11 20 -36 32 -55 60 -100 68 -119
59 -142 -5 -13 -37 -51 -71 -83 -233 -222 -235 -224 -280 -255 -19 -13 -39
-30 -43 -38 -12 -19 -97 -114 -97 -107 0 3 -8 -3 -19 -12 -10 -10 -49 -45 -86
-78 -84 -75 -147 -137 -205 -204 -44 -49 -47 -50 -73 -39 -15 7 -27 16 -27 21
0 4 -6 7 -14 7 -8 0 -21 6 -28 13 -7 7 -20 16 -28 20 -8 4 -31 17 -50 28 -19
12 -56 33 -82 46 -27 14 -48 27 -48 29 0 10 79 84 90 84 6 0 9 4 5 10 -3 5 8
16 25 25 16 8 30 22 30 30 0 8 7 15 14 15 8 0 28 11 43 25 15 14 33 29 38 33
6 5 28 31 50 57 22 27 46 54 53 61 6 7 12 15 12 17 0 3 20 26 45 51 25 26 45
49 45 51 0 3 41 45 90 94 50 49 90 96 90 104 0 9 13 28 29 44 36 36 32 72 -11
108 -16 14 -30 35 -31 47 -3 22 -43 107 -56 118 -3 3 -8 14 -9 25 -9 54 -61
132 -78 117 -4 -4 -4 -1 0 6 5 8 -2 22 -18 37 -14 13 -26 29 -26 35 0 12 -20
49 -37 67 -7 8 -15 29 -19 48 -3 19 -10 33 -14 30 -4 -3 -11 10 -14 28 -8 44
-41 108 -51 99 -4 -4 -5 3 -1 14 4 13 1 27 -7 35 -16 17 -41 99 -32 107 4 4
11 8 16 8 5 1 10 2 12 4 3 2 26 7 72 14 99 15 173 35 181 47 12 19 31 0 76
-75z m-1109 24 c23 -18 25 -24 16 -48 -6 -15 -16 -34 -23 -42 -7 -8 -28 -55
-46 -105 -18 -49 -41 -99 -50 -110 -9 -11 -27 -46 -40 -78 -13 -32 -41 -77
-62 -100 -22 -23 -47 -54 -56 -70 -21 -35 -34 -30 -51 22 -8 25 -38 69 -75
109 -33 37 -97 110 -140 162 -44 52 -89 105 -100 118 -12 13 -16 23 -11 21 6
-1 17 0 25 3 67 23 84 27 92 22 5 -3 15 0 23 6 8 6 18 9 22 7 7 -5 125 15 158
26 6 2 28 7 50 12 22 4 45 11 50 15 10 8 102 30 142 33 12 1 25 5 29 10 11 11
19 9 47 -13z m598 -75 c9 6 13 -8 10 -32 -1 -7 3 -13 9 -13 5 0 10 -9 10 -20
0 -11 5 -20 10 -20 6 0 10 -11 10 -24 0 -13 7 -26 15 -30 8 -3 14 -9 13 -13
-4 -16 14 -73 23 -73 5 0 9 -12 9 -26 0 -16 4 -23 11 -18 8 4 9 0 4 -15 -3
-11 -2 -21 2 -21 5 0 15 -16 22 -35 7 -19 16 -35 21 -35 5 0 11 -14 15 -30 4
-17 15 -35 26 -40 10 -6 19 -17 19 -24 0 -8 6 -16 13 -19 13 -5 33 -41 62
-112 9 -22 20 -47 25 -55 14 -22 43 -83 46 -97 1 -7 12 -26 24 -43 12 -16 17
-30 11 -30 -6 0 -11 -7 -11 -14 0 -20 -83 -112 -154 -171 -20 -16 -36 -34 -36
-38 0 -5 -17 -26 -37 -46 -21 -21 -45 -48 -53 -61 -21 -31 -158 -170 -198
-200 -19 -14 -51 -42 -73 -63 -21 -21 -39 -35 -39 -32 0 3 -11 -6 -24 -22 -22
-26 -25 -27 -43 -12 -10 9 -24 14 -30 12 -7 -3 -13 0 -13 5 0 5 -10 13 -22 16
-13 3 -43 24 -67 46 -25 22 -49 40 -54 40 -10 0 -61 51 -97 99 -35 45 -130
211 -130 226 0 7 -9 24 -21 39 -17 22 -22 45 -25 114 -2 48 -6 111 -9 141 -3
37 2 69 15 104 11 27 17 54 14 59 -3 4 0 8 7 8 7 0 10 3 6 6 -6 6 27 109 41
128 5 6 17 31 26 55 19 50 72 129 99 149 10 8 30 25 45 39 38 35 112 86 112
76 0 -4 15 8 33 28 34 38 87 69 119 69 10 0 32 7 48 15 17 9 30 13 30 10 0 -4
5 -3 12 1 6 4 29 9 51 10 22 2 42 6 46 10 3 3 7 -1 9 -10 2 -9 8 -14 13 -11z
m-5746 -46 c10 0 24 -4 30 -8 11 -9 134 -31 180 -32 17 -1 43 -3 58 -6 27 -5
27 -6 12 -23 -9 -10 -18 -24 -19 -32 -4 -26 -84 -185 -135 -267 -28 -46 -51
-92 -51 -100 0 -9 -7 -27 -16 -39 -8 -12 -13 -22 -10 -22 2 0 -5 -24 -16 -52
-10 -29 -21 -57 -22 -63 -7 -23 -47 -114 -101 -230 -13 -28 -25 -70 -28 -93
-2 -23 -9 -48 -15 -54 -7 -7 -12 -16 -12 -22 0 -10 59 -66 71 -66 11 0 149
-139 149 -150 0 -6 6 -10 13 -10 7 0 21 -13 30 -30 10 -16 23 -27 30 -24 7 2
22 -4 32 -16 10 -11 24 -20 32 -20 15 0 223 -205 223 -220 0 -6 7 -10 15 -10
8 0 19 -10 26 -22 6 -11 22 -31 35 -43 30 -28 30 -39 2 -53 -24 -12 -44 -24
-89 -54 -14 -10 -29 -15 -33 -11 -3 3 -6 2 -6 -4 0 -6 -16 -23 -35 -37 -34
-26 -35 -26 -62 -9 -16 9 -38 26 -50 38 -12 11 -36 31 -54 45 -17 14 -47 39
-65 55 -19 17 -46 40 -61 52 -16 13 -43 35 -61 50 -18 16 -47 39 -64 53 -73
60 -92 77 -124 105 -19 17 -48 41 -65 55 -17 14 -43 35 -57 47 -15 12 -84 69
-154 127 -69 58 -129 110 -133 115 -7 12 24 108 46 142 9 13 39 74 68 134 30
61 60 118 69 128 8 9 12 17 8 17 -3 0 7 19 24 42 16 22 30 47 30 53 0 17 57
140 88 189 13 21 25 46 27 57 2 10 23 46 46 81 24 35 42 64 41 66 -2 1 6 23
18 48 11 26 20 51 20 56 0 6 7 26 17 45 15 31 19 34 47 29 17 -4 40 -7 51 -7z
m1225 -63 c52 -3 106 -7 120 -10 14 -2 39 -7 56 -10 59 -11 109 -16 156 -17
l47 -1 -67 -77 c-69 -77 -104 -129 -193 -280 -34 -58 -47 -91 -43 -105 3 -12
-3 -8 -15 12 -11 17 -25 32 -30 32 -5 0 -35 39 -66 88 -32 48 -66 99 -76 114
-11 15 -19 32 -19 38 0 6 -11 28 -25 50 -14 22 -25 47 -25 56 0 8 -7 22 -15
30 -8 9 -15 24 -15 35 0 10 -4 19 -10 19 -5 0 -14 9 -20 20 -10 19 -8 20 67
15 43 -2 121 -7 173 -9z m3265 -42 c15 -19 41 -51 59 -69 17 -18 47 -52 66
-75 19 -23 58 -66 85 -96 81 -89 86 -118 18 -98 -27 7 -130 17 -230 21 l-182
8 30 48 c34 55 80 169 100 245 7 28 16 52 20 52 4 0 19 -16 34 -36z m-3901 -3
c26 -12 52 -19 57 -15 11 6 92 -34 145 -72 72 -52 194 -157 194 -166 0 -4 11
-13 24 -19 24 -11 52 -57 72 -119 4 -14 6 -27 5 -29 -2 -2 1 -7 6 -10 5 -3 20
-28 32 -54 18 -36 24 -72 28 -150 8 -152 8 -155 -1 -247 -11 -114 -73 -249
-153 -338 -13 -14 -23 -32 -23 -41 -1 -16 -64 -91 -78 -91 -4 0 -27 -18 -52
-40 -25 -22 -53 -40 -62 -40 -10 0 -18 -4 -18 -10 0 -5 -7 -10 -15 -10 -8 0
-24 -9 -34 -19 -37 -37 -54 -41 -81 -17 -14 11 -33 34 -43 49 -10 15 -22 25
-26 22 -5 -2 -14 9 -21 25 -7 16 -21 32 -31 35 -10 4 -19 10 -19 14 0 23 -180
181 -206 181 -15 0 -214 196 -214 211 0 5 -6 9 -14 9 -8 0 -24 11 -35 25 l-20
26 24 67 c13 37 40 100 59 140 20 40 36 78 36 85 0 7 4 17 10 23 5 5 11 18 13
29 2 11 8 31 14 45 25 60 53 136 53 144 0 5 7 17 16 27 8 9 16 23 18 31 1 7
12 28 24 45 12 17 22 34 22 37 0 3 13 27 29 55 16 27 27 51 25 54 -2 2 2 10
11 17 8 7 15 19 15 27 0 8 10 32 23 54 l22 41 60 -6 c33 -2 82 -14 109 -25z
m1110 -96 c6 -44 28 -96 87 -209 10 -17 15 -34 13 -38 -2 -3 -23 -9 -47 -13
-23 -4 -46 -11 -52 -15 -5 -4 -26 -11 -45 -15 -38 -7 -122 -31 -155 -44 -58
-23 -145 -49 -145 -44 0 4 6 14 14 22 8 9 26 39 41 66 14 28 35 64 45 80 11
17 27 43 36 59 21 37 33 52 67 84 15 15 27 30 27 35 0 16 95 102 101 92 4 -5
10 -32 13 -60z m2883 -304 c72 -5 121 -14 136 -24 13 -8 34 -17 47 -19 32 -4
36 -22 7 -35 -12 -6 -53 -33 -89 -61 -37 -27 -113 -76 -170 -107 -57 -32 -116
-70 -133 -85 -16 -15 -40 -33 -53 -39 l-23 -12 6 58 c6 53 -18 303 -31 324 -6
11 152 11 303 0z m-2752 -118 c-9 -128 -9 -136 2 -234 l9 -76 -31 19 c-16 10
-48 23 -70 29 -22 6 -71 27 -110 46 -38 20 -87 45 -108 55 -21 10 -55 34 -75
52 -20 18 -48 40 -61 49 -23 15 -23 17 -5 23 10 3 36 12 57 20 20 8 46 14 57
14 11 0 20 4 20 9 0 5 12 11 28 14 15 3 59 15 97 27 39 12 94 26 123 32 28 6
52 15 52 20 0 4 5 8 11 8 8 0 9 -30 4 -107z m3020 -66 c1 -7 10 -30 20 -52 21
-46 52 -170 60 -235 3 -25 8 -56 10 -70 3 -14 7 -58 10 -98 3 -40 10 -84 15
-98 6 -15 6 -24 0 -24 -20 0 -111 49 -172 93 -65 46 -120 73 -223 112 -77 29
-215 96 -215 105 0 4 11 12 24 18 13 6 39 24 57 40 19 16 61 44 94 61 114 60
150 82 180 110 17 16 50 40 75 54 46 27 56 24 65 -16z m-3448 -110 c10 -13 39
-33 65 -46 27 -12 50 -27 54 -32 3 -5 13 -9 23 -9 10 0 24 -7 31 -15 6 -8 15
-14 18 -13 4 1 27 -8 52 -18 25 -11 64 -26 88 -34 74 -23 72 -32 -25 -93 -48
-31 -92 -59 -98 -64 -14 -11 -152 -106 -173 -118 -9 -5 -30 -20 -46 -33 -28
-22 -89 -52 -108 -52 -6 0 -8 45 -4 118 7 173 20 261 45 327 13 33 27 70 32
83 11 28 23 28 46 -1z m2863 -347 c17 -135 20 -315 7 -362 l-10 -36 -125 126
c-155 157 -223 232 -217 242 5 9 187 100 200 100 4 0 23 11 41 25 18 14 43 29
56 34 30 11 33 4 48 -129z m178 50 c60 -27 113 -50 119 -50 20 0 141 -64 208
-110 39 -27 89 -56 113 -65 23 -10 42 -21 42 -25 0 -10 -46 -34 -125 -65 -33
-12 -73 -29 -90 -35 -16 -7 -39 -15 -49 -17 -11 -2 -25 -8 -33 -14 -7 -6 -13
-8 -13 -4 0 4 -7 2 -15 -5 -8 -7 -15 -9 -15 -6 0 4 -10 0 -22 -8 -12 -9 -28
-16 -35 -16 -6 0 -24 -5 -40 -11 -15 -6 -30 -11 -33 -11 -3 0 -16 -5 -30 -10
-14 -5 -40 -11 -59 -14 -29 -4 -32 -2 -25 13 15 33 15 274 -1 381 -16 112 -17
122 -10 122 2 0 53 -22 113 -50z m-2599 -27 c-5 -32 -6 -80 -4 -108 3 -27 7
-114 10 -193 3 -78 8 -154 11 -167 6 -23 3 -25 -24 -25 -59 0 -163 31 -264 79
-100 47 -207 92 -257 106 l-24 7 24 19 c13 10 30 19 38 19 7 0 33 14 58 30 24
17 46 30 49 30 3 0 10 4 17 10 57 46 76 60 85 60 6 0 12 3 14 8 2 4 23 20 48
37 25 16 47 33 50 36 3 3 25 18 50 32 25 15 59 38 75 51 46 39 53 34 44 -31z
m154 -22 c35 -26 96 -61 136 -76 39 -16 71 -29 71 -31 0 -1 -26 -36 -58 -76
-94 -119 -146 -198 -167 -254 -42 -113 -53 -68 -59 249 -3 139 -2 237 4 237 5
0 38 -22 73 -49z m1900 -133 c19 -24 98 -107 176 -185 77 -79 141 -148 141
-153 0 -13 -91 -5 -195 17 -38 8 -105 19 -147 23 -71 8 -115 18 -176 41 -23 9
-23 9 21 72 45 63 113 178 123 210 9 25 18 21 57 -25z m-1543 -98 c35 -47 90
-111 124 -142 58 -56 59 -58 33 -58 -16 0 -60 -7 -100 -15 -40 -9 -97 -20
-127 -26 -30 -7 -82 -18 -114 -26 -33 -8 -75 -12 -94 -8 -30 6 -33 9 -27 32 7
31 69 124 140 213 29 36 60 80 70 99 9 18 20 29 24 25 5 -5 36 -47 71 -94z
m869 -171 c20 -6 54 -18 76 -25 23 -8 75 -14 118 -14 42 0 77 -3 77 -6 0 -3
-10 -19 -21 -36 -12 -16 -29 -45 -38 -63 -19 -39 -123 -176 -167 -219 -17 -17
-47 -44 -67 -59 -25 -19 -37 -36 -38 -55 -3 -50 -36 186 -52 367 l-12 138 44
-9 c25 -4 61 -13 80 -19z m-184 -81 c3 -51 12 -142 20 -203 18 -146 23 -194
18 -173 -2 10 -34 43 -71 74 -96 81 -161 144 -207 200 -53 65 -95 121 -95 128
0 3 33 6 73 6 53 1 95 8 157 30 47 16 88 29 91 29 4 1 10 -41 14 -91z m2026
49 c62 -3 98 -10 125 -24 22 -11 57 -26 79 -33 22 -7 46 -19 53 -27 7 -7 20
-13 28 -13 8 0 14 -4 14 -10 0 -5 6 -10 14 -10 7 0 16 -9 19 -20 3 -11 1 -20
-5 -20 -5 0 -8 -10 -7 -22 2 -13 0 -29 -5 -36 -4 -7 -5 -19 -3 -27 3 -7 -1
-16 -9 -19 -9 -3 -13 -10 -10 -15 6 -9 -7 -56 -30 -108 -8 -17 -14 -40 -14
-52 0 -12 -5 -21 -11 -21 -6 0 -9 -6 -6 -14 3 -8 3 -17 -1 -20 -7 -7 -8 -14
-17 -71 -4 -22 -9 -47 -12 -55 -3 -8 -7 -49 -8 -92 -2 -42 -8 -85 -14 -96 -6
-11 -8 -28 -4 -38 5 -13 3 -15 -7 -9 -10 6 -12 3 -8 -13 4 -12 2 -22 -3 -22
-5 0 -9 -10 -9 -22 0 -13 -7 -42 -15 -65 -8 -23 -16 -56 -17 -72 -2 -30 -27
-49 -75 -58 -65 -11 -83 -13 -138 -18 -33 -2 -73 -7 -90 -10 -16 -3 -49 -7
-73 -9 -24 -3 -57 -8 -75 -12 -35 -8 -44 -10 -132 -19 -48 -5 -147 -7 -210 -4
-5 1 -38 -2 -71 -5 -61 -6 -62 -6 -69 22 -3 15 -19 54 -34 87 -16 34 -29 79
-30 104 0 25 -8 52 -16 61 -32 36 6 368 55 476 21 45 57 100 88 132 7 8 19 27
27 42 19 37 176 146 277 195 43 20 79 35 81 33 2 -2 11 3 20 11 10 7 17 11 17
8 0 -3 18 1 41 7 38 11 77 12 290 3z m-1350 -46 c35 -11 100 -24 144 -30 44
-6 118 -17 165 -26 47 -8 111 -15 143 -15 31 0 57 -4 57 -9 0 -5 -7 -25 -15
-45 -8 -20 -13 -36 -10 -36 4 0 -1 -10 -9 -22 -9 -12 -16 -30 -16 -38 0 -36
-70 -155 -126 -214 -6 -7 -19 -25 -28 -41 -9 -17 -25 -43 -36 -60 -11 -16 -30
-50 -42 -75 -19 -38 -24 -41 -26 -22 -2 12 -7 22 -12 22 -13 0 -46 68 -54 112
-6 33 -31 98 -71 183 -15 31 -50 114 -109 253 -19 45 -31 82 -26 82 4 0 36 -9
71 -19z m-1151 -36 c0 -8 -18 -68 -41 -132 -22 -65 -50 -152 -60 -193 -69
-266 -73 -277 -94 -260 -30 25 -295 471 -295 497 0 8 12 13 31 13 17 0 57 6
88 14 124 30 311 69 364 75 4 1 7 -6 7 -14z m1044 -58 c16 -39 62 -146 102
-237 39 -91 76 -185 82 -210 5 -25 13 -52 16 -61 6 -13 -16 -11 -136 17 -79
18 -172 44 -207 59 -36 14 -70 25 -76 25 -7 0 -20 8 -29 19 -9 10 -35 21 -56
24 -22 3 -47 12 -56 22 -16 15 -15 17 6 32 68 48 197 202 250 298 22 40 59 85
69 85 3 0 19 -33 35 -73z m-909 -5 c66 -90 116 -143 228 -240 l99 -84 -44 -30
c-95 -64 -229 -117 -411 -163 -32 -8 -71 -22 -87 -30 l-28 -15 13 38 c26 73
45 141 45 164 0 12 24 95 54 183 30 88 60 180 66 204 6 23 13 41 15 40 2 -2
24 -33 50 -67z m-973 -10 c99 -50 125 -69 192 -140 105 -109 182 -222 207
-302 11 -36 25 -108 30 -160 4 -52 11 -115 15 -139 7 -48 -6 -121 -38 -216
-11 -33 -25 -80 -31 -105 -6 -25 -15 -48 -20 -51 -8 -6 -57 -4 -147 6 -92 10
-115 13 -115 15 0 1 -25 5 -55 7 -108 8 -120 10 -126 16 -4 3 -14 2 -23 -3
-10 -5 -23 -5 -30 -1 -14 9 -70 5 -103 -8 -13 -5 -50 -6 -83 -4 -33 2 -68 4
-77 4 -10 0 -20 4 -23 10 -4 5 -13 5 -24 -1 -10 -5 -20 -8 -22 -6 -2 2 -19 6
-37 9 -19 3 -36 8 -38 10 -3 3 -21 1 -40 -3 -30 -7 -36 -5 -52 19 -10 14 -33
76 -51 136 -51 172 -52 176 -81 255 -15 41 -33 91 -39 110 -7 19 -19 67 -27
105 -16 81 -52 250 -60 282 -5 18 2 26 42 45 27 13 68 38 92 55 24 18 67 39
95 49 29 9 59 23 67 30 14 12 68 26 145 38 17 2 101 3 187 1 l157 -4 113 -59z
m3870 -72 c29 -17 60 -35 68 -40 8 -6 25 -14 37 -19 11 -6 24 -14 27 -20 4 -6
13 -8 21 -4 8 3 15 1 15 -5 0 -6 14 -13 30 -17 29 -6 31 -9 25 -43 -7 -40 -10
-57 -19 -117 -4 -22 -10 -53 -13 -70 -4 -16 -7 -37 -9 -45 -8 -54 -29 -177
-39 -220 -3 -14 -8 -47 -11 -75 -4 -27 -8 -53 -10 -56 -2 -4 -6 -24 -9 -45 -3
-22 -11 -64 -16 -94 -6 -30 -12 -68 -14 -83 -2 -15 -9 -54 -15 -85 -6 -31 -13
-70 -15 -85 -2 -15 -9 -54 -16 -85 -6 -31 -11 -62 -12 -69 0 -15 -23 -26 -57
-29 -14 -1 -25 -3 -25 -4 0 -2 -39 -4 -86 -5 -47 -1 -90 -4 -95 -7 -5 -3 -76
-6 -159 -7 -131 -1 -190 -5 -190 -11 0 -2 -140 -9 -315 -15 -69 -2 -136 -7
-150 -10 -14 -4 -48 -9 -75 -12 l-51 -5 -17 38 c-9 22 -25 71 -37 111 -11 39
-27 84 -35 99 -8 16 -12 30 -10 33 3 2 32 5 65 6 33 1 63 4 66 8 3 3 19 1 35
-3 18 -5 29 -5 29 1 0 6 5 7 12 3 12 -8 80 -7 148 1 25 3 61 7 81 9 20 2 42 6
48 10 6 4 26 9 44 12 18 2 52 7 77 10 25 3 68 8 95 10 117 9 177 19 206 34 10
6 31 10 48 10 32 0 39 15 47 99 4 44 32 160 45 183 5 10 9 27 9 37 0 11 5 23
11 26 6 4 8 13 5 20 -2 7 -2 16 2 20 3 3 7 43 7 88 1 81 25 199 50 247 11 23
27 78 26 97 0 5 8 16 16 26 9 9 13 20 10 23 -3 4 0 21 8 39 7 19 11 36 8 39
-3 3 0 12 6 20 7 8 10 20 6 26 -6 9 1 30 10 30 2 0 28 -14 57 -30z m-4843
-306 c12 -44 21 -96 21 -115 0 -19 13 -72 29 -119 16 -47 45 -130 64 -185 19
-55 45 -138 57 -185 13 -47 33 -104 46 -127 13 -23 24 -51 24 -62 0 -32 56
-45 101 -24 15 7 30 9 33 5 4 -4 19 -8 34 -9 121 -10 180 -14 194 -14 10 0 20
-5 23 -10 4 -5 11 -6 17 -3 10 6 42 13 76 16 6 1 12 4 12 7 0 4 21 5 48 4 93
-6 168 -13 202 -18 92 -15 213 -28 261 -29 l46 0 -33 -100 c-19 -56 -36 -113
-39 -128 l-5 -28 -594 0 c-463 0 -596 3 -603 13 -13 18 -30 73 -43 142 -6 33
-20 89 -30 125 -10 36 -28 116 -39 179 -11 62 -24 119 -29 125 -9 12 -27 87
-38 155 -3 24 -13 59 -20 77 -8 18 -14 51 -14 74 0 22 -16 87 -35 144 -19 58
-35 111 -35 119 0 8 51 41 113 74 l112 60 12 -41 c6 -23 21 -77 32 -122z
m2483 -129 c128 -13 282 -68 349 -122 66 -54 94 -79 98 -86 5 -12 43 -49 78
-75 17 -13 43 -47 59 -75 15 -29 35 -68 46 -87 10 -19 18 -42 18 -52 0 -9 5
-20 11 -23 6 -4 8 -13 5 -20 -2 -7 4 -22 14 -33 22 -24 45 -95 37 -116 -3 -8
-46 -41 -94 -72 -226 -147 -263 -174 -330 -242 -65 -66 -98 -92 -232 -181 -20
-13 -48 -35 -63 -48 -36 -34 -64 -26 -178 50 -86 57 -274 173 -345 213 -16 9
-73 53 -125 96 -52 44 -113 92 -136 107 -23 15 -56 39 -73 54 l-33 27 21 33
c11 19 26 58 32 88 12 58 30 99 60 138 11 13 19 33 19 43 0 26 32 70 95 133
58 59 171 157 180 155 3 0 20 10 38 23 17 14 46 27 62 30 44 7 142 27 205 41
55 13 74 13 182 1z m795 -865 c4 -8 7 -17 8 -20 7 -20 19 -46 24 -50 3 -3 14
-20 24 -39 15 -29 16 -36 4 -48 -7 -8 -214 -182 -458 -387 l-444 -373 -49 24
c-27 14 -55 30 -61 37 -7 6 -29 25 -49 41 -21 17 -47 38 -58 47 -11 10 -29 20
-39 23 -11 4 -19 11 -19 17 0 6 -3 8 -7 5 -3 -4 -15 3 -27 16 -12 12 -41 38
-66 57 -25 19 -47 38 -48 43 -2 4 -22 17 -45 28 -22 12 -46 26 -53 33 -6 6
-22 18 -34 26 -13 8 -37 28 -54 43 -17 16 -44 35 -61 44 -16 9 -51 36 -78 61
-46 45 -79 67 -161 113 -68 37 -71 43 -51 97 9 26 25 65 35 87 9 22 23 58 31
80 7 22 14 41 15 43 4 8 192 -129 264 -195 55 -49 70 -59 205 -136 39 -22 129
-79 201 -127 72 -48 144 -90 160 -94 16 -4 37 -14 46 -23 20 -18 46 -7 76 32
19 24 52 48 189 140 34 22 80 63 102 90 42 51 106 99 331 248 l125 83 8 -26
c5 -14 11 -32 14 -40z"/>






</g>
</svg>
