<?xml version="1.0" standalone="no"?>
<!DOCTYPE svg PUBLIC "-//W3C//DTD SVG 20010904//EN"
 "http://www.w3.org/TR/2001/REC-SVG-20010904/DTD/svg10.dtd">
<svg version="1.0" xmlns="http://www.w3.org/2000/svg"
 width="1000.000000pt" height="1000.000000pt" viewBox="0 0 1000.000000 1000.000000"
 preserveAspectRatio="xMidYMid meet">
<metadata>
Created by potrace 1.15, written by Peter Selinger 2001-2017
</metadata>
<g transform="translate(0.000000,1000.000000) scale(0.100000,-0.100000)"
fill="#000000" stroke="none">
<path fill="#20ab81" d="M5474 8303 c-13 -6 -24 -9 -24 -6 0 3 -7 0 -15 -7 -8 -7 -15 -9 -15
-5 0 4 -6 2 -14 -4 -15 -13 -176 -62 -176 -54 0 3 -7 0 -15 -7 -8 -7 -15 -9
-15 -5 0 4 -7 2 -15 -5 -8 -7 -15 -9 -15 -5 0 4 -7 2 -15 -5 -8 -7 -15 -9 -15
-5 0 4 -7 2 -15 -5 -8 -7 -15 -9 -15 -5 0 4 -6 2 -13 -4 -8 -6 -22 -12 -33
-14 -10 -1 -23 -5 -29 -8 -10 -6 -52 -18 -95 -26 -13 -2 -30 -9 -37 -15 -7 -6
-13 -8 -13 -5 0 5 -119 -32 -160 -50 -58 -25 -110 -39 -110 -29 0 17 -33 -22
-36 -41 -1 -10 -4 -40 -8 -68 -10 -77 -9 -182 3 -203 8 -15 7 -29 -4 -56 -8
-19 -12 -43 -9 -53 11 -33 74 -157 114 -223 22 -36 55 -97 75 -137 42 -86 73
-113 202 -178 54 -26 107 -57 119 -67 39 -35 149 -56 326 -64 l167 -7 63 33
c228 117 378 231 413 314 8 17 34 52 59 78 25 25 48 58 52 72 3 14 10 26 14
26 15 0 18 41 4 53 -48 41 -164 158 -164 165 0 16 -83 137 -122 178 -21 21
-38 43 -38 48 0 5 -15 23 -33 40 -31 29 -74 89 -141 195 -16 25 -41 64 -55 86
-15 22 -33 52 -41 68 -11 23 -19 27 -48 25 -19 -1 -45 -8 -58 -15z"/>
<path fill="#20ab81" d="M3280 8293 c0 -5 -8 -18 -17 -29 -10 -10 -32 -47 -49 -81 -31 -60
-82 -135 -96 -141 -5 -2 -8 -9 -8 -15 0 -11 -45 -81 -67 -105 -7 -7 -13 -20
-13 -27 0 -7 -11 -27 -25 -43 -14 -17 -25 -35 -25 -41 0 -6 -3 -11 -8 -11 -4
0 -16 -17 -27 -37 -11 -21 -27 -46 -37 -56 -9 -11 -27 -40 -40 -65 -12 -26
-25 -49 -28 -52 -14 -14 -60 -91 -60 -101 0 -6 -6 -9 -14 -6 -10 4 -15 -4 -18
-24 -3 -20 0 -29 9 -29 7 0 13 -4 13 -10 0 -30 138 -200 162 -200 4 0 14 -15
22 -32 7 -18 24 -43 37 -55 24 -21 179 -103 196 -103 5 0 20 -12 34 -26 51
-56 94 -66 257 -59 102 4 177 13 247 30 55 13 117 26 137 30 21 3 50 16 65 28
41 34 83 59 83 50 0 -5 -18 -18 -40 -31 -23 -13 -40 -28 -38 -35 1 -7 -6 -29
-15 -51 -14 -32 -21 -38 -42 -34 -16 3 -30 -1 -42 -14 -9 -10 -22 -17 -29 -14
-7 3 -24 -4 -37 -15 -14 -10 -39 -19 -57 -19 -17 0 -29 -3 -27 -8 3 -4 -18 -8
-46 -10 -29 -1 -88 -7 -132 -13 -44 -6 -145 -12 -225 -14 -135 -2 -145 -4
-160 -24 -8 -12 -27 -37 -41 -56 -17 -22 -29 -54 -33 -87 -4 -29 -16 -66 -26
-83 -27 -43 -50 -143 -50 -214 0 -34 -9 -101 -19 -149 -11 -48 -23 -115 -27
-149 -3 -35 -10 -63 -14 -63 -3 0 -26 -18 -51 -40 -24 -22 -52 -42 -61 -45 -9
-3 -56 -45 -105 -94 -48 -48 -110 -105 -138 -126 -27 -21 -76 -65 -107 -97
-31 -32 -62 -58 -69 -58 -7 0 -9 -9 -5 -25 3 -14 9 -37 12 -52 4 -16 15 -40
25 -55 11 -14 19 -30 19 -35 0 -4 7 -21 16 -38 9 -16 23 -50 31 -75 8 -25 24
-57 34 -71 10 -14 21 -38 25 -53 3 -15 13 -30 20 -33 8 -3 14 -11 14 -19 0 -8
5 -14 10 -14 6 0 10 -7 10 -15 0 -9 7 -18 15 -21 8 -4 15 -12 15 -20 0 -13 29
-106 35 -112 2 -2 12 1 23 7 18 9 25 6 50 -27 24 -30 27 -40 18 -54 -8 -13 -7
-24 5 -45 9 -16 14 -34 12 -40 -3 -7 0 -13 5 -13 10 0 -7 -45 -29 -80 -37 -58
-40 -82 -42 -299 -2 -287 -4 -283 168 -356 33 -15 68 -30 77 -36 10 -5 27 -9
37 -9 11 0 23 -4 26 -10 3 -5 15 -10 25 -10 10 0 32 -12 47 -26 37 -34 70 -46
105 -39 20 5 39 0 66 -16 20 -12 50 -25 67 -28 32 -7 41 -26 25 -51 -8 -13
-14 -13 -42 -1 -74 30 -139 43 -258 51 -75 5 -143 15 -170 25 -53 20 -144 16
-181 -8 -23 -15 -163 -64 -197 -70 -34 -6 -208 -97 -238 -125 -43 -40 -46 -55
-18 -95 13 -20 24 -43 24 -51 0 -8 5 -18 10 -21 6 -3 10 -13 10 -22 0 -9 7
-24 16 -34 8 -9 17 -31 20 -48 2 -17 6 -43 8 -58 5 -31 51 -172 90 -274 14
-37 23 -69 20 -72 -3 -3 0 -15 6 -27 11 -21 17 -40 27 -90 2 -14 7 -32 10 -40
3 -8 7 -24 8 -35 2 -11 6 -33 10 -50 3 -16 7 -39 8 -50 5 -37 18 -63 35 -70 9
-4 76 -8 147 -10 169 -4 385 -13 505 -20 52 -3 142 -6 200 -6 58 -1 112 -5
121 -10 11 -6 21 -4 29 6 7 8 10 15 7 15 -3 0 6 21 20 48 66 121 68 126 83
312 6 69 12 147 15 174 2 27 0 68 -6 90 -5 23 -11 48 -13 57 -7 28 -49 123
-66 149 -21 31 -50 95 -50 108 0 11 -121 121 -207 189 -41 32 -42 45 -2 41 28
-3 33 1 43 28 8 22 16 29 26 25 35 -14 71 -46 91 -80 12 -20 37 -59 56 -88 18
-28 33 -56 33 -63 0 -10 37 -68 51 -80 3 -3 26 -38 50 -79 24 -40 52 -85 61
-100 10 -14 26 -42 37 -62 11 -20 32 -51 47 -68 24 -29 28 -30 48 -18 19 11
84 34 241 84 28 8 79 31 115 50 36 20 88 42 115 50 28 9 71 26 96 39 39 19 60
23 128 21 58 -1 81 -5 81 -14 0 -7 12 -15 28 -18 15 -4 47 -15 72 -25 52 -21
195 -69 225 -74 11 -2 43 -14 70 -26 28 -12 61 -23 75 -25 34 -5 207 -52 219
-60 18 -10 50 14 70 53 11 21 49 74 86 117 72 87 96 125 149 229 20 38 45 79
56 91 12 13 21 31 20 41 -5 46 1 84 16 96 43 35 54 50 48 61 -4 7 -4 9 1 5 4
-4 22 3 39 16 49 37 203 103 306 132 78 22 125 28 268 33 137 6 176 10 188 23
20 20 12 64 -22 113 l-24 36 32 28 33 29 30 -24 c16 -13 35 -28 40 -32 6 -4
48 -43 95 -85 46 -42 89 -77 95 -77 11 0 44 -22 76 -52 11 -10 30 -18 44 -18
14 0 25 -4 25 -9 0 -4 17 -8 37 -7 28 1 40 7 48 23 12 24 52 78 73 99 6 7 12
17 12 23 0 6 17 25 37 43 72 64 126 120 177 181 83 102 97 117 128 143 7 6 25
24 39 40 15 16 65 65 113 109 47 44 86 84 86 88 0 5 -11 23 -24 40 -13 18 -33
59 -45 92 -12 32 -42 87 -67 121 -24 35 -44 68 -44 74 0 6 -19 32 -43 58 -66
71 -83 101 -101 171 -9 35 -33 94 -53 130 -76 140 -77 142 -66 170 17 46 9 50
-85 45 -135 -7 -195 -18 -213 -40 -6 -8 -16 -14 -21 -14 -5 0 -74 -31 -153
-69 -175 -85 -196 -105 -300 -273 -5 -9 -24 -36 -40 -59 -17 -24 -34 -52 -37
-61 -6 -14 -11 -15 -32 -5 -29 14 -33 29 -11 47 8 7 15 21 15 31 0 11 4 19 8
19 4 0 21 26 37 58 16 31 41 78 56 104 31 53 79 167 79 188 0 8 12 26 26 41
35 37 26 61 -40 98 -29 17 -61 40 -72 52 -10 12 -48 41 -84 64 -60 40 -141
104 -112 90 27 -14 10 25 -21 49 -55 42 -80 31 -29 -12 32 -28 11 -19 -38 17
-79 56 -120 104 -120 138 0 18 -4 33 -9 33 -5 0 -9 6 -8 13 1 41 -3 46 -37 40
-31 -5 -36 -2 -50 25 -9 17 -16 48 -16 69 0 21 -5 56 -10 78 -10 46 -16 96
-26 210 -7 89 -30 195 -46 210 -8 7 -9 6 -4 -2 3 -6 3 -14 -2 -17 -4 -3 -17
27 -27 65 -13 47 -26 74 -40 82 -31 16 -315 21 -435 7 -58 -7 -144 -14 -192
-17 -81 -5 -86 -4 -93 16 -3 12 -14 22 -23 22 -9 1 -21 2 -27 4 -5 1 -16 3
-24 3 -7 1 -11 8 -7 17 3 9 -2 22 -12 31 -60 53 -98 84 -104 84 -5 0 -16 7
-25 15 -10 9 -41 34 -70 58 -88 71 -120 98 -140 115 -10 9 -40 28 -66 42 -26
13 -47 27 -47 30 0 3 -25 21 -55 39 -30 18 -55 37 -55 42 0 18 -38 8 -63 -15
-41 -38 -97 -79 -97 -72 0 4 -14 -3 -32 -15 -18 -13 -47 -31 -65 -40 l-33 -17
0 27 c0 17 11 38 31 57 48 45 87 107 115 181 34 89 44 274 19 324 -10 19 -16
52 -15 87 1 31 -1 81 -5 109 -9 61 -13 63 -119 69 -121 8 -139 11 -216 38 -41
15 -88 29 -105 31 -16 3 -39 7 -50 9 -11 3 -40 7 -65 10 -25 4 -56 9 -70 13
-14 3 -29 7 -35 9 -5 1 -40 9 -76 18 -36 9 -96 27 -132 41 -37 14 -67 22 -67
19 0 -4 -7 -1 -15 6 -8 7 -15 9 -15 5 0 -4 -6 -3 -12 2 -18 12 -68 17 -68 6z
m1315 -1691 c28 -10 109 -50 180 -89 72 -39 147 -76 168 -83 22 -7 51 -18 65
-26 17 -9 59 -14 113 -14 74 0 94 -4 140 -27 85 -44 118 -73 164 -148 42 -68
81 -177 70 -194 -4 -8 10 -50 45 -136 5 -11 14 -37 20 -57 6 -21 17 -38 23
-38 21 0 135 -100 196 -172 l60 -71 -3 -91 c-3 -73 -10 -108 -36 -174 -17 -45
-42 -95 -54 -110 -13 -15 -27 -38 -31 -52 -4 -14 -16 -43 -25 -65 -26 -59 -29
-81 -14 -103 7 -10 13 -28 13 -38 0 -10 3 -35 7 -54 3 -19 6 -80 6 -135 1
-218 1 -219 -185 -283 -88 -31 -230 -115 -274 -164 -25 -27 -103 -172 -103
-191 0 -7 -9 -30 -20 -52 -11 -22 -20 -48 -20 -58 0 -15 -5 -17 -28 -12 -15 3
-47 -1 -71 -10 -55 -19 -131 -19 -157 0 -10 8 -40 15 -65 15 -69 0 -103 9
-133 35 -32 28 -119 43 -141 25 -37 -30 -257 -90 -334 -90 -22 0 -44 6 -51 15
-10 12 -15 12 -36 -1 -35 -23 -67 -11 -111 42 -21 25 -54 65 -74 87 -19 23
-46 59 -58 80 -13 20 -42 50 -64 66 -53 35 -232 121 -254 121 -33 0 -103 51
-128 94 -14 23 -25 50 -25 58 0 9 -14 46 -31 83 -31 65 -32 70 -26 173 3 59
11 128 18 154 14 52 19 36 -58 183 -14 28 -29 59 -33 70 -4 11 -13 34 -20 50
-15 35 -16 39 -18 81 -2 22 -9 34 -26 42 -25 11 -66 85 -66 118 0 34 54 105
147 196 102 98 144 168 193 319 36 110 50 136 126 230 65 80 100 102 164 104
25 1 79 3 120 5 41 2 80 5 85 9 12 7 26 9 95 17 61 7 90 19 91 37 0 12 81 81
127 107 15 9 45 27 67 41 63 40 115 58 115 39 0 -21 27 -9 57 25 17 19 35 35
40 35 4 0 31 -8 58 -18z"/>
<path fill="#20ab81" d="M6400 7315 c0 -8 -5 -15 -12 -15 -17 0 -143 -135 -161 -173 -8 -18
-22 -48 -31 -67 -8 -19 -29 -53 -45 -75 -18 -24 -39 -72 -51 -119 -12 -45 -32
-92 -45 -108 -32 -38 -32 -86 -1 -254 29 -153 43 -194 89 -265 18 -30 45 -72
59 -94 29 -46 171 -216 216 -258 20 -19 44 -30 73 -34 24 -3 78 -17 119 -31
58 -19 101 -26 191 -30 119 -4 167 3 219 36 13 8 42 17 65 19 76 8 100 11 108
12 4 1 7 23 7 49 0 27 9 75 20 108 22 64 24 109 20 509 -2 160 1 214 15 270 9
39 20 94 24 123 7 51 7 54 -18 66 -14 7 -39 16 -56 20 -16 4 -61 22 -100 41
-81 39 -156 65 -188 65 -28 0 -192 52 -238 75 -19 9 -73 42 -120 71 -47 30
-94 54 -103 54 -10 0 -14 5 -11 10 4 6 -5 10 -19 10 -16 0 -26 -6 -26 -15z"/>
<path fill="#20ab81" d="M2514 7203 c-27 -20 -65 -49 -84 -63 -19 -15 -62 -37 -94 -49 -33
-12 -64 -25 -70 -29 -6 -3 -20 -8 -31 -9 -11 -2 -24 -9 -30 -16 -5 -6 -28 -21
-50 -32 -22 -11 -54 -30 -70 -42 -24 -18 -63 -37 -95 -48 -23 -8 -49 -21 -70
-35 -14 -10 -52 -27 -85 -39 -33 -12 -73 -28 -90 -36 -16 -7 -42 -17 -58 -20
-42 -11 -46 -57 -15 -170 5 -22 12 -69 14 -105 5 -71 10 -124 17 -155 3 -11
12 -83 22 -160 19 -160 22 -181 36 -252 6 -29 11 -80 13 -114 2 -57 4 -62 31
-74 17 -7 36 -22 42 -33 23 -39 63 -50 199 -57 137 -7 158 -3 357 71 86 32
172 84 230 138 15 14 32 26 37 26 5 0 16 8 26 18 10 9 21 17 25 17 11 0 59 58
59 72 0 6 6 18 13 25 14 16 39 60 74 133 13 28 31 62 39 77 8 15 24 53 35 84
25 74 25 240 1 375 -16 86 -22 100 -55 134 -20 21 -37 44 -37 51 0 7 -3 14 -7
16 -5 2 -23 32 -41 68 -44 86 -58 111 -69 119 -5 3 -23 26 -40 51 -33 47 -67
80 -83 80 -6 0 -10 5 -10 10 0 21 -38 9 -86 -27z"/>
<path fill="#20ab81" d="M1750 5421 c0 -44 -42 -166 -66 -192 -9 -10 -27 -19 -39 -19 -16 0
-28 -12 -46 -47 -13 -27 -28 -51 -34 -55 -5 -4 -6 -8 -1 -8 4 0 1 -11 -8 -25
-9 -13 -16 -31 -16 -40 0 -16 -4 -25 -36 -85 -10 -19 -17 -35 -15 -35 7 0 -15
-64 -36 -106 -13 -26 -23 -52 -23 -57 0 -6 -6 -17 -14 -25 -18 -18 -21 -35
-12 -69 6 -20 2 -36 -13 -61 -12 -19 -21 -45 -21 -58 -1 -13 -7 -35 -15 -49
-22 -39 -18 -53 32 -90 26 -19 74 -62 107 -95 34 -33 99 -94 145 -135 47 -41
107 -97 135 -124 28 -27 80 -74 116 -104 36 -30 76 -66 89 -79 13 -12 28 -23
33 -23 6 0 8 -7 4 -15 -5 -14 13 -21 39 -15 6 1 15 3 21 4 7 1 19 7 27 14 8 7
23 14 34 16 52 10 129 70 258 200 141 143 182 199 205 286 12 42 37 155 43
190 2 9 6 21 10 27 8 13 -45 333 -66 393 -6 19 -19 46 -28 60 -9 14 -24 42
-34 62 -9 21 -40 59 -67 85 -28 26 -60 58 -71 71 -11 12 -25 22 -30 22 -5 0
-17 8 -26 18 -23 25 -60 47 -104 61 -20 7 -42 21 -47 32 -16 30 -64 49 -118
48 -27 -1 -55 1 -60 5 -21 13 -168 48 -209 50 -43 2 -43 2 -43 -33z"/>
<path fill="#20ab81" d="M6165 3913 c-110 -30 -272 -106 -245 -115 7 -2 -23 -33 -67 -68 -88
-73 -173 -156 -173 -170 0 -6 -4 -10 -10 -10 -5 0 -10 -7 -10 -15 0 -8 -13
-34 -30 -57 -16 -22 -30 -50 -30 -62 0 -12 -7 -43 -15 -71 -9 -27 -18 -77 -21
-110 -4 -33 -8 -63 -10 -66 -5 -9 40 -246 74 -389 18 -78 34 -123 49 -140 13
-14 23 -30 23 -36 0 -25 42 -22 88 6 55 34 249 72 452 90 135 11 255 34 425
82 41 12 50 19 53 39 14 129 56 293 83 325 12 15 49 142 49 170 0 11 -9 29
-20 39 -17 16 -20 26 -14 64 8 62 56 216 83 270 l23 44 -34 28 c-49 44 -52 45
-96 68 -22 11 -55 23 -73 26 -39 7 -51 14 -44 25 3 4 -3 14 -12 21 -12 11 -69
14 -247 16 -127 1 -240 -1 -251 -4z"/>
<path fill="#20ab81" d="M4415 3270 c-11 -4 -49 -13 -85 -20 -95 -17 -274 -100 -217 -100 11
0 -9 -22 -51 -59 -52 -45 -78 -76 -107 -132 -21 -41 -51 -94 -68 -119 -44 -66
-63 -101 -96 -179 -35 -82 -45 -178 -21 -191 8 -4 58 -27 110 -50 52 -24 109
-55 125 -70 46 -40 91 -71 190 -130 132 -78 249 -157 343 -233 46 -37 90 -67
96 -67 7 0 46 28 87 63 41 34 97 77 124 96 28 19 82 61 121 92 39 32 118 92
175 135 57 42 120 91 140 108 76 65 124 101 130 99 4 -1 12 4 18 11 9 10 6 36
-9 102 -27 113 -49 162 -108 237 -27 34 -73 97 -102 140 -29 43 -71 93 -92
112 -40 34 -147 95 -167 95 -6 0 -45 16 -87 35 l-75 35 -177 -1 c-97 0 -186
-4 -197 -9z"/>
<path fill="black" d="M3114 8916 c-3 -9 -14 -16 -24 -16 -26 0 -46 -28 -34 -48 8 -12 6
-25 -10 -52 -11 -19 -23 -37 -26 -40 -3 -3 -28 -41 -55 -85 -27 -44 -64 -101
-82 -127 -18 -26 -33 -52 -33 -57 0 -5 -3 -11 -8 -13 -4 -1 -28 -36 -52 -77
-25 -40 -53 -85 -62 -100 -10 -14 -23 -36 -29 -48 -7 -13 -16 -23 -21 -23 -4
0 -8 -6 -8 -14 0 -8 -6 -21 -13 -28 -7 -7 -32 -44 -56 -83 -23 -38 -47 -79
-54 -90 -7 -10 -17 -25 -24 -32 -6 -7 -15 -22 -18 -33 -3 -11 -11 -20 -16 -20
-5 0 -9 -4 -9 -10 0 -5 -19 -38 -43 -73 -24 -34 -46 -70 -50 -80 -3 -9 -15
-17 -26 -17 -25 0 -118 -88 -131 -126 -13 -35 -66 -70 -118 -80 -20 -4 -41
-10 -47 -14 -5 -5 -32 -11 -60 -16 -27 -4 -66 -16 -85 -28 -19 -12 -53 -29
-75 -40 -22 -10 -51 -25 -65 -32 -14 -8 -54 -29 -90 -47 -36 -17 -70 -37 -76
-43 -7 -5 -52 -23 -100 -38 -49 -15 -105 -32 -124 -38 -19 -6 -43 -19 -53 -29
-10 -11 -24 -19 -31 -19 -8 0 -16 -7 -20 -15 -6 -17 -121 -75 -148 -75 -10 0
-18 -4 -18 -8 0 -13 -74 -42 -108 -42 -25 0 -32 -4 -32 -19 0 -10 -6 -24 -14
-30 -19 -16 -8 -51 15 -51 11 0 19 -1 19 -2 0 -2 7 -41 15 -87 8 -46 12 -87
10 -92 -3 -4 0 -11 5 -14 6 -4 10 -17 9 -28 -1 -12 1 -29 4 -37 11 -28 28
-140 22 -149 -3 -6 0 -13 5 -16 6 -4 10 -17 9 -28 -1 -12 1 -29 4 -37 11 -27
78 -423 72 -428 -3 -3 -1 -10 4 -16 11 -14 33 -144 26 -156 -3 -5 -1 -12 5
-15 7 -4 9 -28 5 -63 -13 -123 -14 -143 -6 -186 10 -55 -15 -112 -88 -202 -27
-33 -56 -81 -64 -105 -9 -25 -27 -67 -41 -93 -14 -27 -26 -57 -26 -67 0 -10
-4 -21 -10 -24 -5 -3 -10 -15 -10 -25 0 -10 -5 -20 -10 -22 -6 -2 -12 -14 -15
-28 -7 -39 -82 -182 -113 -215 -27 -29 -54 -101 -67 -180 -4 -21 -15 -51 -25
-65 -9 -14 -21 -35 -24 -47 -4 -13 -12 -23 -17 -23 -5 0 -9 -8 -9 -19 0 -28
-25 -72 -56 -96 -25 -20 -25 -22 -10 -38 10 -9 15 -21 12 -26 -9 -14 22 -34
45 -28 17 5 114 -72 478 -378 397 -333 463 -393 500 -449 23 -36 55 -74 70
-85 41 -29 60 -85 67 -198 3 -54 14 -123 24 -153 10 -30 30 -95 45 -145 15
-49 33 -107 41 -128 21 -55 33 -118 43 -211 6 -63 16 -98 43 -151 19 -39 41
-95 47 -125 7 -30 20 -79 28 -107 8 -29 12 -66 8 -81 -5 -27 -2 -31 36 -51 44
-23 69 -22 69 4 0 14 63 15 593 12 532 -2 631 -6 659 -23 15 -10 53 -15 96
-15 23 1 57 -6 75 -15 30 -16 112 -94 154 -147 10 -13 35 -32 56 -42 20 -9 37
-21 37 -25 0 -4 14 -13 30 -20 17 -7 30 -16 30 -20 0 -4 18 -15 40 -25 22 -10
40 -21 40 -25 0 -4 18 -15 40 -25 22 -10 40 -21 40 -25 0 -4 14 -14 32 -21 17
-7 66 -46 107 -87 72 -70 169 -132 208 -132 10 0 35 -15 55 -33 20 -17 46 -39
58 -47 63 -43 111 -83 106 -88 -11 -10 16 -33 28 -23 6 5 25 11 41 13 25 2 30
8 30 30 1 25 33 73 43 64 2 -3 15 8 29 25 14 16 30 26 36 22 7 -3 9 -3 5 2 -9
9 42 51 57 47 5 -2 7 -1 3 3 -7 7 105 107 117 105 3 0 17 13 32 30 14 17 28
29 30 26 3 -3 16 8 30 25 14 16 30 26 36 22 7 -3 9 -3 5 2 -7 7 167 159 175
153 2 -2 16 12 31 30 16 18 33 29 39 25 7 -3 9 -3 5 2 -9 9 42 51 57 47 5 -2
7 -1 3 3 -11 12 114 111 193 152 74 40 186 83 214 83 8 0 15 -4 15 -9 0 -6 12
-6 31 1 34 12 169 5 211 -11 14 -5 28 -8 29 -6 7 6 82 17 135 20 28 1 61 6 73
10 12 4 39 8 59 10 20 2 57 6 82 11 52 9 161 10 240 1 36 -3 66 0 88 8 17 8
32 12 32 10 0 -2 18 2 41 10 36 13 195 29 254 26 11 0 28 -1 38 -2 9 0 17 -4
17 -9 0 -5 7 -7 15 -4 8 4 15 11 15 18 0 6 9 18 20 26 32 23 25 56 -12 51 -3
0 -3 14 2 32 5 18 52 283 106 590 71 407 102 562 115 575 9 10 20 29 24 43 4
13 12 30 18 37 6 8 12 31 13 52 1 22 12 52 26 70 23 32 131 114 165 127 10 3
31 20 46 37 15 17 51 56 80 86 29 31 77 84 107 119 30 34 66 72 79 84 65 60
89 78 122 93 33 15 73 63 120 145 16 28 99 112 99 101 0 -4 14 9 30 28 16 19
30 38 30 41 0 7 35 20 59 23 9 0 15 14 16 36 2 47 -12 73 -35 67 -16 -4 -46
41 -175 267 -85 149 -162 282 -170 296 -8 14 -51 88 -95 165 -44 77 -85 147
-90 155 -74 118 -102 181 -116 260 -3 19 -16 51 -28 70 -13 19 -24 52 -25 72
-1 33 32 178 46 201 7 12 11 62 18 279 4 98 8 183 9 190 2 7 6 31 10 53 4 22
14 58 23 81 10 29 13 61 8 115 -11 133 -11 144 -2 184 4 22 10 65 11 95 1 30
4 61 7 68 2 8 -14 20 -45 32 -27 11 -59 28 -71 40 -11 11 -27 20 -33 20 -7 0
-12 5 -12 11 0 5 -4 8 -9 5 -11 -7 -101 26 -101 37 0 4 -4 6 -9 3 -11 -7 -101
26 -101 37 0 4 -4 6 -9 2 -9 -5 -90 22 -101 34 -3 3 -9 6 -15 6 -24 1 -95 29
-95 37 0 5 -4 7 -9 4 -8 -5 -90 22 -101 34 -3 3 -9 5 -15 5 -24 1 -95 29 -95
37 0 5 -4 7 -9 4 -8 -5 -90 22 -101 34 -3 3 -9 5 -15 5 -21 1 -95 29 -95 35 0
4 -6 7 -12 7 -22 -2 -98 26 -98 35 0 5 -5 6 -10 3 -6 -3 -29 12 -53 34 -23 23
-48 41 -54 41 -7 0 -13 4 -13 10 0 5 -19 14 -42 20 -28 7 -54 24 -74 46 -30
34 -84 149 -84 179 0 8 -4 15 -10 15 -5 0 -9 4 -7 9 1 5 -15 27 -35 49 -21 23
-38 46 -38 52 0 5 -4 10 -10 10 -5 0 -10 6 -10 14 0 7 -7 20 -16 27 -19 16
-139 176 -176 234 -24 39 -54 113 -50 127 1 4 -7 10 -18 13 -11 4 -18 11 -14
16 3 6 -2 13 -13 15 -10 3 -23 15 -28 26 -6 11 -14 20 -18 19 -12 -3 -60 52
-83 94 -10 19 -22 35 -27 35 -4 0 -6 4 -3 8 3 5 -21 34 -52 65 l-58 57 -59
-15 c-32 -9 -65 -21 -72 -27 -7 -6 -13 -7 -13 -3 0 4 -7 2 -15 -5 -8 -7 -15
-9 -15 -5 0 4 -7 2 -15 -5 -8 -7 -15 -9 -15 -5 0 4 -7 2 -15 -5 -8 -7 -15 -9
-15 -5 0 4 -6 3 -12 -2 -7 -6 -31 -16 -53 -23 -22 -7 -46 -17 -52 -23 -7 -5
-13 -6 -13 -2 0 4 -7 2 -15 -5 -8 -7 -15 -9 -15 -5 0 4 -7 2 -15 -5 -8 -7 -15
-9 -15 -5 0 4 -7 2 -15 -5 -8 -7 -15 -9 -15 -5 0 4 -6 3 -12 -2 -7 -6 -31 -16
-53 -23 -22 -7 -46 -17 -52 -23 -7 -5 -13 -6 -13 -2 0 4 -7 2 -15 -5 -8 -7
-15 -9 -15 -5 0 4 -7 2 -15 -5 -8 -7 -15 -9 -15 -5 0 4 -7 2 -15 -5 -8 -7 -15
-9 -15 -5 0 4 -6 3 -12 -2 -7 -6 -31 -16 -53 -23 -22 -7 -46 -17 -52 -23 -7
-5 -13 -6 -13 -2 0 4 -7 2 -15 -5 -8 -7 -15 -9 -15 -5 0 4 -6 3 -12 -2 -7 -6
-31 -16 -53 -23 -22 -7 -78 -27 -125 -45 -72 -28 -97 -33 -160 -31 -41 1 -93
-4 -114 -11 -52 -17 -145 -5 -173 22 -8 8 -21 15 -28 15 -7 0 -20 6 -27 13
-26 26 -117 64 -136 58 -1 -1 -17 5 -36 13 -19 8 -37 11 -41 8 -3 -4 -9 -1
-13 5 -4 6 -26 13 -50 17 -23 3 -50 9 -60 14 -9 5 -35 13 -57 17 -22 5 -46 9
-53 11 -25 5 -147 58 -162 70 -26 21 -73 36 -130 40 -86 6 -119 13 -168 34
-25 11 -54 22 -66 24 -39 8 -81 27 -103 48 -20 19 -23 19 -29 4z m2625 -258
c22 -24 41 -47 41 -52 0 -5 11 -24 25 -42 14 -18 25 -36 25 -39 0 -7 67 -103
80 -115 3 -3 14 -23 25 -45 11 -22 22 -42 25 -45 4 -3 13 -21 22 -40 9 -19 30
-48 47 -64 17 -17 31 -36 31 -43 0 -7 5 -13 10 -13 6 0 10 -7 10 -15 0 -8 4
-15 8 -15 5 0 19 -22 31 -48 13 -27 35 -60 50 -75 15 -14 33 -43 40 -65 8 -23
30 -61 50 -85 75 -92 96 -121 104 -140 8 -21 7 -22 -80 -117 -23 -25 -52 -57
-65 -72 l-23 -27 -35 50 c-19 28 -47 66 -62 85 -15 20 -30 45 -34 57 -4 12 -9
24 -13 27 -3 3 -17 27 -31 53 -14 26 -34 58 -45 71 -104 124 -142 172 -288
370 -27 37 -77 86 -88 86 -4 0 -11 9 -14 20 -9 30 -43 25 -105 -15 -8 -5 -19
-10 -25 -11 -41 -7 -79 -16 -137 -33 -38 -11 -68 -17 -68 -14 0 3 -7 0 -15 -7
-8 -7 -15 -9 -15 -6 0 4 -22 -5 -50 -21 -27 -15 -50 -31 -50 -35 0 -5 -9 -8
-21 -8 -11 0 -29 -5 -39 -10 -16 -9 -226 -60 -301 -74 -13 -3 -24 -5 -24 -6 0
-1 -11 -3 -25 -6 -14 -2 -42 -11 -63 -19 -20 -8 -41 -15 -46 -15 -4 0 -11 48
-14 108 -3 59 -8 116 -10 127 -4 21 13 29 188 91 39 13 77 27 85 31 8 3 18 7
23 8 4 2 9 4 12 5 3 1 8 3 13 4 4 1 12 4 17 7 6 4 48 19 95 34 47 15 91 32 98
38 6 5 12 6 12 2 0 -4 6 -3 13 2 6 6 50 23 97 38 47 15 91 32 98 38 6 5 12 6
12 2 0 -4 7 -2 15 5 8 7 15 9 15 5 0 -4 6 -3 13 2 6 6 30 16 52 23 22 7 45 15
50 19 6 3 19 7 29 8 11 2 25 8 33 14 7 6 13 8 13 4 0 -4 7 -2 15 5 8 7 15 9
15 5 0 -4 6 -2 13 4 8 6 23 12 35 14 12 2 25 6 28 10 15 15 33 6 73 -35z
m-2459 18 c14 -3 51 -16 82 -30 32 -14 68 -27 80 -30 41 -7 150 -45 164 -57 8
-6 14 -8 14 -4 0 4 11 0 25 -9 14 -9 25 -13 25 -10 0 4 8 0 18 -8 9 -9 37 -19
62 -23 25 -4 79 -20 120 -36 41 -16 80 -29 87 -29 7 0 13 -5 13 -11 0 -5 4 -8
9 -5 5 4 47 -10 93 -29 45 -20 90 -37 98 -39 183 -37 175 -30 164 -143 -4 -48
-8 -116 -8 -150 0 -34 -3 -60 -7 -58 -25 16 -70 30 -116 38 -17 3 -37 8 -43
12 -5 3 -23 9 -38 11 -15 3 -40 12 -56 20 -16 8 -34 14 -41 14 -6 0 -31 9 -55
21 -23 11 -55 23 -69 25 -14 2 -46 9 -71 14 -25 5 -61 11 -80 14 -19 2 -35 5
-35 6 0 1 -13 3 -30 5 -16 1 -30 3 -30 4 0 3 -5 4 -60 15 -16 3 -64 15 -105
27 -41 11 -100 22 -130 25 -30 2 -67 6 -82 9 -24 6 -29 2 -47 -34 -12 -22 -21
-47 -21 -56 0 -8 -4 -15 -9 -15 -5 0 -26 -26 -47 -57 -22 -32 -55 -80 -76
-107 -20 -27 -44 -74 -54 -105 -15 -50 -76 -153 -111 -189 -7 -7 -13 -16 -13
-20 0 -4 -16 -24 -35 -44 -19 -20 -35 -39 -35 -43 0 -8 -80 -109 -90 -113 -4
-2 -23 16 -41 40 -19 23 -59 69 -90 103 l-57 60 39 59 c22 32 46 70 54 85 25
43 38 64 68 102 15 20 27 40 27 44 0 3 14 26 30 50 17 24 30 47 30 51 0 3 10
15 22 25 11 11 18 19 13 19 -4 0 -1 7 6 16 7 9 18 24 24 35 16 28 91 148 135
214 22 33 43 68 46 78 4 9 9 17 13 17 3 0 18 21 31 48 14 26 27 49 30 52 13
13 50 70 50 78 0 19 27 33 55 28 17 -3 41 -8 55 -10z m2312 -538 c60 -70 108
-133 108 -143 0 -3 35 -47 78 -98 116 -139 135 -164 187 -257 47 -83 102 -170
115 -180 10 -8 40 -54 40 -62 0 -4 -17 -25 -37 -46 -21 -22 -56 -65 -78 -96
-22 -31 -45 -56 -51 -56 -7 0 -14 -7 -18 -15 -3 -8 -12 -15 -21 -15 -8 0 -15
-4 -15 -9 0 -38 -152 -122 -320 -176 -106 -34 -200 -51 -200 -36 0 4 -8 7 -17
7 -102 4 -153 10 -153 17 0 4 -4 6 -9 3 -16 -10 -41 6 -57 36 -12 24 -20 29
-39 24 -23 -6 -74 10 -86 27 -3 5 -9 7 -11 5 -5 -3 -95 52 -132 82 -45 35 -85
78 -112 120 -16 25 -31 47 -34 50 -6 5 -32 59 -36 73 -1 4 -2 8 -4 10 -1 1 -3
10 -5 19 -2 9 -14 32 -28 50 -23 30 -50 105 -46 125 2 4 -1 28 -5 53 -10 68
-14 243 -5 265 4 11 8 17 8 13 1 -4 17 0 36 8 19 8 36 13 37 12 4 -2 155 31
193 42 17 5 46 12 65 15 69 11 171 50 246 95 18 10 49 21 70 24 22 4 59 13 84
20 25 8 62 17 82 21 20 3 50 12 65 20 15 8 33 15 40 15 6 0 35 -28 65 -62z
m-2177 -11 c19 -6 35 -9 103 -22 15 -3 38 -10 52 -15 14 -5 36 -12 50 -14 14
-3 50 -9 80 -15 30 -6 71 -13 90 -16 19 -3 52 -10 73 -14 20 -5 37 -7 37 -5 0
3 13 -2 30 -11 16 -8 32 -15 35 -15 3 0 20 -6 38 -13 17 -7 59 -21 92 -31 33
-9 70 -22 83 -27 13 -5 33 -9 46 -9 12 0 26 -3 30 -7 4 -5 21 -13 38 -18 l31
-11 -1 -103 c-1 -56 -6 -119 -11 -139 -5 -20 -12 -63 -16 -95 -3 -31 -12 -63
-18 -70 -7 -6 -21 -32 -31 -57 -17 -39 -100 -175 -116 -190 -3 -3 -17 -21 -30
-40 -27 -40 -70 -86 -70 -76 0 4 -13 -2 -29 -13 -15 -11 -31 -18 -34 -14 -4 3
-9 -2 -13 -11 -3 -9 -10 -14 -14 -11 -4 3 -18 -6 -31 -18 -28 -28 -74 -47
-120 -52 -19 -2 -35 -4 -36 -4 -2 -1 -5 -1 -8 -2 -2 0 -19 -5 -37 -10 -29 -9
-141 -20 -223 -22 -58 -2 -131 14 -205 45 -41 18 -77 35 -80 39 -6 8 -52 32
-65 35 -59 10 -169 103 -234 197 -16 23 -43 55 -60 70 l-32 28 33 41 c18 22
45 58 61 80 15 21 32 45 37 51 85 103 141 194 169 273 12 33 35 74 52 91 16
18 29 37 29 42 0 6 4 11 10 11 5 0 12 11 16 25 3 14 14 31 23 38 18 13 36 40
50 74 17 38 64 49 126 30z m3701 -773 c297 -108 551 -200 565 -206 24 -8 26
-12 24 -71 -2 -34 -8 -89 -14 -122 -5 -33 -13 -95 -16 -138 -3 -44 -10 -100
-17 -125 -6 -26 -12 -76 -14 -112 -5 -91 -12 -161 -20 -190 -3 -14 -7 -47 -8
-75 -2 -27 -8 -67 -15 -87 -7 -21 -14 -92 -15 -158 -2 -67 -5 -123 -8 -125 -5
-5 -62 -16 -108 -20 -19 -2 -35 -4 -35 -5 0 -1 -18 -3 -40 -6 -33 -3 -69 -9
-82 -13 -2 -1 -5 -1 -8 -1 -3 -1 -23 -7 -45 -15 l-41 -15 5 43 c3 23 9 74 13
112 4 39 8 75 8 80 3 24 17 103 25 145 5 25 12 144 15 265 3 121 7 234 10 250
3 17 2 69 -1 118 -7 94 -13 104 -71 110 -24 3 -132 49 -183 78 -39 22 -106 51
-124 54 -73 12 -107 21 -156 42 -73 32 -284 136 -290 144 -3 4 -15 9 -27 13
-27 9 -22 20 32 81 46 52 55 63 55 70 0 5 43 75 46 75 1 0 244 -88 540 -196z
m-4807 49 c11 -10 40 -47 66 -83 26 -36 67 -84 91 -107 l44 -43 -66 -30 c-37
-16 -74 -30 -83 -30 -10 0 -21 -4 -26 -8 -6 -5 -30 -15 -55 -22 -25 -7 -55
-19 -67 -26 -11 -7 -45 -26 -75 -42 -29 -16 -69 -39 -88 -50 -19 -11 -98 -52
-175 -90 -77 -38 -153 -81 -170 -96 -16 -14 -38 -29 -49 -32 -16 -5 -18 -13
-12 -51 3 -25 9 -50 13 -56 4 -6 8 -32 9 -57 6 -149 16 -230 33 -279 31 -90
39 -151 47 -346 2 -71 8 -156 12 -187 8 -55 8 -57 -12 -53 -12 3 -46 7 -76 9
-30 3 -68 8 -85 12 -38 8 -65 11 -135 13 -50 1 -56 3 -58 24 -1 12 -46 276
-101 586 -104 587 -105 601 -60 601 9 0 22 7 29 15 7 8 19 15 26 15 8 0 22 4
32 9 9 5 28 13 42 19 14 6 64 29 111 51 48 23 91 41 98 41 6 0 20 5 31 10 11
6 29 15 40 20 11 6 27 10 35 10 8 0 32 10 53 23 20 13 69 36 107 51 39 16 93
39 120 52 28 13 64 26 80 29 29 7 155 64 165 76 8 10 64 37 78 38 7 1 21 -7
31 -16z m2147 -526 l6 -227 -84 56 c-101 68 -154 95 -267 139 -139 53 -141 54
-125 74 59 67 144 148 169 161 40 20 235 149 260 172 20 19 20 19 28 -64 4
-46 10 -185 13 -311z m45 373 c8 0 35 -20 64 -47 8 -7 17 -13 21 -13 10 0 108
-63 112 -72 2 -5 8 -8 13 -8 6 0 22 -11 37 -25 15 -14 50 -42 79 -63 29 -20
52 -42 53 -49 0 -7 11 -24 25 -39 l25 -27 -32 -22 c-45 -30 -276 -168 -315
-189 -27 -13 -72 -22 -73 -13 -1 1 -5 115 -11 252 -5 138 -11 270 -14 295 -2
25 -2 39 1 33 3 -7 10 -13 15 -13z m2026 -101 c87 -43 166 -79 175 -79 10 0
18 -4 18 -9 0 -8 39 -18 104 -27 28 -3 131 -48 221 -96 22 -12 58 -27 80 -33
36 -11 41 -16 49 -55 6 -27 5 -90 -2 -174 -6 -72 -11 -189 -11 -261 0 -71 -5
-159 -11 -195 -6 -36 -13 -81 -16 -100 -2 -19 -9 -63 -14 -97 -6 -34 -9 -66
-8 -70 3 -13 -14 -104 -19 -100 -2 3 -25 -2 -51 -10 -57 -18 -222 -29 -292
-19 -73 10 -278 78 -290 95 -3 5 -22 14 -42 20 -21 7 -55 30 -75 53 -21 22
-64 66 -96 99 -34 35 -60 71 -64 89 -3 17 -10 30 -16 30 -6 0 -8 2 -5 6 3 3
-7 31 -22 63 -25 50 -42 100 -55 161 -2 8 -9 30 -14 49 -17 55 -5 217 19 280
12 30 23 75 25 100 4 56 10 70 58 143 20 31 37 59 37 62 0 3 13 18 28 33 16
16 42 48 58 73 33 52 42 60 60 53 7 -2 84 -40 171 -84z m-3869 -154 c27 -27
59 -71 71 -97 13 -27 27 -48 32 -48 11 0 48 -80 56 -123 3 -17 9 -34 13 -37
12 -9 41 -203 43 -282 1 -51 -3 -81 -12 -92 -8 -9 -11 -19 -8 -23 4 -3 1 -15
-6 -27 -6 -11 -12 -28 -13 -36 -4 -42 -27 -101 -52 -133 -15 -20 -38 -53 -52
-73 -14 -20 -62 -75 -107 -123 -77 -82 -108 -103 -234 -162 -9 -4 -45 -13 -80
-19 -35 -6 -75 -19 -89 -28 -36 -24 -262 -22 -321 2 -21 9 -27 50 -35 246 -3
85 -10 177 -15 203 -5 26 -8 51 -7 55 3 11 -13 76 -22 87 -11 15 -22 65 -26
115 -10 155 -16 213 -24 234 -7 20 -3 29 23 53 28 27 186 113 206 113 5 0 48
23 97 52 130 75 252 136 309 153 28 8 79 28 115 44 59 25 66 26 77 12 7 -9 35
-38 61 -66z m1394 -184 c150 -56 375 -183 385 -216 2 -6 -27 -21 -64 -33 -47
-15 -96 -43 -156 -88 -49 -36 -90 -64 -92 -62 -1 1 -30 66 -65 143 -34 77 -80
173 -101 214 -31 56 -37 76 -28 87 9 11 13 11 25 -1 8 -7 51 -27 96 -44z m922
37 c7 -7 15 -21 19 -32 5 -12 14 -17 27 -13 25 6 23 -3 -36 -173 -24 -68 -44
-131 -44 -140 -1 -44 -17 -41 -101 20 -46 33 -117 77 -156 97 -40 20 -73 39
-73 42 0 4 53 37 118 76 64 38 139 84 167 102 56 37 61 38 79 21z m138 -45 c5
-6 25 -9 48 -7 l38 5 28 -83 c15 -46 37 -105 49 -133 24 -55 60 -193 53 -201
-3 -2 -36 7 -73 21 -40 15 -111 31 -171 37 -80 9 -104 16 -104 27 0 8 22 80
49 160 27 80 53 164 57 186 5 27 9 33 12 20 2 -11 8 -25 14 -32z m-1201 -51
c51 -95 169 -354 169 -370 0 -11 -81 -22 -175 -22 -66 0 -107 -8 -219 -43 -48
-16 -48 -16 -43 6 36 156 99 364 125 410 9 15 21 27 26 27 14 0 56 50 56 67 0
29 17 8 61 -75z m1732 74 c48 -5 87 -12 85 -17 -8 -22 -338 -443 -343 -437 -2
2 -13 44 -24 93 -11 50 -31 115 -44 145 -33 74 -72 198 -65 205 3 3 37 9 74
12 38 3 70 6 71 7 5 4 166 -2 246 -8z m191 -17 c-3 -5 0 -9 5 -9 6 0 11 -9 11
-20 0 -11 4 -20 9 -20 5 0 12 -17 16 -37 5 -21 9 -42 11 -48 1 -5 5 -30 9 -55
4 -24 8 -47 10 -51 2 -3 7 -20 10 -37 3 -18 7 -47 11 -64 3 -18 9 -52 15 -76
5 -23 11 -58 14 -77 2 -20 7 -40 10 -45 12 -19 -16 -20 -54 -1 -48 25 -184 49
-343 61 -65 4 -122 11 -127 15 -6 3 11 32 39 68 28 34 96 123 152 197 126 167
175 221 194 213 7 -3 11 -9 8 -14z m-2235 -9 c10 -5 38 -10 62 -11 24 -1 51
-6 61 -11 15 -7 15 -11 -2 -45 -27 -58 -90 -259 -90 -290 0 -16 -9 -47 -20
-71 l-20 -43 -53 58 c-172 187 -311 341 -328 364 l-19 27 78 13 c93 17 307 22
331 9z m-441 -66 c16 -25 78 -98 139 -162 60 -64 127 -137 149 -162 21 -25 56
-63 76 -85 l38 -40 -78 -8 c-94 -9 -407 -63 -479 -83 -21 -6 -21 -3 -18 63 4
64 38 254 51 274 3 5 7 19 9 31 3 12 13 50 23 83 11 33 20 73 20 89 2 27 16
45 34 46 5 0 21 -21 36 -46z m1427 -137 c11 -8 34 -19 50 -24 35 -12 147 -82
224 -141 l54 -40 99 0 c112 -1 134 -4 238 -40 92 -31 111 -47 159 -137 42 -77
53 -106 76 -210 9 -38 20 -81 25 -95 5 -14 11 -41 15 -61 4 -27 12 -39 28 -43
37 -9 192 -166 220 -222 14 -28 37 -65 51 -81 l25 -30 -23 -84 c-41 -143 -89
-242 -150 -307 l-30 -32 17 -88 c29 -143 38 -242 31 -325 -7 -78 -20 -107 -51
-107 -8 0 -27 -8 -41 -19 -15 -10 -76 -42 -137 -72 -151 -74 -196 -108 -229
-171 -54 -103 -120 -208 -162 -255 l-42 -48 -113 0 c-95 1 -130 5 -209 29
-212 63 -195 60 -223 42 -55 -37 -180 -69 -292 -76 -60 -3 -118 -10 -129 -15
-15 -6 -35 9 -110 86 -50 52 -117 131 -150 176 -55 77 -61 82 -107 92 -118 25
-308 147 -337 215 -29 68 -43 203 -32 315 5 58 12 127 14 152 4 38 1 51 -15
65 -40 36 -126 215 -139 289 -7 39 -19 80 -26 92 -8 12 -14 27 -14 34 0 27
103 163 202 266 99 102 108 115 108 150 1 104 84 303 147 349 43 31 189 75
268 79 39 3 108 7 155 9 72 4 87 8 99 26 14 22 149 128 190 149 13 7 55 24 92
36 47 16 78 34 95 54 28 34 49 38 79 18z m980 -317 c95 -1 266 -31 343 -61 55
-21 62 -27 60 -49 -3 -26 -57 -72 -198 -168 -47 -32 -109 -75 -137 -95 -29
-20 -55 -37 -57 -37 -7 0 -27 67 -51 169 -12 53 -38 129 -59 168 -20 40 -36
77 -36 82 0 6 12 6 32 0 18 -5 64 -9 103 -9z m-2035 -64 c0 -2 -20 -42 -44
-90 -28 -54 -49 -113 -57 -156 -9 -53 -16 -70 -28 -70 -9 0 -52 21 -96 46
-130 75 -210 112 -261 124 -78 19 -75 16 -63 44 12 26 71 43 224 66 39 6 97
17 130 24 54 13 195 21 195 12z m2495 -135 c-4 -9 -18 -68 -31 -131 -13 -63
-31 -137 -40 -165 -18 -58 -102 -240 -108 -234 -2 2 -21 33 -41 67 -21 36 -72
98 -117 141 l-80 77 134 91 c73 51 158 111 188 136 39 31 62 42 78 39 17 -3
21 -9 17 -21z m-3007 -62 c42 -11 115 -41 162 -67 47 -25 115 -61 152 -80 l67
-34 -92 -93 c-51 -51 -115 -127 -142 -168 -27 -42 -52 -74 -56 -71 -4 2 -10
16 -14 31 -3 16 -19 57 -34 93 -100 234 -120 288 -120 315 1 17 -4 43 -10 58
-18 46 -21 45 87 16z m3092 -18 c0 -4 17 -13 38 -19 21 -6 47 -20 58 -31 11
-10 30 -22 42 -25 12 -4 22 -12 22 -17 0 -5 5 -9 10 -9 10 0 70 -56 70 -66 0
-7 101 -103 128 -121 37 -25 26 -39 -45 -56 -38 -8 -93 -23 -123 -32 -30 -8
-98 -22 -150 -30 -52 -9 -130 -25 -173 -36 -44 -11 -81 -19 -83 -16 -2 2 11
37 30 79 49 104 82 208 101 315 l17 91 29 -10 c16 -5 29 -13 29 -17z m-3199
-138 c24 -54 46 -106 114 -273 26 -63 49 -120 51 -126 6 -14 -47 -10 -246 16
-80 10 -198 21 -264 24 -65 4 -123 9 -128 12 -11 7 30 48 147 149 38 33 80 71
94 85 24 24 116 100 172 143 13 9 26 17 31 17 4 0 17 -21 29 -47z m4791 -277
c27 -44 48 -81 48 -83 0 -3 8 -17 19 -31 10 -15 29 -47 43 -72 14 -25 35 -61
46 -80 12 -19 34 -57 49 -85 15 -27 35 -62 43 -77 17 -30 119 -204 163 -277
15 -25 32 -55 37 -66 6 -11 20 -36 32 -55 60 -100 68 -119 59 -142 -5 -13 -37
-51 -71 -83 -233 -222 -235 -224 -280 -255 -19 -13 -39 -30 -43 -38 -12 -19
-97 -114 -97 -107 0 3 -8 -3 -19 -12 -10 -10 -49 -45 -86 -78 -84 -75 -147
-137 -205 -204 -44 -49 -47 -50 -73 -39 -15 7 -27 16 -27 21 0 4 -6 7 -14 7
-8 0 -21 6 -28 13 -7 7 -20 16 -28 20 -8 4 -42 23 -75 43 -33 19 -72 40 -87
45 -16 6 -28 15 -28 19 0 12 105 112 179 171 36 28 74 63 85 77 12 15 37 45
56 66 19 22 57 64 85 95 27 31 86 94 131 141 45 47 89 101 99 120 10 19 24 39
31 43 22 13 16 44 -16 80 -16 19 -30 38 -30 42 0 5 -12 33 -27 64 -14 31 -38
83 -53 117 -15 33 -44 78 -64 100 -34 37 -69 101 -130 236 -14 31 -26 61 -26
67 0 5 -6 22 -14 38 -61 121 -76 165 -58 162 4 -1 10 0 15 1 4 1 12 4 17 5 6
1 11 3 13 5 3 2 26 7 72 14 99 15 173 35 181 47 12 19 31 0 76 -75z m-1111 28
c24 -23 26 -30 18 -53 -6 -14 -16 -33 -23 -41 -7 -8 -28 -55 -46 -105 -18 -49
-41 -99 -50 -110 -9 -11 -27 -46 -40 -78 -13 -33 -39 -75 -58 -95 -19 -21 -44
-50 -55 -67 -42 -59 -46 -60 -63 -18 -27 67 -33 76 -162 224 -132 151 -187
218 -181 223 8 7 181 45 274 61 55 10 118 24 140 32 41 16 179 50 204 52 8 1
27 -11 42 -25z m645 -144 c15 -39 31 -73 36 -76 4 -3 8 -12 8 -20 0 -39 114
-262 161 -314 21 -23 46 -63 56 -89 10 -25 28 -66 40 -91 13 -25 23 -51 23
-57 0 -7 5 -13 10 -13 6 0 10 -7 10 -16 0 -9 9 -27 19 -40 18 -22 18 -28 6
-57 -7 -18 -60 -81 -118 -142 -57 -60 -142 -153 -188 -206 -46 -53 -127 -132
-180 -177 -52 -44 -107 -93 -120 -109 -20 -23 -30 -28 -46 -22 -12 4 -24 12
-27 18 -4 6 -13 8 -21 4 -8 -3 -15 -1 -15 5 0 5 -10 13 -22 16 -13 3 -43 24
-67 46 -25 22 -49 40 -54 40 -10 0 -61 51 -97 99 -35 45 -130 211 -130 226 0
7 -9 24 -21 39 -17 22 -22 45 -25 114 -2 48 -6 111 -9 141 -3 37 2 69 15 104
11 27 17 54 14 59 -3 4 0 8 7 8 7 0 10 3 6 6 -6 6 27 109 41 128 5 6 17 31 26
55 19 50 72 129 99 149 10 8 30 25 45 39 38 35 112 86 112 76 0 -4 15 8 33 28
34 38 87 69 119 69 10 0 32 7 48 15 17 9 30 13 30 10 0 -4 5 -3 12 1 6 4 29 9
51 10 22 2 42 6 45 8 14 15 43 -22 68 -84z m-5791 19 c10 0 24 -4 30 -8 12 -9
138 -31 208 -35 26 -2 50 -5 52 -8 3 -3 -4 -22 -14 -44 -11 -21 -37 -73 -57
-114 -49 -100 -71 -139 -100 -177 -13 -17 -24 -36 -24 -42 0 -5 -5 -22 -12
-38 -6 -15 -12 -30 -13 -33 -1 -3 -7 -18 -13 -33 -7 -16 -12 -32 -12 -37 0 -4
-14 -41 -31 -81 -16 -41 -31 -80 -33 -87 -1 -7 -8 -18 -14 -24 -7 -7 -12 -16
-12 -21 0 -9 -34 -91 -50 -119 -5 -9 -13 -36 -16 -60 -4 -24 -11 -51 -16 -61
-12 -23 12 -62 42 -72 12 -4 58 -45 103 -92 116 -121 116 -121 177 -156 53
-30 139 -111 283 -265 38 -41 67 -75 65 -77 -9 -9 -79 -55 -84 -55 -3 0 -18
-9 -34 -20 -15 -11 -30 -17 -34 -13 -3 3 -6 2 -6 -4 0 -6 -16 -23 -35 -37 -34
-26 -35 -26 -62 -9 -16 9 -38 26 -50 38 -12 11 -36 31 -54 45 -17 14 -47 39
-65 55 -19 17 -46 40 -61 52 -16 13 -43 35 -61 50 -18 16 -47 39 -64 53 -73
60 -92 77 -124 105 -19 17 -48 41 -65 55 -17 14 -43 35 -57 47 -15 12 -84 69
-154 127 -69 58 -129 110 -133 115 -7 12 24 108 46 142 9 13 39 74 68 134 30
61 60 118 69 128 8 9 12 17 8 17 -3 0 7 19 24 42 16 22 30 47 30 53 0 17 57
140 88 189 13 21 25 46 27 57 2 10 23 46 46 81 24 35 42 64 41 66 -2 1 6 23
18 48 11 26 20 51 20 56 0 6 7 26 17 45 15 31 19 34 47 29 17 -4 40 -7 51 -7z
m1209 -49 c83 -6 171 -14 196 -19 25 -5 84 -12 133 -16 48 -4 87 -11 87 -15 0
-5 -11 -17 -25 -28 -43 -34 -142 -163 -192 -250 -26 -46 -58 -99 -70 -118 -25
-38 -27 -51 -13 -74 12 -19 23 -5 91 116 28 49 70 117 95 150 52 69 164 194
175 194 4 0 13 -33 19 -72 9 -52 27 -101 66 -174 l53 -101 -132 -37 c-73 -21
-183 -55 -245 -77 -62 -21 -115 -39 -118 -39 -2 0 -4 7 -4 15 0 8 -7 15 -15
15 -8 0 -15 5 -15 10 0 6 -16 26 -35 45 -19 19 -55 68 -81 107 -25 40 -55 85
-65 100 -10 15 -19 32 -19 38 0 6 -11 28 -25 50 -14 22 -25 49 -25 60 0 11 -4
20 -10 20 -5 0 -13 12 -16 26 -4 15 -14 35 -23 45 -49 54 -49 53 9 45 29 -4
121 -11 204 -16z m3426 -203 c58 -65 110 -129 117 -140 24 -43 43 -90 38 -95
-2 -3 -28 6 -57 18 -46 20 -79 25 -248 33 -107 6 -196 11 -197 12 -2 1 17 36
41 79 24 42 59 123 76 179 18 56 35 109 37 117 3 11 17 0 46 -34 23 -28 89
-103 147 -169z m-4044 143 c25 -11 50 -18 55 -14 11 6 92 -34 145 -72 72 -52
194 -157 194 -166 0 -4 11 -13 24 -19 24 -11 52 -57 72 -119 4 -14 6 -27 5
-29 -2 -2 1 -7 6 -10 5 -3 20 -28 32 -54 18 -36 24 -72 28 -150 8 -152 8 -155
-1 -247 -11 -114 -73 -249 -153 -338 -13 -14 -23 -32 -23 -41 -1 -16 -64 -91
-78 -91 -4 0 -27 -18 -52 -40 -25 -22 -53 -40 -62 -40 -10 0 -18 -4 -18 -10 0
-5 -7 -10 -15 -10 -8 0 -24 -9 -34 -19 -28 -28 -57 -42 -75 -35 -9 3 -16 9
-16 13 0 10 -198 219 -252 267 -38 33 -85 64 -90 59 -3 -3 -66 55 -141 129
-147 146 -147 146 -117 221 7 17 16 39 21 50 22 55 43 101 52 113 6 7 27 62
47 122 20 60 41 115 47 122 6 7 13 26 17 41 4 16 25 59 47 95 23 37 64 114 93
170 28 57 55 112 60 121 8 15 17 16 73 9 35 -5 84 -18 109 -28z m4132 -406
c36 -13 71 -29 77 -34 7 -5 14 -7 17 -4 3 3 9 1 12 -5 4 -6 -21 -27 -55 -48
-34 -21 -79 -52 -98 -69 -20 -17 -83 -57 -141 -89 -58 -32 -116 -68 -130 -80
-27 -25 -91 -65 -102 -65 -5 0 -8 46 -8 103 0 57 -9 150 -20 212 -11 61 -20
112 -20 114 0 2 91 1 201 -3 180 -6 209 -10 267 -32z m-2876 -28 c2 -19 0 -79
-5 -133 -7 -70 -6 -121 3 -181 7 -45 11 -84 8 -87 -3 -3 -34 8 -69 25 -35 16
-70 30 -77 30 -8 0 -67 28 -133 61 -88 45 -130 74 -159 107 -33 37 -44 43 -65
38 -14 -4 -31 -4 -37 0 -15 10 464 169 518 173 7 1 14 -14 16 -33z m3003 -150
c1 -6 10 -29 20 -51 21 -46 52 -170 60 -235 3 -25 8 -56 10 -70 3 -14 7 -58
10 -98 3 -40 10 -84 15 -98 5 -13 7 -24 4 -24 -4 0 -1 -7 6 -15 11 -14 10 -14
-11 -6 -78 31 -111 48 -172 92 -57 42 -208 119 -233 119 -13 0 -232 108 -238
118 -3 5 12 17 34 27 21 10 49 29 62 42 13 14 52 40 88 59 95 50 152 84 175
104 11 10 47 36 80 59 l60 40 14 -26 c7 -14 14 -31 16 -37z m-3274 -195 c67
-34 128 -61 137 -61 21 0 102 -40 102 -50 0 -4 -51 -41 -112 -82 -62 -41 -162
-108 -223 -150 -60 -41 -133 -86 -160 -99 l-51 -24 3 60 c13 281 25 351 89
503 l15 34 39 -36 c21 -19 94 -62 161 -95z m2689 -138 c0 -21 7 -73 15 -116
25 -134 16 -437 -14 -437 -3 0 -26 25 -51 56 -25 31 -82 91 -126 133 -106 99
-200 209 -188 221 5 4 68 39 139 75 72 37 146 76 165 86 51 27 60 24 60 -18z
m157 -42 c54 -26 116 -54 138 -61 65 -21 151 -65 218 -113 34 -24 86 -55 115
-67 28 -12 52 -26 52 -29 0 -10 -74 -49 -145 -76 -33 -13 -73 -29 -90 -35 -16
-7 -39 -15 -49 -17 -11 -2 -25 -8 -33 -14 -7 -6 -13 -8 -13 -4 0 4 -7 2 -15
-5 -8 -7 -15 -9 -15 -6 0 4 -10 0 -22 -8 -12 -9 -28 -16 -35 -16 -6 0 -24 -5
-40 -11 -15 -6 -28 -10 -28 -9 0 1 -13 -4 -30 -10 -16 -6 -47 -14 -69 -16 -38
-5 -38 -5 -30 23 13 47 12 263 -2 358 -14 88 -18 165 -10 165 3 0 49 -22 103
-49z m-2553 -6 c-2 -19 -6 -51 -8 -70 -6 -43 11 -445 19 -466 5 -13 -2 -14
-52 -8 -99 12 -148 27 -255 78 -56 27 -134 61 -173 75 -113 44 -116 46 -109
57 3 6 25 19 48 28 39 17 130 74 226 143 86 60 295 198 302 198 4 0 5 -16 2
-35z m135 -53 c43 -33 105 -68 142 -82 35 -13 67 -26 71 -30 9 -7 -20 -52
-114 -176 -37 -49 -74 -102 -82 -119 -8 -16 -27 -57 -42 -90 -15 -32 -29 -53
-32 -45 -2 8 -11 30 -19 49 -12 26 -16 88 -20 267 -5 215 -2 284 13 284 3 0
41 -26 83 -58z m1861 -92 c0 -5 66 -76 148 -158 133 -135 177 -183 222 -245
14 -20 14 -20 -75 -13 -50 4 -109 11 -132 17 -23 5 -88 16 -145 24 -57 9 -133
25 -170 36 l-68 20 49 67 c26 37 72 111 102 164 49 89 69 114 69 88z m-1502
-140 c38 -52 98 -122 132 -155 52 -50 59 -60 43 -66 -53 -18 -405 -83 -448
-83 -27 1 -53 -3 -57 -9 -4 -7 -10 -9 -13 -5 -14 13 50 139 110 218 36 47 84
113 107 148 23 34 45 59 48 55 4 -5 39 -51 78 -103z m807 -159 c22 -5 65 -17
95 -26 80 -24 137 -34 208 -34 l63 -1 -34 -42 c-18 -24 -45 -63 -58 -88 -36
-66 -164 -224 -195 -240 -31 -17 -76 -68 -69 -80 4 -7 -25 -24 -30 -18 -6 7
-35 233 -45 343 -5 66 -13 139 -16 163 -6 48 -15 45 81 23z m-116 -118 c18
-184 42 -365 52 -397 9 -28 9 -29 -10 -12 -11 10 -25 15 -32 10 -9 -5 -11 -1
-6 15 4 18 -12 36 -91 105 -54 46 -113 101 -133 122 -52 56 -149 187 -149 201
0 10 23 13 83 13 65 0 100 6 167 29 47 17 90 30 96 30 7 1 16 -42 23 -116z
m2012 54 c62 -3 98 -10 125 -24 22 -11 57 -26 79 -33 22 -7 46 -19 53 -27 7
-7 20 -13 28 -13 8 0 14 -4 14 -9 0 -5 12 -12 26 -15 23 -6 25 -10 19 -39 -8
-40 -52 -192 -68 -231 -6 -17 -12 -37 -13 -45 -2 -9 -14 -56 -28 -106 -16 -56
-26 -115 -26 -158 0 -64 -17 -142 -61 -283 -10 -34 -19 -71 -19 -82 0 -37 -57
-55 -237 -72 -131 -13 -170 -18 -223 -30 -71 -15 -224 -26 -355 -26 l-119 1
-11 35 c-6 19 -23 60 -37 90 -14 30 -26 75 -26 99 -1 25 -8 52 -16 60 -27 30
-4 307 35 429 6 18 12 40 13 48 2 13 64 102 94 132 7 8 19 27 27 42 19 37 176
146 277 195 43 20 79 35 81 33 2 -2 11 3 20 11 10 7 17 11 17 8 0 -3 18 1 41
7 38 11 77 12 290 3z m-1366 -22 c44 -14 105 -28 135 -31 30 -3 98 -14 150
-24 52 -10 130 -21 172 -25 l77 -7 -14 -36 c-9 -19 -18 -48 -20 -65 -3 -16
-13 -46 -22 -66 -9 -20 -17 -39 -17 -42 -1 -8 -67 -110 -81 -125 -25 -29 -45
-55 -60 -81 -8 -15 -24 -41 -35 -58 -11 -16 -28 -46 -38 -65 -28 -54 -46 -80
-55 -80 -4 0 -3 9 3 21 9 16 8 24 -3 37 -23 26 -44 73 -51 116 -4 21 -16 57
-26 80 -58 127 -200 462 -200 471 0 7 -6 8 85 -20z m-66 -141 c27 -65 61 -146
76 -179 48 -105 95 -226 95 -243 0 -10 8 -33 18 -52 l17 -35 -120 28 c-204 48
-437 129 -473 164 -7 7 -18 13 -24 13 -16 0 20 37 57 60 31 19 189 218 215
270 22 45 75 109 83 101 4 -4 30 -61 56 -127z m-1049 106 c0 -25 -37 -145 -78
-256 -17 -45 -36 -110 -42 -144 -6 -34 -24 -100 -39 -146 -19 -60 -24 -87 -17
-96 6 -7 -4 0 -21 16 -52 47 -293 444 -317 522 -6 20 -2 22 46 27 29 3 118 19
198 37 128 28 219 45 258 49 6 0 12 -3 12 -9z m89 -22 c46 -75 133 -173 244
-273 64 -58 117 -107 117 -109 0 -2 -24 -19 -52 -38 -56 -37 -186 -97 -253
-118 -22 -7 -58 -18 -80 -25 -22 -7 -62 -18 -89 -24 -27 -7 -66 -21 -87 -32
-44 -22 -44 -22 -25 17 8 16 24 70 36 119 12 50 49 173 81 275 32 102 62 197
65 213 8 35 18 34 43 -5z m-947 -76 c99 -50 125 -69 192 -140 105 -109 182
-222 207 -302 11 -36 25 -108 30 -160 4 -52 11 -115 15 -139 7 -48 -6 -121
-38 -216 -11 -33 -25 -82 -32 -108 -6 -26 -17 -51 -23 -55 -14 -9 -80 -5 -218
13 -91 12 -113 15 -170 20 -93 8 -193 7 -212 -3 -19 -9 -66 -9 -148 2 -27 4
-90 9 -140 11 -79 4 -91 7 -107 27 -17 22 -63 156 -79 228 -4 19 -28 96 -54
170 -55 158 -70 214 -80 293 -6 52 -33 164 -50 208 -4 12 6 21 42 37 26 12 70
37 97 56 26 19 71 43 100 52 28 9 58 23 66 30 14 12 68 26 145 38 17 2 101 3
187 1 l157 -4 113 -59z m3868 -72 c25 -13 54 -30 65 -37 11 -7 30 -17 42 -22
11 -5 24 -14 27 -20 4 -6 13 -8 21 -4 8 3 15 1 15 -5 0 -6 14 -13 30 -17 29
-6 31 -9 25 -43 -7 -40 -10 -57 -19 -117 -4 -22 -10 -53 -13 -70 -4 -16 -7
-37 -9 -45 -8 -54 -29 -177 -39 -220 -3 -14 -8 -47 -11 -75 -4 -27 -8 -53 -10
-56 -2 -4 -6 -24 -9 -45 -3 -22 -11 -64 -16 -94 -6 -30 -12 -68 -14 -83 -2
-15 -9 -54 -15 -85 -6 -31 -13 -70 -15 -85 -2 -15 -9 -54 -16 -85 -6 -31 -11
-62 -12 -69 0 -15 -23 -26 -57 -29 -14 -1 -25 -3 -25 -4 0 -2 -39 -4 -86 -5
-47 -1 -90 -4 -95 -7 -5 -3 -76 -6 -159 -7 -131 -1 -190 -5 -190 -11 0 -2
-140 -9 -315 -15 -69 -2 -136 -7 -150 -10 -14 -4 -48 -9 -75 -12 l-51 -5 -17
38 c-9 22 -24 66 -33 99 -9 33 -25 80 -36 104 -13 29 -16 47 -10 53 6 6 72 10
154 10 108 -1 189 6 333 28 105 15 233 33 285 38 52 6 109 17 125 26 17 9 40
16 52 16 24 0 29 12 36 90 5 47 35 167 60 235 8 23 13 66 11 100 -3 69 11 133
62 290 9 28 18 60 19 71 2 12 7 30 13 40 5 11 18 53 28 95 21 86 24 87 94 49z
m-4852 -237 c12 -49 26 -122 33 -163 6 -41 24 -113 40 -160 56 -162 86 -255
109 -340 13 -47 36 -108 51 -136 16 -28 29 -58 29 -66 0 -15 16 -20 60 -17 46
4 84 2 180 -6 52 -4 127 -7 165 -5 114 6 237 4 290 -3 28 -4 70 -9 95 -12 25
-2 65 -7 90 -11 25 -4 71 -7 103 -8 44 0 56 -3 52 -13 -14 -37 -65 -201 -70
-225 l-5 -28 -594 0 c-463 0 -596 3 -603 13 -13 18 -30 73 -43 142 -6 33 -20
89 -30 125 -10 36 -28 116 -39 179 -11 62 -24 119 -29 125 -9 12 -27 87 -38
155 -3 24 -13 59 -20 77 -8 18 -14 51 -14 74 0 22 -16 87 -35 144 -19 58 -35
111 -35 119 0 14 219 138 231 131 4 -2 16 -43 27 -91z m2405 -188 c18 -2 58
-6 89 -10 128 -14 282 -68 349 -122 66 -54 94 -79 98 -86 5 -12 43 -49 78 -75
17 -13 43 -47 59 -75 15 -29 35 -68 46 -87 10 -19 18 -42 18 -52 0 -9 5 -20
11 -23 6 -4 8 -13 5 -20 -2 -7 4 -22 14 -33 22 -24 45 -95 37 -116 -3 -8 -46
-41 -94 -72 -226 -147 -263 -174 -330 -242 -65 -66 -98 -92 -232 -181 -20 -13
-48 -35 -63 -48 -36 -34 -64 -26 -178 50 -86 57 -274 173 -345 213 -16 9 -73
53 -125 96 -52 44 -113 92 -136 107 -23 15 -56 39 -73 54 l-33 27 21 33 c11
19 26 58 32 88 12 58 30 99 60 138 11 13 19 33 19 43 0 26 32 70 95 133 61 62
175 159 175 150 0 -3 19 9 43 28 37 31 69 43 137 51 9 1 20 5 25 8 6 4 28 9
50 12 22 4 54 10 70 15 17 4 34 6 38 4 4 -3 22 -6 40 -8z m884 -875 c4 -8 7
-17 8 -20 7 -20 19 -46 24 -50 3 -3 14 -20 24 -39 15 -29 16 -36 4 -48 -7 -8
-214 -182 -458 -387 l-444 -373 -49 24 c-27 14 -55 30 -61 37 -7 6 -29 25 -49
41 -21 17 -47 38 -58 47 -11 10 -29 20 -39 23 -11 4 -19 11 -19 17 0 6 -3 8
-7 5 -3 -4 -15 3 -27 16 -12 12 -41 38 -66 57 -25 19 -47 38 -48 43 -2 4 -22
17 -45 28 -22 12 -46 26 -53 33 -6 6 -22 18 -34 26 -13 8 -37 28 -54 43 -17
16 -44 35 -61 44 -16 9 -51 36 -78 61 -46 45 -79 67 -161 113 -68 37 -71 43
-51 97 9 26 25 65 35 87 9 22 23 58 31 80 7 22 14 41 15 43 4 8 192 -129 264
-195 55 -49 70 -59 205 -136 39 -22 129 -79 201 -127 72 -48 144 -90 160 -94
16 -4 37 -14 46 -23 20 -18 46 -7 76 32 19 24 52 48 189 140 34 22 80 63 102
90 42 51 106 99 331 248 l125 83 8 -26 c5 -14 11 -32 14 -40z"/>

</g>
</svg>
